#N canvas 0 285 637 782 10;
#X obj 113 400 vradio 15 1 0 9 empty empty empty 0 -6 0 8 -260818 -1
-1 6;
#X obj 59 170 bng 15 250 50 1 empty empty + 0 -6 0 8 -258699 -1 -1
;
#X obj 116 170 bng 15 250 50 0 empty empty - 0 -6 0 8 -258699 -1 -1
;
#X obj 91 302 int;
#X msg 78 213 1;
#X msg 121 214 -1;
#X obj 82 270 +;
#X obj 53 214 bng 15 250 50 0 empty empty empty 0 -6 0 8 -262144 -1
-1;
#X floatatom 78 237 5 0 0 0 - - -;
#X floatatom 114 279 5 0 0 0 - - -;
#X floatatom 100 370 5 0 0 0 counter - -;
#X floatatom 179 170 5 0 0 0 min - -;
#X obj 252 268 bng 15 250 50 0 empty empty empty 0 -6 0 8 -262144 -1
-1;
#X obj 184 267 bng 15 250 50 0 empty empty empty 0 -6 0 8 -262144 -1
-1;
#X floatatom 183 225 5 0 0 0 - - -;
#X floatatom 250 224 5 0 0 0 - - -;
#X obj 241 244 select 1;
#X obj 169 246 select 1;
#X floatatom 247 167 5 0 0 0 max - -;
#X obj 256 202 >;
#X floatatom 178 287 5 0 0 0 - - -;
#X floatatom 244 287 5 0 0 0 - - -;
#X obj 183 199 <;
#X floatatom 113 553 5 0 0 0 - - -;
#X obj 116 97 inlet;
#X obj 59 97 inlet;
#X obj 179 97 inlet;
#X obj 247 98 inlet;
#X obj 100 596 outlet;
#X floatatom 161 368 5 0 0 0 - - -;
#X obj 299 340 bng 15 250 50 0 empty empty empty 0 -6 0 8 -128992 -1
-1;
#X obj 320 339 loadbang;
#X text 35 3 count incremental o decremental bangs (inlet 1 \, 2) with
min max values for output (inlet 3 \, 4) and reset counter (inlet 5)
;
#X obj 311 100 inlet;
#X text 150 405;
#X connect 0 0 23 0;
#X connect 1 0 4 0;
#X connect 1 0 7 0;
#X connect 2 0 5 0;
#X connect 2 0 7 0;
#X connect 3 0 6 0;
#X connect 3 0 10 0;
#X connect 4 0 8 0;
#X connect 5 0 8 0;
#X connect 6 0 9 0;
#X connect 7 0 6 0;
#X connect 7 0 3 0;
#X connect 8 0 6 1;
#X connect 9 0 3 1;
#X connect 9 0 19 0;
#X connect 9 0 22 0;
#X connect 10 0 0 0;
#X connect 10 0 28 0;
#X connect 11 0 20 0;
#X connect 11 0 22 1;
#X connect 11 0 29 0;
#X connect 12 0 21 0;
#X connect 13 0 20 0;
#X connect 14 0 17 0;
#X connect 15 0 16 0;
#X connect 16 0 12 0;
#X connect 17 0 13 0;
#X connect 18 0 19 1;
#X connect 18 0 21 0;
#X connect 19 0 15 0;
#X connect 20 0 9 0;
#X connect 21 0 9 0;
#X connect 22 0 14 0;
#X connect 24 0 2 0;
#X connect 25 0 1 0;
#X connect 26 0 11 0;
#X connect 27 0 18 0;
#X connect 29 0 3 0;
#X connect 30 0 29 0;
#X connect 30 0 11 0;
#X connect 31 0 30 0;
#X connect 33 0 30 0;
