#N canvas -8 -8 1366 696 10;
#X obj 71 598 sig~;
#X floatatom 133 145 5 0 0 2 KNOB1 - -, f 5;
#X floatatom 182 145 5 0 0 2 KNOB2 - -, f 5;
#X floatatom 244 145 5 0 0 2 KNOB3 - -, f 5;
#X obj 191 116 cnv 5 5 5 empty empty KNOBS 0 0 0 12 -262144 -66577
0;
#X obj 66 628 lop~ 10;
#X obj 70 656 outlet~;
#X obj 38 30 ctlin 0 1;
#X floatatom 163 193 5 0 0 2 KNOB4 - -, f 5;
#X floatatom 212 193 5 0 0 2 KNOB5 - -, f 5;
#X floatatom 262 194 5 0 0 2 KNOB6 - -, f 5;
#X floatatom 129 242 5 0 0 2 KNOB7 - -, f 5;
#X floatatom 178 242 5 0 0 2 KNOB8 - -, f 5;
#X floatatom 240 242 5 0 0 2 KNOB9 - -, f 5;
#X floatatom 162 291 5 0 0 2 KNOB10 - -, f 5;
#X floatatom 211 291 5 0 0 2 KNOB11 - -, f 5;
#X floatatom 258 290 5 0 0 2 KNOB12 - -, f 5;
#X obj 151 599 sig~;
#X obj 146 629 lop~ 10;
#X obj 133 655 outlet~;
#X obj 232 598 sig~;
#X obj 227 628 lop~ 10;
#X obj 196 654 outlet~;
#X obj 311 596 sig~;
#X obj 306 626 lop~ 10;
#X obj 263 656 outlet~;
#X obj 398 597 sig~;
#X obj 393 627 lop~ 10;
#X obj 326 655 outlet~;
#X obj 478 598 sig~;
#X obj 473 628 lop~ 10;
#X obj 395 655 outlet~;
#X obj 559 597 sig~;
#X obj 554 627 lop~ 10;
#X obj 460 654 outlet~;
#X obj 638 595 sig~;
#X obj 633 625 lop~ 10;
#X obj 528 651 outlet~;
#X obj 719 593 sig~;
#X obj 714 623 lop~ 10;
#X obj 599 649 outlet~;
#X obj 793 596 sig~;
#X obj 793 621 lop~ 10;
#X obj 667 646 outlet~;
#X obj 865 595 sig~;
#X obj 865 620 lop~ 10;
#X obj 730 646 outlet~;
#X obj 952 595 sig~;
#X obj 952 620 lop~ 10;
#X obj 791 647 outlet~;
#X obj 134 34 ctlin 1 1;
#X obj 227 34 ctlin 2 1;
#X obj 314 35 ctlin 3 1;
#X obj 394 36 ctlin 4 1;
#X obj 475 35 ctlin 5 1;
#X obj 554 33 ctlin 6 1;
#X obj 635 31 ctlin 7 1;
#X obj 714 29 ctlin 8 1;
#X obj 786 28 ctlin 9 1;
#X obj 873 28 ctlin 10 1;
#X obj 952 26 ctlin 11 1;
#X obj 69 576 / 127;
#X obj 149 577 / 127;
#X obj 220 573 / 127;
#X obj 310 571 / 127;
#X obj 392 568 / 127;
#X obj 480 571 / 127;
#X obj 560 572 / 127;
#X obj 625 566 / 127;
#X obj 715 564 / 127;
#X obj 791 568 / 127;
#X obj 862 564 / 127;
#X obj 952 562 / 127;
#X obj 1124 385 sel 60;
#X text 176 4 KNOBS;
#X obj 1124 444 > 0;
#X obj 1125 493 pack 0 10;
#X obj 1133 523 line~;
#X obj 1124 422 t f f f;
#X obj 1124 466 t f;
#X obj 1033 442 > 0;
#X obj 1034 491 pack 0 10;
#X obj 1042 521 line~;
#X obj 1033 420 t f f f;
#X obj 1033 464 t f;
#X obj 935 444 > 0;
#X obj 936 493 pack 0 10;
#X obj 944 523 line~;
#X obj 935 466 t f;
#X obj 999 644 outlet~;
#X obj 936 645 outlet~;
#X obj 863 647 outlet~;
#X obj 262 335 tgl 15 0 empty empty empty 17 7 0 10 -262144 -1 -1 0
1;
#X obj 202 334 tgl 15 0 empty empty empty 17 7 0 10 -262144 -1 -1 0
1;
#X obj 148 335 tgl 15 0 empty empty empty 17 7 0 10 -262144 -1 -1 0
1;
#X text 1031 304 BUTTS;
#X text 192 316 BUTTS;
#X text 102 376 1 2 3 4 5 6 7 8 9 10 11 12;
#X text 288 376 a b c;
#X obj 1016 326 notein 2;
#X obj 1124 385 sel 60;
#X obj 1032 379 sel 61;
#X obj 933 418 t f f f;
#X obj 946 369 sel 62;
#X text 896 158 only gate info is passed;
#X connect 0 0 5 0;
#X connect 1 0 61 0;
#X connect 2 0 62 0;
#X connect 3 0 63 0;
#X connect 5 0 6 0;
#X connect 7 0 1 0;
#X connect 8 0 64 0;
#X connect 9 0 65 0;
#X connect 10 0 66 0;
#X connect 11 0 67 0;
#X connect 12 0 68 0;
#X connect 13 0 69 0;
#X connect 14 0 70 0;
#X connect 15 0 71 0;
#X connect 16 0 72 0;
#X connect 17 0 18 0;
#X connect 18 0 19 0;
#X connect 20 0 21 0;
#X connect 21 0 22 0;
#X connect 23 0 24 0;
#X connect 24 0 25 0;
#X connect 26 0 27 0;
#X connect 27 0 28 0;
#X connect 29 0 30 0;
#X connect 30 0 31 0;
#X connect 32 0 33 0;
#X connect 33 0 34 0;
#X connect 35 0 36 0;
#X connect 36 0 37 0;
#X connect 38 0 39 0;
#X connect 39 0 40 0;
#X connect 41 0 42 0;
#X connect 42 0 43 0;
#X connect 44 0 45 0;
#X connect 45 0 46 0;
#X connect 47 0 48 0;
#X connect 48 0 49 0;
#X connect 50 0 2 0;
#X connect 51 0 3 0;
#X connect 52 0 8 0;
#X connect 53 0 9 0;
#X connect 54 0 10 0;
#X connect 55 0 11 0;
#X connect 56 0 12 0;
#X connect 57 0 13 0;
#X connect 58 0 14 0;
#X connect 59 0 15 0;
#X connect 60 0 16 0;
#X connect 61 0 0 0;
#X connect 62 0 17 0;
#X connect 63 0 20 0;
#X connect 64 0 23 0;
#X connect 65 0 26 0;
#X connect 66 0 29 0;
#X connect 67 0 32 0;
#X connect 68 0 35 0;
#X connect 69 0 38 0;
#X connect 70 0 41 0;
#X connect 71 0 44 0;
#X connect 72 0 47 0;
#X connect 73 0 92 0;
#X connect 75 0 79 0;
#X connect 76 0 77 0;
#X connect 77 0 89 0;
#X connect 78 0 75 0;
#X connect 79 0 76 0;
#X connect 80 0 84 0;
#X connect 81 0 82 0;
#X connect 82 0 90 0;
#X connect 83 0 80 0;
#X connect 84 0 81 0;
#X connect 85 0 88 0;
#X connect 86 0 87 0;
#X connect 87 0 91 0;
#X connect 88 0 86 0;
#X connect 92 0 78 0;
#X connect 93 0 83 0;
#X connect 94 0 102 0;
#X connect 99 0 101 0;
#X connect 99 0 73 0;
#X connect 99 0 103 0;
#X connect 101 0 93 0;
#X connect 102 0 85 0;
#X connect 103 0 94 0;
#X coords 0 -1 1 1 230 300 2 100 100;
