#N canvas 447 772 1904 953 10;
#X obj 620 432 granular-delay 1;
#X obj 1001 159 external-audio 1;
#X obj 860 858 dac~;
#X obj 279 219 random-voltages 1;
#X obj 279 131 clock 1;
#X obj 622 542 stereo-delay 1;
#X obj 723 68 basic-lfo 1;
#X obj 1063 410 rg_grain~;
#X obj 856 693 mixer4;
#X obj 866 813 throw~ outL;
#X obj 945 847 throw~ outR;
#X connect 0 0 5 0;
#X connect 1 0 0 0;
#X connect 1 0 8 1;
#X connect 1 0 7 0;
#X connect 1 1 0 0;
#X connect 1 1 8 1;
#X connect 1 1 7 0;
#X connect 1 3 6 1;
#X connect 1 3 4 0;
#X connect 1 4 6 0;
#X connect 3 1 0 1;
#X connect 4 0 3 0;
#X connect 5 0 8 0;
#X connect 5 1 8 0;
#X connect 6 0 0 2;
#X connect 7 0 8 2;
#X connect 7 0 8 3;
#X connect 8 0 2 0;
#X connect 8 0 9 0;
#X connect 8 1 2 1;
#X connect 8 1 10 0;
