#N canvas 399 196 859 657 10;
#X obj 412 46 bng 15 250 50 0 empty empty empty 0 -6 0 10 -262144 -1
-1;
#X obj 196 269 tabwrite~;
#X msg 254 219 set array1;
#X msg 258 243 set array2;
#X obj 343 -14 select 1 2;
#X obj 466 150 + 1;
#X obj 466 124 float;
#X floatatom 568 182 5 0 0 0 - - -;
#X msg 580 104 0;
#X obj 272 34 adc~;
#X msg 279 148 bang;
#X msg 282 181 stop;
#X obj 30 -23 table array1 441000;
#X obj 34 6 table array2 441000;
#X obj 365 523 dac~;
#X obj 329 116 delay 1;
#X msg 328 331 0;
#X obj 282 376 tabplay~ array1;
#X obj 421 377 tabplay~ array2;
#X msg 453 323 0;
#X obj 432 89 metro 10000;
#X connect 0 0 20 0;
#X connect 2 0 1 0;
#X connect 3 0 1 0;
#X connect 4 0 15 0;
#X connect 4 0 2 0;
#X connect 4 0 19 0;
#X connect 4 1 8 0;
#X connect 4 1 11 0;
#X connect 4 1 3 0;
#X connect 4 1 16 0;
#X connect 5 0 6 1;
#X connect 5 0 7 0;
#X connect 5 0 4 0;
#X connect 6 0 5 0;
#X connect 8 0 6 1;
#X connect 9 0 1 0;
#X connect 10 0 1 0;
#X connect 11 0 1 0;
#X connect 15 0 10 0;
#X connect 16 0 17 0;
#X connect 17 0 14 0;
#X connect 17 0 14 1;
#X connect 17 0 1 0;
#X connect 18 0 14 1;
#X connect 18 0 14 0;
#X connect 18 0 1 0;
#X connect 19 0 18 0;
#X connect 20 0 6 0;
