#N canvas 49 24 1317 714 10;
#X obj 160 255 dac~;
#X obj 608 178 delread~ tape 2000;
#X obj 441 294 *~;
#X obj 77 49 vsl 15 128 0.01 1 0 0 empty empty empty 0 -9 0 10 -262144
-1 -1 12700 1;
#X msg 69 293 \$1 50;
#X obj 69 315 line~;
#X obj 594 399 dac~;
#X obj 445 213 pan~;
#X obj 462 76 hsl 128 15 -45 45 0 0 empty empty empty -2 -8 0 10 -262144
-1 -1 9500 1;
#X obj 495 215 pan~;
#X text 438 50 tape;
#X text 559 50 direct input;
#X obj 374 381 delwrite~ tape 10000;
#X msg 650 129 8000;
#X obj 379 130 adc~;
#X obj 381 235 /~ 0.5;
#X obj 379 181 +~;
#X text 391 212 Mono.;
#X obj 497 295 *~;
#X obj 784 90 metro 500;
#X msg 792 135 1 0;
#X obj 788 216 sig~;
#X obj 788 238 *~;
#X obj 843 219 noise~;
#X obj 794 309 dac~;
#X obj 790 33 tgl 15 0 empty empty empty 17 7 0 10 -262144 -1 -1 0
1;
#X obj 788 194 drip 10;
#X text 462 21 OUTPUT MIXER;
#X text 69 27 FEEDBACK;
#X text 768 5 METRONOME;
#X obj 789 274 *~ 0.05;
#X obj 451 528 writesf~;
#X msg 476 476 open output.wav;
#X msg 580 517 start;
#X msg 582 557 stop;
#X obj 520 404 +~;
#X connect 1 0 2 1;
#X connect 1 0 9 0;
#X connect 2 0 12 0;
#X connect 3 0 4 0;
#X connect 4 0 5 0;
#X connect 5 0 2 0;
#X connect 5 0 18 0;
#X connect 7 0 6 0;
#X connect 7 0 6 1;
#X connect 7 0 35 0;
#X connect 8 0 7 1;
#X connect 8 0 9 1;
#X connect 9 1 18 1;
#X connect 9 1 35 1;
#X connect 13 0 1 0;
#X connect 14 0 16 0;
#X connect 14 1 16 1;
#X connect 15 0 7 0;
#X connect 15 0 12 0;
#X connect 16 0 15 0;
#X connect 18 0 6 0;
#X connect 18 0 6 1;
#X connect 19 0 20 0;
#X connect 20 0 26 0;
#X connect 21 0 22 0;
#X connect 22 0 30 0;
#X connect 23 0 22 1;
#X connect 25 0 19 0;
#X connect 26 0 21 0;
#X connect 30 0 24 0;
#X connect 30 0 24 1;
#X connect 32 0 31 0;
#X connect 33 0 31 0;
#X connect 34 0 31 0;
#X connect 35 0 31 0;