#N canvas 0 50 1366 696 10;
#X obj 402 201 cnv 15 256 182 empty empty audioflow~ 4 12 0 14 -233017
-66577 0;
#X obj 24 18 inlet~;
#X obj 581 251 vsl 20 100 0 1 0 0 \$0-GainRaw empty raw 0 -9 0 10 -262144
-1 -1 4950 1;
#X obj 605 251 vsl 20 100 0 1 0 0 \$0-GainDel empty del 0 -9 0 10 -262144
-1 -1 4950 1;
#X obj 118 505 line~;
#X obj 98 539 *~;
#X msg 118 470 \$1 50;
#X obj 56 619 r~ \$0-bypassedSignal;
#X obj 16 651 outlet~;
#X obj 37 503 line~;
#X obj 21 536 *~;
#X msg 37 468 \$1 50;
#X obj 22 104 r~ \$0-BWMSKSignal;
#X obj 24 71 s~ \$0-BWMSKSignal;
#X obj 416 227 hsl 100 20 0 1 0 0 \$0-a \$0-ra delay 4 8 0 10 -262144
-1 -1 0 1;
#X obj 526 361 hsl 120 20 0 1 0 0 \$0-c \$0-rc gain-all 4 8 0 10 -262144
-1 -1 5950 1;
#X obj 416 254 hsl 100 20 0 1 0 0 \$0-b \$0-rb feedback 4 8 0 10 -262144
-1 -1 0 1;
#N canvas 0 50 458 308 rh_scalelog 0;
#X obj 20 155 exp;
#X obj 20 107 *;
#X obj 20 130 +;
#X obj 98 87 log;
#X obj 194 84 log;
#X obj 123 123 t b f;
#X obj 123 145 -;
#X obj 20 183 outlet;
#X obj 20 19 inlet;
#X obj 98 23 inlet;
#X obj 194 24 inlet;
#X connect 0 0 7 0;
#X connect 1 0 2 0;
#X connect 2 0 0 0;
#X connect 3 0 2 1;
#X connect 3 0 5 0;
#X connect 4 0 6 0;
#X connect 5 0 6 0;
#X connect 5 1 6 1;
#X connect 6 0 1 1;
#X connect 8 0 1 0;
#X connect 9 0 3 0;
#X connect 10 0 4 0;
#X restore 97 219 pd rh_scalelog;
#X obj 250 485 r \$0-gain;
#N canvas 0 50 462 312 rh_scalelog 0;
#X obj 20 155 exp;
#X obj 20 107 *;
#X obj 20 130 +;
#X obj 98 87 log;
#X obj 194 84 log;
#X obj 123 123 t b f;
#X obj 123 145 -;
#X obj 20 183 outlet;
#X obj 20 19 inlet;
#X obj 98 23 inlet;
#X obj 194 24 inlet;
#X connect 0 0 7 0;
#X connect 1 0 2 0;
#X connect 2 0 0 0;
#X connect 3 0 2 1;
#X connect 3 0 5 0;
#X connect 4 0 6 0;
#X connect 5 0 6 0;
#X connect 5 1 6 1;
#X connect 6 0 1 1;
#X connect 8 0 1 0;
#X connect 9 0 3 0;
#X connect 10 0 4 0;
#X restore 250 555 pd rh_scalelog;
#X msg 297 531 0.1;
#X msg 331 528 10;
#X obj 96 143 r \$0-delay;
#X msg 182 193 1000;
#X msg 143 194 1;
#X obj 129 405 delwrite~ \$0-fbbb 1000;
#X obj 128 377 *~;
#X obj 171 340 r \$0-feedback;
#X obj 172 362 * 0.95;
#X obj 20 572 *~ 1;
#X obj 100 291 vd~ \$0-fbbb 100;
#X msg 98 242 \$1 20;
#X obj 99 266 line~;
#X obj 143 167 r \$0-loadbang;
#X obj 297 503 r \$0-loadbang;
#X obj 22 145 *~ 1;
#N canvas 0 50 458 308 rh_scalelog 0;
#X obj 20 155 exp;
#X obj 20 107 *;
#X obj 20 130 +;
#X obj 98 87 log;
#X obj 194 84 log;
#X obj 123 123 t b f;
#X obj 123 145 -;
#X obj 20 183 outlet;
#X obj 20 19 inlet;
#X obj 98 23 inlet;
#X obj 194 24 inlet;
#X connect 0 0 7 0;
#X connect 1 0 2 0;
#X connect 2 0 0 0;
#X connect 3 0 2 1;
#X connect 3 0 5 0;
#X connect 4 0 6 0;
#X connect 5 0 6 0;
#X connect 5 1 6 1;
#X connect 6 0 1 1;
#X connect 8 0 1 0;
#X connect 9 0 3 0;
#X connect 10 0 4 0;
#X restore 834 423 pd rh_scalelog;
#X obj 811 371 r \$0-delay;
#X msg 927 399 1000;
#X msg 880 398 1;
#X obj 852 506 vd~ \$0-fbbb 100;
#X msg 829 448 \$1 20;
#X obj 853 479 line~;
#X obj 880 371 r \$0-loadbang;
#X obj 200 502 line~;
#X obj 184 540 *~;
#X msg 200 467 \$1 50;
#X obj 629 251 vsl 20 100 0 1 0 0 \$0-GainLoop empty loop 0 -9 0 10
-262144 -1 -1 4950 1;
#X obj 613 209 tgl 20 0 \$0-afbyS empty by 24 7 0 15 -262144 -1 -1
0 1;
#X obj 504 421 r \$0-afbyS;
#X text 598 296 gains;
#X msg 394 123 0.5;
#X obj 364 97 loadbang;
#X obj 530 207 tgl 20 0 empty empty off|on 28 12 0 15 -262144 -1 -1
0 1;
#X obj 483 165 switch~;
#X msg 1097 379 0;
#X obj 969 268 sel start stop;
#X obj 969 246 list \$1;
#X obj 969 468 phasor~ 0;
#X obj 913 74 hsl 128 30 0 26901 0 0 \$0-start-s \$0-start start 136
15 0 10 -262144 -258113 -1 0 1;
#X obj 913 109 hsl 128 30 0 26901 0 0 \$0-stop-s \$0-stop stop 136
15 0 10 -262144 -258113 -1 0 1;
#X obj 1197 96 table \$0-sample 4.41e+006;
#X obj 1080 347 t b f;
#X msg 1131 375 0;
#X obj 971 498 fexpr~ $x[0] < $x[-1];
#X obj 971 538 threshold~ 0.5 1 0.1 1;
#X obj 1142 557 bng 20 250 50 0 empty empty reset 0 -8 0 10 -128992
-1 -1;
#X obj 416 281 hsl 100 20 -10 10 0 0 \$0-speed-s \$0-speed vector(+/-speed)
4 8 0 10 -262144 -1 -1 0 1;
#X obj 416 308 hsl 100 20 0.1 10 1 0 \$0-pitch-s \$0-pitch pitch 4
8 0 10 -262144 -1 -1 0 1;
#X obj 1051 171 r \$0-start-s;
#X obj 1002 350 t b f f;
#X obj 1054 194 r \$0-stop-s;
#X obj 1053 220 r \$0-speed-s;
#N canvas 254 91 717 606 recording 1;
#X msg 164 110 stop;
#X obj 97 80 sel start stop;
#X obj 97 59 list \$1;
#X obj 222 172 tabwrite~ \$0-sample;
#X obj 168 265 f;
#X msg 410 158 \; \$1-sample const 0;
#X obj 410 134 \$0;
#X obj 97 113 t b b b b;
#X obj 97 30 inlet;
#X obj 221 30 inlet~;
#X obj 201 242 samplerate~;
#N canvas 370 460 450 300 counter 0;
#X obj 63 22 inlet;
#X obj 115 24 inlet;
#X obj 63 140 outlet;
#X msg 115 69 0;
#X obj 63 67 metro 1;
#X obj 100 110 + 1;
#X obj 63 109 f;
#X connect 0 0 4 0;
#X connect 1 0 3 0;
#X connect 3 0 6 0;
#X connect 4 0 6 0;
#X connect 5 0 6 1;
#X connect 6 0 5 0;
#X connect 6 0 2 0;
#X restore 97 197 pd counter;
#X obj 168 323 outlet;
#X obj 201 271 / 1000;
#X obj 168 293 * 4.41;
#X obj 164 170 t a b b;
#X connect 0 0 3 0;
#X connect 0 0 15 0;
#X connect 1 0 7 0;
#X connect 1 1 0 0;
#X connect 2 0 1 0;
#X connect 4 0 14 0;
#X connect 6 0 5 0;
#X connect 7 0 11 0;
#X connect 7 1 11 1;
#X connect 7 2 3 0;
#X connect 7 3 6 0;
#X connect 8 0 2 0;
#X connect 9 0 3 0;
#X connect 10 0 13 0;
#X connect 11 0 4 1;
#X connect 13 0 14 1;
#X connect 14 0 12 0;
#X connect 15 0 11 0;
#X connect 15 1 4 0;
#X connect 15 2 10 0;
#X restore 783 565 pd recording;
#N canvas 574 267 448 424 phasor-freq-calc 0;
#X obj 42 37 inlet;
#X obj 86 36 inlet;
#X obj 137 35 inlet;
#X obj 42 336 outlet;
#X obj 107 334 outlet;
#X obj 187 35 inlet;
#X obj 234 36 inlet;
#X obj 42 161 t b f;
#X obj 42 214 /;
#X obj 42 244 f;
#X obj 42 104 -;
#X obj 42 75 f;
#X obj 42 132 t f f;
#X obj 42 270 spigot;
#X obj 42 298 * 1;
#X obj 42 187 samplerate~;
#X connect 0 0 11 0;
#X connect 1 0 10 1;
#X connect 2 0 9 0;
#X connect 5 0 13 1;
#X connect 6 0 14 1;
#X connect 7 0 15 0;
#X connect 7 1 8 1;
#X connect 8 0 9 0;
#X connect 9 0 13 0;
#X connect 10 0 12 0;
#X connect 11 0 10 0;
#X connect 12 0 7 0;
#X connect 12 1 4 0;
#X connect 13 0 14 0;
#X connect 14 0 3 0;
#X connect 15 0 8 0;
#X restore 969 376 pd phasor-freq-calc;
#X obj 1053 245 r \$0-reset-s;
#X obj 972 560 s \$0-reset;
#X msg 1075 317 0;
#X msg 986 325 1;
#X obj 1198 119 table \$0-hanning 256;
#N canvas 44 51 443 256 write-hanning 0;
#X msg 142 80 0;
#X obj 36 129 osc~;
#X obj 36 81 samplerate~;
#X obj 36 152 *~ -0.5;
#X obj 36 175 +~ 0.5;
#X obj 28 58 bng 15 250 50 0 empty empty empty 0 -6 0 8 -262144 -1
-1;
#X obj 28 26 loadbang;
#X obj 36 105 / 256;
#X obj 28 200 tabwrite~ \$0-hanning;
#X connect 0 0 1 1;
#X connect 1 0 3 0;
#X connect 2 0 7 0;
#X connect 3 0 4 0;
#X connect 4 0 8 0;
#X connect 5 0 2 0;
#X connect 5 0 0 0;
#X connect 5 0 8 0;
#X connect 6 0 5 0;
#X connect 7 0 1 0;
#X restore 1197 146 pd write-hanning;
#N canvas 713 138 526 599 read-table 0;
#X obj 89 83 / 256;
#X obj 89 56 * 44100;
#X obj 15 30 inlet~;
#X obj 89 28 inlet;
#X obj 233 429 outlet~;
#X obj 18 258 tabread4~ \$0-sample;
#X obj 89 117 phasor~;
#X obj 16 196 samphold~;
#X obj 98 198 *~ 256;
#X obj 17 232 +~;
#X obj 43 288 *~;
#X obj 149 260 tabread4~ \$0-hanning;
#X obj 374 152 +~ 0.5;
#X obj 374 181 wrap~;
#X obj 304 273 tabread4~ \$0-sample;
#X obj 302 211 samphold~;
#X obj 384 213 *~ 256;
#X obj 303 247 +~;
#X obj 329 303 *~;
#X obj 435 275 tabread4~ \$0-hanning;
#X obj 234 395 +~;
#X obj 128 -4 loadbang;
#X obj 128 22 samplerate~;
#X connect 0 0 6 0;
#X connect 1 0 0 0;
#X connect 2 0 7 0;
#X connect 2 0 15 0;
#X connect 3 0 1 0;
#X connect 5 0 10 0;
#X connect 6 0 7 1;
#X connect 6 0 8 0;
#X connect 6 0 12 0;
#X connect 7 0 9 0;
#X connect 8 0 9 1;
#X connect 8 0 11 0;
#X connect 9 0 5 0;
#X connect 10 0 20 0;
#X connect 11 0 10 1;
#X connect 12 0 13 0;
#X connect 13 0 16 0;
#X connect 13 0 15 1;
#X connect 14 0 18 0;
#X connect 15 0 17 0;
#X connect 16 0 17 1;
#X connect 16 0 19 0;
#X connect 17 0 14 0;
#X connect 18 0 20 1;
#X connect 19 0 18 1;
#X connect 20 0 4 0;
#X connect 21 0 22 0;
#X connect 22 0 1 1;
#X restore 1194 496 pd read-table;
#X obj 1269 471 r \$0-pitch-s;
#X obj 969 295 t b b b b;
#X obj 416 358 hsl 100 20 0 1 0 0 empty \$0-pos info:position 4 8 0
10 -228856 -1 -1 0 1;
#X obj 1129 516 s \$0-pos;
#X obj 1129 486 snapshot~;
#X obj 1129 450 metro 10;
#X obj 1129 419 loadbang;
#X obj 1080 282 t b b b b;
#X obj 826 330 soundfiler;
#N canvas 364 328 450 300 set_length 0;
#X obj 91 24 inlet;
#X obj 186 142 s \$0-stop;
#X obj 91 150 s \$0-start;
#X msg 91 111 0;
#X msg 186 90 range 0 \$1;
#X msg 106 88 range 0 \$1;
#X obj 151 226 s \$0-speed;
#X obj 91 57 t b f f f b b;
#X obj 285 117 s \$0-pitch;
#X msg 285 88 1;
#X obj 305 234 outlet;
#X msg 151 195 1;
#X connect 0 0 7 0;
#X connect 3 0 2 0;
#X connect 4 0 1 0;
#X connect 5 0 2 0;
#X connect 7 0 3 0;
#X connect 7 1 5 0;
#X connect 7 1 10 0;
#X connect 7 2 1 0;
#X connect 7 3 4 0;
#X connect 7 4 11 0;
#X connect 7 5 9 0;
#X connect 9 0 8 0;
#X connect 11 0 6 0;
#X restore 783 595 pd set_length;
#X obj 783 161 route rec open play;
#X msg 826 305 read \$1 \$2;
#X obj 825 200 symbol;
#X obj 825 222 t s b;
#X obj 858 245 symbol \$0-sample;
#X obj 825 272 pack s s;
#X msg 524 104 -1;
#X msg 485 104 1, f 5;
#X floatatom 783 621 15 0 0 0 - - -, f 15;
#X obj 786 641 s \$0-sample-length;
#X obj 1198 177 r \$0-sample-length;
#X obj 1194 436 phasor~;
#X obj 1195 464 *~;
#X obj 1258 423 r \$0-sample-length;
#X obj 1258 446 sig~;
#X obj 1194 364 sig~;
#X obj 1193 406 *~ 1;
#X msg 1198 200 44100 \$1;
#X obj 1198 223 /;
#X msg 560 103 0;
#X obj 1199 247 v phasorfreq;
#X msg 1194 307 bang;
#X obj 1239 324 v phasorfreq;
#X obj 442 73 sel 0 1;
#X obj 491 71 sel 1;
#X obj 529 72 sel 1;
#X obj 566 72 sel 1;
#X obj 442 13 inlet;
#N canvas 3 54 1351 686 rec_play_switch 0;
#X obj 24 52 cnv 15 44 36 empty empty empty 20 12 0 14 -233017 -66577
0;
#X msg 27 121 rec start;
#X msg 40 144 rec stop;
#X msg 96 120 play start;
#X msg 119 141 play stop;
#X obj 31 -48 inlet;
#X obj 68 -46 inlet;
#X obj 38 189 outlet;
#X msg 49 9 1;
#X msg 78 9 0;
#X obj 31 -22 route bang 1 0;
#X obj 47 68 tgl 20 0 empty empty PLA 0 -6 0 10 -258113 -1 -1 0 1;
#X obj 76 95 sel 1 0;
#X obj 25 68 tgl 20 0 empty empty REC 0 -6 0 10 -258113 -1 -1 0 1;
#X obj 27 95 sel 1 0;
#X connect 1 0 7 0;
#X connect 2 0 7 0;
#X connect 3 0 7 0;
#X connect 4 0 7 0;
#X connect 5 0 10 0;
#X connect 6 0 11 0;
#X connect 8 0 13 0;
#X connect 9 0 13 0;
#X connect 10 0 13 0;
#X connect 10 1 8 0;
#X connect 10 2 9 0;
#X connect 10 3 7 0;
#X connect 11 0 12 0;
#X connect 12 0 3 0;
#X connect 12 1 4 0;
#X connect 13 0 14 0;
#X connect 14 0 1 0;
#X connect 14 1 2 0;
#X coords 0 -1 1 1 46 40 2 23 50;
#X restore 526 242 pd rec_play_switch;
#X obj 969 435 *~ 1;
#X obj 416 332 hsl 100 20 -1 1 0 0 \$0-phaseMultiplier empty phase*(-1to1)
4 8 0 10 -262144 -1 -1 0 1;
#X floatatom 1194 340 5 0 0 0 - - -, f 5;
#X obj 663 149 route rec;
#X msg 663 233 bang;
#X msg 663 286 1;
#X obj 663 177 list \$1;
#X obj 663 260 t b b;
#X obj 852 537 *~ 1;
#X obj 1194 523 s~ \$0-BIDILOOPOUT;
#X obj 606 72 tgl 15 0 empty empty empty 17 7 0 10 -262144 -1 -1 0
1;
#X floatatom 564 140 5 0 0 0 - - -, f 5;
#X obj 564 159 s \$0-DIRECT;
#X obj 1239 350 r \$0-DIRECT;
#X floatatom 1239 372 5 0 0 0 - - -, f 5;
#X obj 1006 399 r \$0-DIRECT;
#X floatatom 1006 421 5 0 0 0 - - -, f 5;
#X obj 442 36 route /Looperrecord /Looperfwd /Looperbwd /Looperstop
/Switch /delay /feedback /gain /reset;
#X obj 1194 283 r \$0-DIRECT;
#X obj 1237 394 r \$0-phaseMultiplier;
#X obj 37 439 r \$0-GainRaw;
#X obj 118 440 r \$0-GainDel;
#X obj 200 442 r \$0-GainLoop;
#X obj 665 313 s \$0-recplayout;
#X obj 783 124 r \$0-recplayout;
#X obj 663 125 r \$0-recplayout;
#X obj 129 315 r~ \$0-BIDILOOPOUT;
#X text 907 56 unsued controls from the orig looper;
#X msg 365 123 0;
#X obj 1179 567 loadbang;
#X obj 1290 609 inlet modulation-add;
#X obj 1422 607 inlet modulation-multiply;
#X obj 1090 615 r \$0-values;
#X obj 1291 629 list prepend add;
#X obj 1423 628 list prepend mul;
#X obj 979 620 inlet controls;
#X obj 978 654 s \$0-controls;
#N canvas 47 74 1072 591 modulate.oOo..oOo..oOo.. 0;
#X obj 101 271 +;
#X obj 101 250 t b f;
#X obj 82 82 route 0 1 2 3 4 5 6 7;
#X obj 244 216 route 0 1 2 3 4 5 6 7;
#X obj 138 271 +;
#X obj 138 250 t b f;
#X obj 175 271 +;
#X obj 175 250 t b f;
#X obj 212 271 +;
#X obj 212 250 t b f;
#X obj 248 271 +;
#X obj 248 250 t b f;
#X obj 286 271 +;
#X obj 286 250 t b f;
#X obj 323 271 +;
#X obj 323 250 t b f;
#X obj 360 271 +;
#X obj 360 250 t b f;
#X obj 61 8 inlet;
#X obj 99 490 outlet;
#X obj 155 486 outlet;
#X obj 208 489 outlet;
#X obj 264 489 outlet;
#X obj 318 486 outlet;
#X obj 370 486 outlet;
#X obj 425 485 outlet;
#X obj 492 484 outlet;
#X obj 78 409 clip 0 1;
#X obj 132 411 clip 0 1;
#X obj 186 412 clip 0 1;
#X obj 240 414 clip 0 1;
#X obj 294 416 clip 0 1;
#X obj 348 418 clip 0 1;
#X obj 402 419 clip 0 1;
#X obj 456 421 clip 0 1;
#X obj 418 177 route add mul;
#X obj 117 332 t b f;
#X obj 156 335 t b f;
#X obj 193 335 t b f;
#X obj 230 335 t b f;
#X obj 266 335 t b f;
#X obj 304 335 t b f;
#X obj 341 335 t b f;
#X obj 378 335 t b f;
#X obj 118 356 * 1;
#X obj 156 356 * 1;
#X obj 193 356 * 1;
#X obj 231 355 * 1;
#X obj 266 356 * 1;
#X obj 304 356 * 1;
#X obj 341 356 * 1;
#X obj 378 356 * 1;
#X obj 397 275 route 0 1 2 3 4 5 6 7;
#X obj 550 262 +;
#X obj 550 241 t b f;
#X obj 587 262 +;
#X obj 587 241 t b f;
#X obj 624 262 +;
#X obj 624 241 t b f;
#X obj 661 262 +;
#X obj 661 241 t b f;
#X obj 697 262 +;
#X obj 697 241 t b f;
#X obj 735 262 +;
#X obj 735 241 t b f;
#X obj 772 262 +;
#X obj 772 241 t b f;
#X obj 809 262 +;
#X obj 809 241 t b f;
#X obj 548 481 outlet;
#X obj 604 477 outlet;
#X obj 657 480 outlet;
#X obj 713 480 outlet;
#X obj 767 477 outlet;
#X obj 819 477 outlet;
#X obj 874 476 outlet;
#X obj 941 475 outlet;
#X obj 527 400 clip 0 1;
#X obj 581 402 clip 0 1;
#X obj 635 403 clip 0 1;
#X obj 689 405 clip 0 1;
#X obj 743 407 clip 0 1;
#X obj 797 409 clip 0 1;
#X obj 851 410 clip 0 1;
#X obj 905 412 clip 0 1;
#X obj 867 168 route add mul;
#X obj 566 323 t b f;
#X obj 605 326 t b f;
#X obj 642 326 t b f;
#X obj 679 326 t b f;
#X obj 715 326 t b f;
#X obj 753 326 t b f;
#X obj 790 326 t b f;
#X obj 827 326 t b f;
#X obj 567 347 * 1;
#X obj 605 347 * 1;
#X obj 642 347 * 1;
#X obj 680 346 * 1;
#X obj 715 347 * 1;
#X obj 753 347 * 1;
#X obj 790 347 * 1;
#X obj 827 347 * 1;
#X obj 693 206 route 8 9 10 11 12 13 14 5;
#X obj 846 266 route 8 9 10 11 12 13 14 15;
#X msg 79 110 \$1 20;
#X msg 92 130 \$1 20;
#X msg 120 111 \$1 20;
#X msg 133 131 \$1 20;
#X msg 161 110 \$1 20;
#X msg 174 130 \$1 20;
#X msg 202 111 \$1 20;
#X msg 215 131 \$1 20;
#X obj 92 171 line 0 1;
#X obj 109 194 line 0 1;
#X obj 149 166 line 0 1;
#X obj 166 189 line 0 1;
#X obj 207 163 line 0 1;
#X obj 224 186 line 0 1;
#X obj 264 158 line 0 1;
#X obj 281 181 line 0 1;
#X msg 501 51 \$1 20;
#X msg 514 71 \$1 20;
#X msg 542 52 \$1 20;
#X msg 555 72 \$1 20;
#X msg 583 51 \$1 20;
#X msg 596 71 \$1 20;
#X msg 624 52 \$1 20;
#X msg 637 72 \$1 20;
#X obj 512 111 line 0 1;
#X obj 571 107 line 0 1;
#X obj 588 130 line 0 1;
#X obj 629 104 line 0 1;
#X obj 646 127 line 0 1;
#X obj 686 99 line 0 1;
#X obj 703 122 line 0 1;
#X obj 504 22 route 8 9 10 11 12 13 14 15;
#X obj 530 132 line 0 1;
#X obj 845 94 list trim;
#X obj 849 72 inlet;
#X connect 0 0 44 0;
#X connect 1 0 0 0;
#X connect 1 1 0 1;
#X connect 2 0 104 0;
#X connect 2 1 105 0;
#X connect 2 2 106 0;
#X connect 2 3 107 0;
#X connect 2 4 108 0;
#X connect 2 5 109 0;
#X connect 2 6 110 0;
#X connect 2 7 111 0;
#X connect 3 0 0 0;
#X connect 3 1 4 0;
#X connect 3 2 6 0;
#X connect 3 3 8 0;
#X connect 3 4 10 0;
#X connect 3 5 12 0;
#X connect 3 6 14 0;
#X connect 3 7 16 0;
#X connect 4 0 45 0;
#X connect 5 0 4 0;
#X connect 5 1 4 1;
#X connect 6 0 46 0;
#X connect 7 0 6 0;
#X connect 7 1 6 1;
#X connect 8 0 47 0;
#X connect 9 0 8 0;
#X connect 9 1 8 1;
#X connect 10 0 48 0;
#X connect 11 0 10 0;
#X connect 11 1 10 1;
#X connect 12 0 49 0;
#X connect 13 0 12 0;
#X connect 13 1 12 1;
#X connect 14 0 50 0;
#X connect 15 0 14 0;
#X connect 15 1 14 1;
#X connect 16 0 51 0;
#X connect 17 0 16 0;
#X connect 17 1 16 1;
#X connect 18 0 2 0;
#X connect 18 0 135 0;
#X connect 27 0 19 0;
#X connect 28 0 20 0;
#X connect 29 0 21 0;
#X connect 30 0 22 0;
#X connect 31 0 23 0;
#X connect 32 0 24 0;
#X connect 33 0 25 0;
#X connect 34 0 26 0;
#X connect 35 0 3 0;
#X connect 35 1 52 0;
#X connect 36 0 44 0;
#X connect 36 1 44 1;
#X connect 37 0 45 0;
#X connect 37 1 45 1;
#X connect 38 0 46 0;
#X connect 38 1 46 1;
#X connect 39 0 47 0;
#X connect 39 1 47 1;
#X connect 40 0 48 0;
#X connect 40 1 48 1;
#X connect 41 0 49 0;
#X connect 41 1 49 1;
#X connect 42 0 50 0;
#X connect 42 1 50 1;
#X connect 43 0 51 0;
#X connect 43 1 51 1;
#X connect 44 0 27 0;
#X connect 45 0 28 0;
#X connect 46 0 29 0;
#X connect 47 0 30 0;
#X connect 48 0 31 0;
#X connect 49 0 32 0;
#X connect 50 0 33 0;
#X connect 51 0 34 0;
#X connect 52 0 36 0;
#X connect 52 1 37 0;
#X connect 52 2 38 0;
#X connect 52 3 39 0;
#X connect 52 4 40 0;
#X connect 52 5 41 0;
#X connect 52 6 42 0;
#X connect 52 7 43 0;
#X connect 53 0 94 0;
#X connect 54 0 53 0;
#X connect 54 1 53 1;
#X connect 55 0 95 0;
#X connect 56 0 55 0;
#X connect 56 1 55 1;
#X connect 57 0 96 0;
#X connect 58 0 57 0;
#X connect 58 1 57 1;
#X connect 59 0 97 0;
#X connect 60 0 59 0;
#X connect 60 1 59 1;
#X connect 61 0 98 0;
#X connect 62 0 61 0;
#X connect 62 1 61 1;
#X connect 63 0 99 0;
#X connect 64 0 63 0;
#X connect 64 1 63 1;
#X connect 65 0 100 0;
#X connect 66 0 65 0;
#X connect 66 1 65 1;
#X connect 67 0 101 0;
#X connect 68 0 67 0;
#X connect 68 1 67 1;
#X connect 77 0 69 0;
#X connect 78 0 70 0;
#X connect 79 0 71 0;
#X connect 80 0 72 0;
#X connect 81 0 73 0;
#X connect 82 0 74 0;
#X connect 83 0 75 0;
#X connect 84 0 76 0;
#X connect 85 0 102 0;
#X connect 85 1 103 0;
#X connect 86 0 94 0;
#X connect 86 1 94 1;
#X connect 87 0 95 0;
#X connect 87 1 95 1;
#X connect 88 0 96 0;
#X connect 88 1 96 1;
#X connect 89 0 97 0;
#X connect 89 1 97 1;
#X connect 90 0 98 0;
#X connect 90 1 98 1;
#X connect 91 0 99 0;
#X connect 91 1 99 1;
#X connect 92 0 100 0;
#X connect 92 1 100 1;
#X connect 93 0 101 0;
#X connect 93 1 101 1;
#X connect 94 0 77 0;
#X connect 95 0 78 0;
#X connect 96 0 79 0;
#X connect 97 0 80 0;
#X connect 98 0 81 0;
#X connect 99 0 82 0;
#X connect 100 0 83 0;
#X connect 101 0 84 0;
#X connect 102 0 53 0;
#X connect 102 1 55 0;
#X connect 102 2 57 0;
#X connect 102 3 59 0;
#X connect 102 4 61 0;
#X connect 102 5 63 0;
#X connect 102 6 65 0;
#X connect 102 7 67 0;
#X connect 103 0 86 0;
#X connect 103 1 87 0;
#X connect 103 2 88 0;
#X connect 103 3 89 0;
#X connect 103 4 90 0;
#X connect 103 5 91 0;
#X connect 103 6 92 0;
#X connect 103 7 93 0;
#X connect 104 0 112 0;
#X connect 105 0 113 0;
#X connect 106 0 114 0;
#X connect 107 0 115 0;
#X connect 108 0 116 0;
#X connect 109 0 117 0;
#X connect 110 0 118 0;
#X connect 111 0 119 0;
#X connect 112 0 1 0;
#X connect 113 0 5 0;
#X connect 114 0 7 0;
#X connect 115 0 9 0;
#X connect 116 0 11 0;
#X connect 117 0 13 0;
#X connect 118 0 15 0;
#X connect 119 0 17 0;
#X connect 120 0 128 0;
#X connect 121 0 136 0;
#X connect 122 0 129 0;
#X connect 123 0 130 0;
#X connect 124 0 131 0;
#X connect 125 0 132 0;
#X connect 126 0 133 0;
#X connect 127 0 134 0;
#X connect 128 0 54 0;
#X connect 129 0 58 0;
#X connect 130 0 60 0;
#X connect 131 0 62 0;
#X connect 132 0 64 0;
#X connect 133 0 66 0;
#X connect 134 0 68 0;
#X connect 135 0 120 0;
#X connect 135 1 121 0;
#X connect 135 2 122 0;
#X connect 135 3 123 0;
#X connect 135 4 124 0;
#X connect 135 5 125 0;
#X connect 135 6 126 0;
#X connect 135 7 127 0;
#X connect 136 0 56 0;
#X connect 137 0 35 0;
#X connect 137 0 85 0;
#X connect 138 0 137 0;
#X restore 1092 675 pd modulate.oOo..oOo..oOo..;
#X obj 1096 702 s \$0-delay;
#X obj 1164 704 s \$0-feedback;
#X obj 1248 701 s \$0-gain;
#X msg 956 682 delay feedback gain;
#X msg 1180 620 0.4 0.49 0.49;
#X obj 1179 593 t b b;
#N canvas 361 55 833 682 list-functions 0;
#N canvas 0 50 462 312 list-enumerate 0;
#X obj 107 63 t a b;
#N canvas 473 338 454 304 count 0;
#X obj 131 154 f 0;
#X obj 156 153 + 1;
#X msg 147 133 0;
#X obj 131 183 outlet;
#X obj 131 59 inlet;
#X obj 131 96 b;
#X obj 178 61 inlet;
#X obj 178 98 b;
#X connect 0 0 1 0;
#X connect 0 0 3 0;
#X connect 1 0 0 1;
#X connect 2 0 0 1;
#X connect 4 0 5 0;
#X connect 5 0 0 0;
#X connect 6 0 7 0;
#X connect 7 0 2 0;
#X restore 186 155 pd count;
#X obj 107 113 t a b;
#X obj 107 33 inlet;
#X obj 107 181 list prepend;
#X obj 107 209 outlet;
#X obj 165 209 outlet;
#N canvas 0 50 537 411 drip 0;
#X obj 64 206 list split 1;
#X obj 64 123 until;
#X obj 64 181 list append;
#X obj 194 206 bang;
#X text 146 90 First store list \, then start the loop;
#X text 163 118 "until" bangs its output until told to stop by a "bang"
to its right inlet.;
#X text 182 160 Store the remaining list.;
#X text 239 205 third outlet of "split" tells us to stop.;
#X obj 64 243 outlet;
#X obj 64 57 inlet;
#X text 237 44 From list-help.pd;
#X obj 143 243 outlet;
#X obj 64 86 t b a;
#X connect 0 0 8 0;
#X connect 0 1 2 1;
#X connect 0 2 3 0;
#X connect 0 2 11 0;
#X connect 1 0 2 0;
#X connect 2 0 0 0;
#X connect 3 0 1 1;
#X connect 9 0 12 0;
#X connect 12 0 1 0;
#X connect 12 1 2 1;
#X restore 110 88 pd drip;
#X obj 76 154 list prepend label;
#X connect 0 0 7 0;
#X connect 0 1 1 1;
#X connect 1 0 4 1;
#X connect 2 0 8 0;
#X connect 2 1 1 0;
#X connect 3 0 0 0;
#X connect 4 0 5 0;
#X connect 7 0 2 0;
#X connect 7 1 6 0;
#X connect 8 0 4 0;
#X restore 37 184 pd list-enumerate;
#X obj 37 230 s \$0-controls;
#N canvas 0 50 482 332 list-enumerate 0;
#N canvas 473 338 458 308 count 0;
#X obj 131 154 f 0;
#X obj 156 153 + 1;
#X msg 147 133 0;
#X obj 131 183 outlet;
#X obj 131 59 inlet;
#X obj 131 96 b;
#X obj 178 61 inlet;
#X obj 178 98 b;
#X connect 0 0 1 0;
#X connect 0 0 3 0;
#X connect 1 0 0 1;
#X connect 2 0 0 1;
#X connect 4 0 5 0;
#X connect 5 0 0 0;
#X connect 6 0 7 0;
#X connect 7 0 2 0;
#X restore 186 155 pd count;
#X obj 107 113 t a b;
#X obj 107 33 inlet;
#X obj 107 181 list prepend;
#X obj 112 253 outlet;
#N canvas 0 50 541 415 drip 0;
#X obj 64 206 list split 1;
#X obj 64 123 until;
#X obj 64 181 list append;
#X obj 194 206 bang;
#X text 146 90 First store list \, then start the loop;
#X text 163 118 "until" bangs its output until told to stop by a "bang"
to its right inlet.;
#X text 182 160 Store the remaining list.;
#X text 239 205 third outlet of "split" tells us to stop.;
#X obj 64 243 outlet;
#X obj 64 57 inlet;
#X text 237 44 From list-help.pd;
#X obj 143 243 outlet;
#X obj 64 86 t b a;
#X connect 0 0 8 0;
#X connect 0 1 2 1;
#X connect 0 2 3 0;
#X connect 0 2 11 0;
#X connect 1 0 2 0;
#X connect 2 0 0 0;
#X connect 3 0 1 1;
#X connect 9 0 12 0;
#X connect 12 0 1 0;
#X connect 12 1 2 1;
#X restore 110 88 pd drip;
#X obj 107 63 t a b;
#X connect 0 0 3 1;
#X connect 1 0 3 0;
#X connect 1 1 0 0;
#X connect 2 0 6 0;
#X connect 3 0 4 0;
#X connect 5 0 1 0;
#X connect 6 0 5 0;
#X connect 6 1 0 1;
#X restore 149 183 pd list-enumerate;
#N canvas 0 50 498 348 list-enumerate 0;
#N canvas 473 338 458 308 count 0;
#X obj 131 154 f 0;
#X obj 156 153 + 1;
#X msg 147 133 0;
#X obj 131 183 outlet;
#X obj 131 59 inlet;
#X obj 131 96 b;
#X obj 178 61 inlet;
#X obj 178 98 b;
#X connect 0 0 1 0;
#X connect 0 0 3 0;
#X connect 1 0 0 1;
#X connect 2 0 0 1;
#X connect 4 0 5 0;
#X connect 5 0 0 0;
#X connect 6 0 7 0;
#X connect 7 0 2 0;
#X restore 186 155 pd count;
#X obj 107 113 t a b;
#X obj 107 33 inlet;
#X obj 107 181 list prepend;
#X obj 112 253 outlet;
#N canvas 0 50 541 415 drip 0;
#X obj 64 206 list split 1;
#X obj 64 123 until;
#X obj 64 181 list append;
#X obj 194 206 bang;
#X text 146 90 First store list \, then start the loop;
#X text 163 118 "until" bangs its output until told to stop by a "bang"
to its right inlet.;
#X text 182 160 Store the remaining list.;
#X text 239 205 third outlet of "split" tells us to stop.;
#X obj 64 243 outlet;
#X obj 64 57 inlet;
#X text 237 44 From list-help.pd;
#X obj 143 243 outlet;
#X obj 64 86 t b a;
#X connect 0 0 8 0;
#X connect 0 1 2 1;
#X connect 0 2 3 0;
#X connect 0 2 11 0;
#X connect 1 0 2 0;
#X connect 2 0 0 0;
#X connect 3 0 1 1;
#X connect 9 0 12 0;
#X connect 12 0 1 0;
#X connect 12 1 2 1;
#X restore 110 88 pd drip;
#X obj 194 215 t a;
#X obj 106 209 list prepend;
#X obj 107 63 t a b b;
#X connect 0 0 3 1;
#X connect 1 0 3 0;
#X connect 1 1 0 0;
#X connect 2 0 8 0;
#X connect 3 0 7 0;
#X connect 5 0 1 0;
#X connect 6 0 7 1;
#X connect 7 0 6 0;
#X connect 7 0 4 0;
#X connect 8 0 5 0;
#X connect 8 1 0 1;
#X connect 8 2 7 1;
#X restore 411 149 pd list-enumerate;
#X obj 104 251 r \$0-controls;
#X obj 272 98 r \$0-values;
#N canvas 283 65 551 703 replacelist 0;
#X obj 164 224 list;
#X obj 327 98 inlet;
#X obj 250 98 inlet;
#X text 331 72 orig;
#X text 256 74 pos;
#X text 77 70 list to insert;
#X obj 85 94 inlet;
#X obj 207 281 list split;
#X obj 85 526 list;
#X obj 85 598 outlet;
#X obj 85 317 list prepend;
#X obj 85 120 t a b a b;
#X obj 85 430 list prepend 0;
#X obj 250 125 t f f;
#X obj 207 524 list prepend;
#X obj 85 469 route 0 1;
#X obj 316 347 f;
#X obj 286 282 t a b;
#X obj 316 377 > 0;
#X obj 122 358 r \$0-init;
#X obj 122 377 0;
#X obj 300 524 r \$0-init;
#X obj 176 317 r \$0-init;
#X obj 118 527 r \$0-init;
#X obj 159 131 s \$0-init;
#X text 47 25 list-replace: Replace the list starting at position POS
with a new list \, overwriting the old elements.;
#N canvas 0 50 458 308 length 0;
#X obj 171 164 + 1;
#X obj 92 127 b;
#X obj 126 204 f;
#X obj 158 138 1;
#X obj 142 166 f 1;
#X obj 216 168 0;
#X obj 136 59 t a b b;
#N canvas 0 50 537 411 drip 0;
#X obj 64 206 list split 1;
#X obj 64 123 until;
#X obj 64 181 list append;
#X obj 194 206 bang;
#X text 146 90 First store list \, then start the loop;
#X text 163 118 "until" bangs its output until told to stop by a "bang"
to its right inlet.;
#X text 182 160 Store the remaining list.;
#X text 239 205 third outlet of "split" tells us to stop.;
#X obj 64 243 outlet;
#X obj 64 57 inlet;
#X text 237 44 From list-help.pd;
#X obj 143 243 outlet;
#X obj 64 86 t b a;
#X connect 0 0 8 0;
#X connect 0 1 2 1;
#X connect 0 2 3 0;
#X connect 0 2 11 0;
#X connect 1 0 2 0;
#X connect 2 0 0 0;
#X connect 3 0 1 1;
#X connect 9 0 12 0;
#X connect 12 0 1 0;
#X connect 12 1 2 1;
#X restore 92 104 pd drip;
#X obj 137 36 inlet;
#X obj 125 238 outlet;
#X connect 0 0 4 1;
#X connect 1 0 4 0;
#X connect 2 0 9 0;
#X connect 3 0 4 1;
#X connect 4 0 0 0;
#X connect 4 0 2 1;
#X connect 5 0 2 1;
#X connect 6 0 7 0;
#X connect 6 1 3 0;
#X connect 6 2 5 0;
#X connect 7 0 1 0;
#X connect 7 1 2 0;
#X connect 8 0 6 0;
#X restore 268 216 pd length;
#X obj 162 254 list split;
#X connect 0 0 27 0;
#X connect 1 0 0 1;
#X connect 2 0 13 0;
#X connect 6 0 11 0;
#X connect 7 1 8 1;
#X connect 7 1 14 1;
#X connect 8 0 9 0;
#X connect 10 0 12 0;
#X connect 11 0 10 0;
#X connect 11 1 0 0;
#X connect 11 2 26 0;
#X connect 11 3 24 0;
#X connect 12 0 15 0;
#X connect 13 0 27 1;
#X connect 13 1 16 1;
#X connect 14 0 9 0;
#X connect 15 0 8 0;
#X connect 15 1 14 0;
#X connect 16 0 18 0;
#X connect 17 0 14 1;
#X connect 17 0 8 1;
#X connect 17 1 16 0;
#X connect 18 0 12 1;
#X connect 19 0 20 0;
#X connect 20 0 12 1;
#X connect 21 0 14 1;
#X connect 22 0 10 1;
#X connect 23 0 8 1;
#X connect 26 0 7 1;
#X connect 27 0 10 1;
#X connect 27 1 7 0;
#X connect 27 2 17 0;
#X restore 289 199 pd replacelist;
#X obj 423 265 t a;
#X obj 272 130 swap;
#X obj 50 109 inlet;
#N canvas 0 50 545 419 drip2 0;
#X obj 64 123 until;
#X obj 64 181 list append;
#X obj 194 206 bang;
#X text 146 90 First store list \, then start the loop;
#X text 163 118 "until" bangs its output until told to stop by a "bang"
to its right inlet.;
#X text 182 160 Store the remaining list.;
#X text 239 205 third outlet of "split" tells us to stop.;
#X obj 64 243 outlet;
#X obj 64 57 inlet;
#X text 237 44 From list-help.pd;
#X obj 143 243 outlet;
#X obj 64 86 t b a;
#X obj 64 206 list split 2;
#X connect 0 0 1 0;
#X connect 1 0 12 0;
#X connect 2 0 0 1;
#X connect 8 0 11 0;
#X connect 11 0 0 0;
#X connect 11 1 1 1;
#X connect 12 0 7 0;
#X connect 12 1 1 1;
#X connect 12 2 2 0;
#X connect 12 2 10 0;
#X restore 190 285 pd drip2;
#X obj 253 24 inlet;
#X obj 144 355 route 0 1 2 3 4 5 6 7 8 9 10 11 12 13 14 15;
#X obj 144 381 s \$0-ra;
#X obj 156 401 s \$0-rb;
#X obj 167 422 s \$0-rc;
#X obj 179 442 s \$0-rd;
#X obj 194 381 s \$0-re;
#X obj 206 401 s \$0-rf;
#X obj 217 422 s \$0-rg;
#X obj 229 442 s \$0-rh;
#X obj 250 383 s \$0-ri;
#X obj 262 403 s \$0-rj;
#X obj 273 424 s \$0-rk;
#X obj 285 444 s \$0-rl;
#X obj 299 383 s \$0-rm;
#X obj 312 403 s \$0-rn;
#X obj 323 424 s \$0-ro;
#X obj 335 444 s \$0-rp;
#X obj 35 505 r \$0-a;
#X msg 35 530 0 \$1;
#X obj 78 505 r \$0-b;
#X msg 77 529 1 \$1;
#X obj 121 505 r \$0-c;
#X obj 164 505 r \$0-d;
#X msg 121 530 2 \$1;
#X msg 163 529 3 \$1;
#X obj 208 503 r \$0-e;
#X obj 251 503 r \$0-f;
#X obj 294 503 r \$0-g;
#X obj 337 503 r \$0-h;
#X msg 208 528 4 \$1;
#X msg 250 526 5 \$1;
#X msg 294 527 6 \$1;
#X msg 336 527 7 \$1;
#X obj 383 503 r \$0-i;
#X obj 426 502 r \$0-j;
#X obj 468 503 r \$0-k;
#X obj 512 503 r \$0-l;
#X obj 556 501 r \$0-m;
#X obj 599 501 r \$0-o;
#X obj 642 501 r \$0-p;
#X obj 685 501 r \$0-q;
#X msg 383 528 8 \$1;
#X msg 425 527 9 \$1;
#X msg 469 528 10 \$1;
#X msg 511 527 11 \$1;
#X msg 556 526 12 \$1;
#X msg 598 524 13 \$1;
#X msg 641 525 14 \$1;
#X msg 684 525 15 \$1;
#X obj 683 559 s \$0-values;
#X obj 413 202 t a a;
#X obj 412 182 list;
#X obj 257 47 t a b a;
#X obj 294 150 * 2;
#X obj 295 170 + 1;
#X obj 191 253 t a a;
#N canvas 3 54 450 300 808_state 0;
#X obj 153 54 inlet;
#X obj 154 463 outlet;
#X obj 153 395 list;
#X obj 336 190 r SSSAD;
#X obj 295 130 inlet;
#X obj 56 308 r SSSAD_ADMIN;
#X obj 56 356 b;
#X obj 56 334 route set;
#X obj 153 81 b;
#X obj 222 231 s SSSAD_ADMIN;
#X obj 222 201 list;
#X obj 216 44 r SSSAD_ADMIN;
#X obj 219 91 t b;
#X obj 218 68 route save;
#X obj 295 152 list prepend persist \$1;
#X obj 336 216 route \$1;
#X obj 153 425 route bang;
#X obj 336 240 t a a;
#X connect 0 0 8 0;
#X connect 2 0 16 0;
#X connect 3 0 15 0;
#X connect 4 0 14 0;
#X connect 5 0 7 0;
#X connect 6 0 2 0;
#X connect 7 0 6 0;
#X connect 8 0 2 0;
#X connect 10 0 9 0;
#X connect 11 0 13 0;
#X connect 12 0 10 0;
#X connect 13 0 12 0;
#X connect 14 0 10 1;
#X connect 15 0 17 0;
#X connect 16 1 1 0;
#X connect 17 0 10 1;
#X connect 17 1 2 1;
#X restore 192 227 pd 808_state \$1/controls;
#X connect 0 0 1 0;
#X connect 2 0 1 0;
#X connect 3 0 63 1;
#X connect 4 0 12 0;
#X connect 5 0 8 0;
#X connect 6 0 7 0;
#X connect 7 0 6 2;
#X connect 8 0 6 0;
#X connect 8 1 65 0;
#X connect 9 0 0 0;
#X connect 10 0 12 0;
#X connect 11 0 64 0;
#X connect 12 0 13 0;
#X connect 12 1 14 0;
#X connect 12 2 15 0;
#X connect 12 3 16 0;
#X connect 12 4 17 0;
#X connect 12 5 18 0;
#X connect 12 6 19 0;
#X connect 12 7 20 0;
#X connect 12 8 21 0;
#X connect 12 9 22 0;
#X connect 12 10 23 0;
#X connect 12 11 24 0;
#X connect 12 12 25 0;
#X connect 12 13 26 0;
#X connect 12 14 27 0;
#X connect 12 15 28 0;
#X connect 29 0 30 0;
#X connect 30 0 61 0;
#X connect 31 0 32 0;
#X connect 32 0 61 0;
#X connect 33 0 35 0;
#X connect 34 0 36 0;
#X connect 35 0 61 0;
#X connect 36 0 61 0;
#X connect 37 0 41 0;
#X connect 38 0 42 0;
#X connect 39 0 43 0;
#X connect 40 0 44 0;
#X connect 41 0 61 0;
#X connect 42 0 61 0;
#X connect 43 0 61 0;
#X connect 44 0 61 0;
#X connect 45 0 53 0;
#X connect 46 0 54 0;
#X connect 47 0 55 0;
#X connect 48 0 56 0;
#X connect 49 0 57 0;
#X connect 50 0 58 0;
#X connect 51 0 59 0;
#X connect 52 0 60 0;
#X connect 53 0 61 0;
#X connect 54 0 61 0;
#X connect 55 0 61 0;
#X connect 56 0 61 0;
#X connect 57 0 61 0;
#X connect 58 0 61 0;
#X connect 59 0 61 0;
#X connect 60 0 61 0;
#X connect 62 0 6 2;
#X connect 63 0 62 0;
#X connect 64 0 2 0;
#X connect 64 1 63 0;
#X connect 64 2 3 0;
#X connect 65 0 66 0;
#X connect 66 0 6 1;
#X connect 67 0 10 0;
#X connect 67 1 6 2;
#X connect 68 0 67 0;
#X restore 958 707 pd list-functions;
#X obj 1175 645 s \$0-loadbang;
#X obj 500 618 *~;
#X obj 516 539 tgl 15 0 empty empty empty 17 7 0 10 -262144 -1 -1 0
1;
#X obj 444 530 tgl 15 0 empty empty empty 17 7 0 10 -262144 -1 -1 1
1;
#X obj 442 509 == 0;
#X obj 516 509 == 1;
#X obj 442 581 line~;
#X obj 442 550 pack 1 50;
#X obj 516 586 line~;
#X obj 516 561 pack 1 50;
#X obj 499 648 s~ \$0-bypassedSignal;
#X obj 444 475 tgl 15 0 empty empty by 17 7 0 10 -262144 -1 -1 0 1
;
#X obj 442 422 loadbang;
#X msg 442 448 0;
#X obj 17 595 *~;
#X obj 502 468 r~ \$0-BWMSKSignal;
#X obj 25 43 *~ 1;
#X obj 663 208 sel stop start;
#X msg 699 234 0;
#X connect 1 0 182 0;
#X connect 4 0 5 1;
#X connect 5 0 29 0;
#X connect 6 0 4 0;
#X connect 7 0 8 0;
#X connect 9 0 10 1;
#X connect 10 0 29 0;
#X connect 11 0 9 0;
#X connect 12 0 35 0;
#X connect 17 0 31 0;
#X connect 18 0 19 0;
#X connect 19 0 29 1;
#X connect 20 0 19 1;
#X connect 21 0 19 2;
#X connect 22 0 17 0;
#X connect 23 0 17 2;
#X connect 24 0 17 1;
#X connect 26 0 25 0;
#X connect 27 0 28 0;
#X connect 28 0 26 1;
#X connect 29 0 180 0;
#X connect 30 0 5 0;
#X connect 30 0 26 0;
#X connect 31 0 32 0;
#X connect 32 0 30 0;
#X connect 33 0 24 0;
#X connect 33 0 23 0;
#X connect 34 0 20 0;
#X connect 34 0 21 0;
#X connect 35 0 25 0;
#X connect 35 0 10 0;
#X connect 36 0 41 0;
#X connect 37 0 36 0;
#X connect 38 0 36 2;
#X connect 39 0 36 1;
#X connect 40 0 129 0;
#X connect 41 0 42 0;
#X connect 42 0 40 0;
#X connect 43 0 39 0;
#X connect 43 0 38 0;
#X connect 44 0 45 1;
#X connect 45 0 29 0;
#X connect 46 0 44 0;
#X connect 49 0 177 0;
#X connect 51 0 2 0;
#X connect 51 0 3 0;
#X connect 51 0 47 0;
#X connect 51 0 15 0;
#X connect 52 0 51 0;
#X connect 52 0 149 0;
#X connect 53 0 54 0;
#X connect 55 0 58 0;
#X connect 56 0 83 0;
#X connect 56 1 89 0;
#X connect 57 0 56 0;
#X connect 58 0 64 0;
#X connect 58 0 86 0;
#X connect 62 0 74 2;
#X connect 62 1 74 4;
#X connect 63 0 58 1;
#X connect 64 0 65 0;
#X connect 65 0 76 0;
#X connect 66 0 76 0;
#X connect 69 0 70 0;
#X connect 70 0 74 0;
#X connect 70 1 74 1;
#X connect 71 0 74 0;
#X connect 72 0 62 0;
#X connect 73 0 91 0;
#X connect 74 0 121 0;
#X connect 74 0 123 0;
#X connect 75 0 63 0;
#X connect 77 0 74 3;
#X connect 78 0 74 3;
#X connect 81 0 130 0;
#X connect 82 0 81 1;
#X connect 83 0 74 0;
#X connect 83 1 78 0;
#X connect 83 2 63 0;
#X connect 86 0 85 0;
#X connect 87 0 86 0;
#X connect 88 0 87 0;
#X connect 89 0 77 0;
#X connect 89 1 55 0;
#X connect 89 3 63 0;
#X connect 90 0 91 0;
#X connect 91 0 100 0;
#X connect 92 0 73 0;
#X connect 92 1 94 0;
#X connect 92 2 57 0;
#X connect 93 0 90 0;
#X connect 94 0 95 0;
#X connect 95 0 97 0;
#X connect 95 1 96 0;
#X connect 96 0 97 1;
#X connect 97 0 93 0;
#X connect 98 0 132 0;
#X connect 99 0 132 0;
#X connect 100 0 101 0;
#X connect 102 0 109 0;
#X connect 103 0 104 0;
#X connect 104 0 81 0;
#X connect 105 0 106 0;
#X connect 106 0 104 1;
#X connect 107 0 108 0;
#X connect 108 0 103 0;
#X connect 109 0 110 0;
#X connect 110 0 112 0;
#X connect 111 0 132 0;
#X connect 113 0 114 0;
#X connect 113 0 123 0;
#X connect 115 0 120 0;
#X connect 115 1 120 0;
#X connect 116 0 99 0;
#X connect 117 0 98 0;
#X connect 118 0 111 0;
#X connect 119 0 138 0;
#X connect 120 0 144 0;
#X connect 121 0 58 0;
#X connect 123 0 107 0;
#X connect 124 0 127 0;
#X connect 125 0 128 0;
#X connect 126 0 120 1;
#X connect 127 0 183 0;
#X connect 128 0 126 0;
#X connect 128 1 99 0;
#X connect 129 0 73 1;
#X connect 131 0 53 0;
#X connect 132 0 133 0;
#X connect 134 0 135 0;
#X connect 135 0 108 1;
#X connect 136 0 137 0;
#X connect 137 0 121 1;
#X connect 138 0 115 0;
#X connect 138 1 116 0;
#X connect 138 2 117 0;
#X connect 138 3 118 0;
#X connect 138 4 131 0;
#X connect 138 5 14 0;
#X connect 138 6 16 0;
#X connect 138 7 15 0;
#X connect 139 0 113 0;
#X connect 140 0 108 1;
#X connect 141 0 11 0;
#X connect 142 0 6 0;
#X connect 143 0 46 0;
#X connect 145 0 92 0;
#X connect 146 0 124 0;
#X connect 147 0 45 0;
#X connect 147 0 26 0;
#X connect 149 0 14 0;
#X connect 149 0 16 0;
#X connect 150 0 164 0;
#X connect 151 0 154 0;
#X connect 152 0 155 0;
#X connect 153 0 158 0;
#X connect 154 0 158 1;
#X connect 155 0 158 1;
#X connect 156 0 157 0;
#X connect 158 0 159 0;
#X connect 158 1 160 0;
#X connect 158 2 161 0;
#X connect 162 0 165 0;
#X connect 164 0 163 0;
#X connect 164 1 166 0;
#X connect 167 0 176 0;
#X connect 168 0 175 0;
#X connect 169 0 173 0;
#X connect 170 0 169 0;
#X connect 171 0 168 0;
#X connect 172 0 180 1;
#X connect 173 0 172 0;
#X connect 174 0 167 1;
#X connect 175 0 174 0;
#X connect 177 0 170 0;
#X connect 177 0 171 0;
#X connect 178 0 179 0;
#X connect 179 0 177 0;
#X connect 180 0 8 0;
#X connect 181 0 167 0;
#X connect 182 0 13 0;
#X connect 183 0 125 0;
#X connect 183 1 184 0;
#X connect 184 0 120 1;
#X coords 0 -1 1 1 260 186 1 400 200;
