#N canvas 0 50 1366 696 10;
#X obj 257 232 outlet;
#X obj 130 174 sig~;
#X obj 125 204 lop~ 10;
#X obj 129 232 outlet~;
#X obj 128 152 / 127;
#X obj 69 44 ctlin \$1 1;
#X text 315 233 cc out;
#X text 185 232 ~ cv out;
#X text 202 102 cc on midi channel 1;
#X text 307 68 creation argument is cc number;
#X floatatom 155 104 5 0 127 0 - - -, f 5;
#X obj 297 296 s k\$1;
#X obj 96 275 s~ k\$1;
#X connect 1 0 2 0;
#X connect 2 0 3 0;
#X connect 2 0 12 0;
#X connect 4 0 1 0;
#X connect 5 0 10 0;
#X connect 10 0 4 0;
#X connect 10 0 0 0;
#X connect 10 0 11 0;
#X coords 0 -1 1 1 95 22 1 100 100;
