#N canvas 16 8 520 696 10;
#X obj 141 126 cnv 5 5 5 empty empty ASR 0 0 0 12 -262144 -66577 0
;
#X obj 104 142 cnv 5 5 5 empty empty OUT 0 0 0 8 -262144 -66577 0;
#X obj 103 108 cnv 5 5 5 empty empty SAMPLE 0 0 0 8 -262144 -66577
0;
#X obj 175 108 cnv 5 5 5 empty empty TRIG 0 0 0 8 -262144 -226533 0
;
#X obj 177 116 bng 15 50 50 0 empty empty empty 17 7 0 10 -262144 -226533
-1;
#X obj 334 189 threshold~ 0.9 0 0.9 0;
#X obj 105 184 inlet~;
#X obj 335 163 inlet~;
#X text 278 141 gate;
#X text 87 155 pitch;
#X obj 72 452 f;
#X obj 120 452 f;
#X floatatom 72 476 5 0 0 0 - - -, f 5;
#X floatatom 120 474 5 0 0 0 - - -, f 5;
#X obj 178 452 f;
#X floatatom 178 474 5 0 0 0 - - -, f 5;
#X obj 240 452 f;
#X floatatom 240 474 5 0 0 0 - - -, f 5;
#X msg 282 373 0;
#X obj 282 351 loadbang;
#X obj 335 219 t b;
#X text 35 328 notes;
#X text 423 218 bangs;
#X obj 120 381 trigger f b b b;
#X obj 119 611 outlet~;
#X obj 192 612 outlet~;
#X obj 42 612 outlet~;
#X obj 123 579 sig~;
#X obj 188 577 sig~;
#X obj 55 579 sig~;
#X obj 264 611 outlet~;
#X obj 260 576 sig~;
#X obj 99 279 snapshot~;
#X obj 99 300 * 127;
#X obj 99 344 clip 0 127;
#X obj 99 322 abs;
#X obj 121 528 / 127;
#X obj 72 529 / 127;
#X obj 229 530 / 127;
#X obj 180 531 / 127;
#X connect 4 0 20 0;
#X connect 5 0 4 0;
#X connect 6 0 32 0;
#X connect 7 0 5 0;
#X connect 10 0 11 1;
#X connect 10 0 12 0;
#X connect 11 0 13 0;
#X connect 11 0 14 1;
#X connect 12 0 37 0;
#X connect 13 0 36 0;
#X connect 14 0 15 0;
#X connect 14 0 16 1;
#X connect 15 0 39 0;
#X connect 16 0 17 0;
#X connect 17 0 38 0;
#X connect 18 0 10 0;
#X connect 18 0 11 0;
#X connect 18 0 14 0;
#X connect 18 0 16 0;
#X connect 19 0 18 0;
#X connect 20 0 32 0;
#X connect 23 0 10 0;
#X connect 23 1 11 0;
#X connect 23 2 14 0;
#X connect 23 3 16 0;
#X connect 27 0 24 0;
#X connect 28 0 25 0;
#X connect 29 0 26 0;
#X connect 31 0 30 0;
#X connect 32 0 33 0;
#X connect 33 0 35 0;
#X connect 34 0 23 0;
#X connect 35 0 34 0;
#X connect 36 0 27 0;
#X connect 37 0 29 0;
#X connect 38 0 31 0;
#X connect 39 0 28 0;
#X coords 0 -1 1 1 100 50 2 100 100;
