#N canvas -8 -8 1366 696 10;
#X obj 335 31 inlet~;
#X obj 335 203 timer;
#X obj 289 275 tgl 15 0 empty empty empty 17 7 0 10 -262144 -1 -1 1
1;
#X obj 289 300 metro;
#X obj 286 229 t f f f f;
#X obj 528 567 vline~;
#X obj 528 589 outlet~;
#X obj 314 336 t b b;
#X obj 105 169 bng 15 50 50 0 empty empty empty 17 7 0 10 -262144 -226533
-1;
#X obj 105 133 hsl 120 15 0 127 0 1 \$0-clock-multiply-multiply-s \$0-clock-multiply-multiply-r
DIV/MUL 133 7 0 9 -262144 -1 -1 3500 1;
#X obj 565 198 / 127;
#X obj 557 300 i;
#X obj 335 254 /;
#X obj 389 156 delay 1000;
#X msg 389 184 0;
#X msg 362 133 1;
#X obj 335 75 t b b b;
#X obj 362 97 t b b;
#X obj 557 223 +;
#X obj 557 274 + 1;
#X obj 132 112 cnv 5 5 5 empty empty CLOCK 0 0 0 12 -262144 -66577
0;
#X obj 262 109 cnv 5 5 5 empty empty CV 0 0 0 8 -262144 -1 0;
#X obj 105 109 cnv 5 5 5 empty empty IN 0 0 0 8 -262144 -226533 0;
#X obj 171 112 cnv 5 5 5 empty empty Div/Mult 0 0 0 12 -262144 -66577
0;
#N canvas 21 22 593 735 state-saving-multiple-instances 0;
#X obj 215 28 loadbang;
#X obj 261 480 textfile;
#X msg 555 463 rewind;
#X msg 512 463 bang;
#X obj 119 690 textfile;
#X obj 512 424 t b b;
#X obj 120 356 f;
#X obj 133 579 f;
#X obj 66 422 t b b b;
#X msg 196 579 clear;
#X obj 281 216 outlet;
#X text 277 236 INSTANCE NUMBER;
#X obj 242 92 f \$1;
#X obj 242 128 t f f f;
#X obj 215 61 t b b;
#X obj 66 331 bng 15 250 50 0 empty empty empty 17 7 0 10 -262144 -1
-1;
#X obj 66 235 r SAVE-S;
#X msg 132 650 write statesave/\$1-clock-multiply-ss.txt;
#X msg 261 455 read statesave/\$1-clock-multiply-ss.txt;
#X obj 135 308 r \$0-clock-multiply-multiply-s;
#X obj 261 604 s \$0-clock-multiply-multiply-r;
#X msg 120 438 set \$1;
#X connect 0 0 14 0;
#X connect 1 0 20 0;
#X connect 2 0 1 0;
#X connect 3 0 1 0;
#X connect 5 0 3 0;
#X connect 5 1 2 0;
#X connect 6 0 21 0;
#X connect 7 0 17 0;
#X connect 8 0 7 0;
#X connect 8 1 6 0;
#X connect 8 2 9 0;
#X connect 9 0 4 0;
#X connect 12 0 13 0;
#X connect 13 0 7 1;
#X connect 13 1 18 0;
#X connect 13 2 10 0;
#X connect 14 0 5 0;
#X connect 14 1 12 0;
#X connect 15 0 8 0;
#X connect 16 0 15 0;
#X connect 17 0 4 0;
#X connect 18 0 1 0;
#X connect 19 0 6 1;
#X connect 21 0 4 0;
#X restore 16 312 pd state-saving-multiple-instances;
#X obj 16 387 s \$0-instance-num;
#X obj 16 339 makefilename %d;
#X obj 233 112 cnv 5 5 5 empty \$0-instance-num 1 0 0 0 12 -262144
-66577 0;
#X msg 16 364 label \$1;
#X obj 103 193 cnv 5 5 5 empty empty OUT 0 0 0 8 -262144 -66577 0;
#N canvas 81 22 1117 745 state-saving-via-preset-manager-module 0;
#X obj 477 349 textfile;
#X msg 755 332 rewind;
#X msg 712 332 bang;
#X obj 243 690 textfile;
#X obj 712 293 t b b;
#X obj 244 356 f;
#X obj 257 579 f;
#X obj 190 422 t b b b;
#X msg 320 579 clear;
#X obj 244 264 delay 5;
#X obj 190 484 delay 10;
#X msg 190 314 bang;
#X obj 190 147 r STORE-S!;
#X obj 477 250 f;
#X obj 450 207 t b b;
#X obj 465 171 t b f;
#X obj 522 268 f \$1;
#X obj 477 295 pack f f;
#X obj 522 218 loadbang;
#X obj 257 609 pack f f;
#X obj 302 467 loadbang;
#X obj 302 489 f \$1;
#X obj 476 566 pack f f;
#X obj 476 590 line;
#X obj 521 541 r preset-manager-morph-s;
#X obj 465 148 r preset-manager-scan;
#X obj 279 148 r preset-manager-store-slot;
#X msg 928 577 stop;
#X obj 928 542 r STOP-MORPH!;
#X msg 256 650 write statesave/\$1-\$2-clock-multiply-ss.txt;
#X msg 477 324 read statesave/\$1-\$2-clock-multiply-ss.txt;
#X msg 244 438 set \$1;
#X obj 259 308 r \$0-clock-multiply-multiply-s;
#X obj 476 615 s \$0-clock-multiply-multiply-r;
#X connect 0 0 22 0;
#X connect 1 0 0 0;
#X connect 2 0 0 0;
#X connect 4 0 2 0;
#X connect 4 1 1 0;
#X connect 5 0 31 0;
#X connect 6 0 19 0;
#X connect 7 0 10 0;
#X connect 7 1 9 0;
#X connect 7 2 8 0;
#X connect 8 0 3 0;
#X connect 9 0 5 0;
#X connect 10 0 6 0;
#X connect 11 0 7 0;
#X connect 12 0 11 0;
#X connect 13 0 17 0;
#X connect 14 0 4 0;
#X connect 14 1 13 0;
#X connect 15 0 14 0;
#X connect 15 1 13 1;
#X connect 16 0 17 1;
#X connect 17 0 30 0;
#X connect 18 0 16 0;
#X connect 19 0 29 0;
#X connect 20 0 21 0;
#X connect 21 0 19 1;
#X connect 22 0 23 0;
#X connect 23 0 33 0;
#X connect 24 0 22 1;
#X connect 25 0 15 0;
#X connect 26 0 6 1;
#X connect 27 0 23 0;
#X connect 28 0 27 0;
#X connect 29 0 3 0;
#X connect 30 0 0 0;
#X connect 31 0 3 0;
#X connect 32 0 5 1;
#X restore 17 287 pd state-saving-via-preset-manager-module;
#N canvas 297 27 748 331 parameter-nudging-system 0;
#N canvas 0 22 484 497 param-nudge 0;
#X obj 124 234 random;
#X obj 232 335 f;
#X obj 232 368 +;
#X obj 257 166 random 2;
#X obj 124 275 t f f;
#X obj 124 351 t b f;
#X obj 124 297 *;
#X obj 257 188 sel 0 1;
#X msg 257 280 -1;
#X msg 335 280 1;
#X obj 124 149 t b b b;
#X obj 124 123 r NUDGE!;
#X obj 157 193 r NUDGE-RANGE;
#X obj 247 308 inlet;
#X obj 232 397 outlet;
#X floatatom 316 396 5 0 0 0 - - -;
#X connect 0 0 4 0;
#X connect 1 0 2 0;
#X connect 2 0 14 0;
#X connect 2 0 15 0;
#X connect 3 0 7 0;
#X connect 4 0 6 0;
#X connect 5 0 2 0;
#X connect 5 1 2 1;
#X connect 6 0 5 0;
#X connect 7 0 8 0;
#X connect 7 1 9 0;
#X connect 8 0 6 1;
#X connect 9 0 6 1;
#X connect 10 0 0 0;
#X connect 10 1 1 0;
#X connect 10 2 3 0;
#X connect 11 0 10 0;
#X connect 12 0 0 1;
#X connect 13 0 1 1;
#X restore 23 45 pd param-nudge;
#X obj 23 67 clip 0 127;
#X obj 23 22 r \$0-clock-multiply-multiply-s;
#X obj 23 95 s \$0-clock-multiply-multiply-r;
#X connect 0 0 1 0;
#X connect 1 0 3 0;
#X connect 2 0 0 0;
#X restore 19 264 pd parameter-nudging-system;
#X obj 335 53 threshold~ 0.9 0 0.9 0;
#X obj 558 138 moses 64;
#X text 733 126 div part;
#X obj 558 252 * 8;
#X obj 719 234 f;
#X obj 749 234 + 1;
#X obj 719 292 sel 0;
#X obj 719 314 t b b;
#X obj 737 161 loadbang;
#X msg 737 183 0;
#X obj 737 205 t f;
#X obj 722 266 %;
#X obj 820 239 i;
#X text 635 142 mult;
#X obj 541 169 map 64 127 0 127;
#X msg 537 518 1 0 \, 0 1 1;
#X obj 558 321 t f;
#X obj 569 405 bng 15 250 50 0 empty empty empty 17 7 0 10 -262144
-1 -1;
#X obj 491 408 bng 15 250 50 0 empty empty empty 17 7 0 10 -262144
-1 -1;
#X msg 566 434 2;
#X msg 493 436 1;
#X obj 540 475 switch 2 1;
#X text 398 17 clock in;
#X text 819 11 CV;
#X obj 764 39 inlet;
#X obj 805 204 map 0 63 16 2;
#X connect 0 0 32 0;
#X connect 1 0 4 0;
#X connect 2 0 3 0;
#X connect 3 0 7 0;
#X connect 4 0 12 0;
#X connect 5 0 6 0;
#X connect 7 0 53 2;
#X connect 9 0 33 0;
#X connect 10 0 18 0;
#X connect 11 0 48 0;
#X connect 12 0 3 1;
#X connect 13 0 14 0;
#X connect 14 0 2 0;
#X connect 15 0 2 0;
#X connect 16 0 1 0;
#X connect 16 0 36 0;
#X connect 16 1 1 1;
#X connect 16 2 17 0;
#X connect 17 0 15 0;
#X connect 17 1 13 0;
#X connect 18 0 35 0;
#X connect 19 0 11 0;
#X connect 24 0 26 0;
#X connect 26 0 28 0;
#X connect 28 0 25 0;
#X connect 32 0 16 0;
#X connect 33 0 57 0;
#X connect 33 1 46 0;
#X connect 35 0 19 0;
#X connect 36 0 37 0;
#X connect 36 0 43 0;
#X connect 37 0 36 1;
#X connect 38 0 39 0;
#X connect 39 0 53 1;
#X connect 40 0 41 0;
#X connect 41 0 42 0;
#X connect 42 0 36 1;
#X connect 43 0 38 0;
#X connect 44 0 43 1;
#X connect 46 0 10 0;
#X connect 46 0 49 0;
#X connect 47 0 5 0;
#X connect 47 0 8 0;
#X connect 48 0 12 1;
#X connect 49 0 51 0;
#X connect 50 0 52 0;
#X connect 51 0 53 0;
#X connect 52 0 53 0;
#X connect 53 0 47 0;
#X connect 56 0 9 0;
#X connect 57 0 44 0;
#X connect 57 0 50 0;
#X coords 0 -1 1 1 175 100 2 100 100;
