#N canvas 625 64 1058 921 10;
#X declare -path rjdj;
#X obj 233 257 dac~;
#N canvas 457 80 1138 964 9drums 0;
#N canvas 1 82 844 677 monomode 0;
#N canvas 415 379 628 478 reaonbp 0;
#X obj 23 233 *;
#X obj -85 483 *~;
#X obj -142 87 log;
#X obj -147 142 *;
#X obj -150 116 t f f;
#X obj 85 157 pow -1;
#X obj 86 135 * -1;
#X obj 63 104 t f f;
#X obj 47 190 +;
#X obj 20 149 clip 0 16;
#X obj -211 198 *;
#X obj -165 257 *;
#X obj -139 229 float;
#X obj -214 173 t f f b;
#X obj -372 170 inlet~;
#X obj 92 54 inlet;
#X obj -67 518 outlet~;
#X obj -249 62 inlet;
#X text -246 45 level (0..1);
#X obj -107 37 inlet;
#X text 90 39 ratio;
#X text -121 19 res/decay (1..10000);
#X obj -320 98 inlet;
#X text -322 79 freq;
#X obj -63 433 vcf~ 1;
#X connect 0 0 24 1;
#X connect 1 0 16 0;
#X connect 2 0 4 0;
#X connect 3 0 12 0;
#X connect 4 0 3 0;
#X connect 4 1 3 1;
#X connect 5 0 8 1;
#X connect 6 0 5 0;
#X connect 7 0 9 0;
#X connect 7 1 6 0;
#X connect 8 0 0 1;
#X connect 9 0 8 0;
#X connect 10 0 11 0;
#X connect 11 0 1 1;
#X connect 12 0 11 1;
#X connect 13 0 10 0;
#X connect 13 1 10 1;
#X connect 13 2 12 0;
#X connect 14 0 24 0;
#X connect 15 0 7 0;
#X connect 17 0 13 0;
#X connect 19 0 2 0;
#X connect 19 0 24 2;
#X connect 22 0 0 0;
#X connect 24 0 1 0;
#X restore 151 393 pd reaonbp;
#X obj 204 589 outlet~;
#X obj 205 100 inlet;
#X obj 262 102 inlet;
#X text 204 81 pitch;
#X text 262 81 params;
#X obj 184 137 mtof;
#X obj 258 323 unpack f f f f f f f f f f f f f f f;
#N canvas 419 377 628 478 reaonbp 0;
#X obj 23 233 *;
#X obj -85 483 *~;
#X obj -142 87 log;
#X obj -147 142 *;
#X obj -150 116 t f f;
#X obj 85 157 pow -1;
#X obj 86 135 * -1;
#X obj 63 104 t f f;
#X obj 47 190 +;
#X obj 20 149 clip 0 16;
#X obj -211 198 *;
#X obj -165 257 *;
#X obj -139 229 float;
#X obj -214 173 t f f b;
#X obj -372 170 inlet~;
#X obj 92 54 inlet;
#X obj -67 518 outlet~;
#X obj -249 62 inlet;
#X text -246 45 level (0..1);
#X obj -107 37 inlet;
#X text 90 39 ratio;
#X text -121 19 res/decay (1..10000);
#X obj -320 98 inlet;
#X text -322 79 freq;
#X obj -63 433 vcf~ 1;
#X connect 0 0 24 1;
#X connect 1 0 16 0;
#X connect 2 0 4 0;
#X connect 3 0 12 0;
#X connect 4 0 3 0;
#X connect 4 1 3 1;
#X connect 5 0 8 1;
#X connect 6 0 5 0;
#X connect 7 0 9 0;
#X connect 7 1 6 0;
#X connect 8 0 0 1;
#X connect 9 0 8 0;
#X connect 10 0 11 0;
#X connect 11 0 1 1;
#X connect 12 0 11 1;
#X connect 13 0 10 0;
#X connect 13 1 10 1;
#X connect 13 2 12 0;
#X connect 14 0 24 0;
#X connect 15 0 7 0;
#X connect 17 0 13 0;
#X connect 19 0 2 0;
#X connect 19 0 24 2;
#X connect 22 0 0 0;
#X connect 24 0 1 0;
#X restore 184 428 pd reaonbp;
#N canvas 417 378 628 478 reaonbp 0;
#X obj 23 233 *;
#X obj -85 483 *~;
#X obj -142 87 log;
#X obj -147 142 *;
#X obj -150 116 t f f;
#X obj 85 157 pow -1;
#X obj 86 135 * -1;
#X obj 63 104 t f f;
#X obj 47 190 +;
#X obj 20 149 clip 0 16;
#X obj -211 198 *;
#X obj -165 257 *;
#X obj -139 229 float;
#X obj -214 173 t f f b;
#X obj -372 170 inlet~;
#X obj 92 54 inlet;
#X obj -67 518 outlet~;
#X obj -249 62 inlet;
#X text -246 45 level (0..1);
#X obj -107 37 inlet;
#X text 90 39 ratio;
#X text -121 19 res/decay (1..10000);
#X obj -320 98 inlet;
#X text -322 79 freq;
#X obj -63 433 vcf~ 1;
#X connect 0 0 24 1;
#X connect 1 0 16 0;
#X connect 2 0 4 0;
#X connect 3 0 12 0;
#X connect 4 0 3 0;
#X connect 4 1 3 1;
#X connect 5 0 8 1;
#X connect 6 0 5 0;
#X connect 7 0 9 0;
#X connect 7 1 6 0;
#X connect 8 0 0 1;
#X connect 9 0 8 0;
#X connect 10 0 11 0;
#X connect 11 0 1 1;
#X connect 12 0 11 1;
#X connect 13 0 10 0;
#X connect 13 1 10 1;
#X connect 13 2 12 0;
#X connect 14 0 24 0;
#X connect 15 0 7 0;
#X connect 17 0 13 0;
#X connect 19 0 2 0;
#X connect 19 0 24 2;
#X connect 22 0 0 0;
#X connect 24 0 1 0;
#X restore 218 464 pd reaonbp;
#N canvas 419 377 628 478 reaonbp 0;
#X obj 23 233 *;
#X obj -85 483 *~;
#X obj -142 87 log;
#X obj -147 142 *;
#X obj -150 116 t f f;
#X obj 85 157 pow -1;
#X obj 86 135 * -1;
#X obj 63 104 t f f;
#X obj 47 190 +;
#X obj 20 149 clip 0 16;
#X obj -211 198 *;
#X obj -165 257 *;
#X obj -139 229 float;
#X obj -214 173 t f f b;
#X obj -372 170 inlet~;
#X obj 92 54 inlet;
#X obj -67 518 outlet~;
#X obj -249 62 inlet;
#X text -246 45 level (0..1);
#X obj -107 37 inlet;
#X text 90 39 ratio;
#X text -121 19 res/decay (1..10000);
#X obj -320 98 inlet;
#X text -322 79 freq;
#X obj -63 433 vcf~ 1;
#X connect 0 0 24 1;
#X connect 1 0 16 0;
#X connect 2 0 4 0;
#X connect 3 0 12 0;
#X connect 4 0 3 0;
#X connect 4 1 3 1;
#X connect 5 0 8 1;
#X connect 6 0 5 0;
#X connect 7 0 9 0;
#X connect 7 1 6 0;
#X connect 8 0 0 1;
#X connect 9 0 8 0;
#X connect 10 0 11 0;
#X connect 11 0 1 1;
#X connect 12 0 11 1;
#X connect 13 0 10 0;
#X connect 13 1 10 1;
#X connect 13 2 12 0;
#X connect 14 0 24 0;
#X connect 15 0 7 0;
#X connect 17 0 13 0;
#X connect 19 0 2 0;
#X connect 19 0 24 2;
#X connect 22 0 0 0;
#X connect 24 0 1 0;
#X restore 251 499 pd reaonbp;
#N canvas 419 377 628 478 reaonbp 0;
#X obj 23 233 *;
#X obj -85 483 *~;
#X obj -142 87 log;
#X obj -147 142 *;
#X obj -150 116 t f f;
#X obj 85 157 pow -1;
#X obj 86 135 * -1;
#X obj 63 104 t f f;
#X obj 47 190 +;
#X obj 20 149 clip 0 16;
#X obj -211 198 *;
#X obj -165 257 *;
#X obj -139 229 float;
#X obj -214 173 t f f b;
#X obj -372 170 inlet~;
#X obj 92 54 inlet;
#X obj -67 518 outlet~;
#X obj -249 62 inlet;
#X text -246 45 level (0..1);
#X obj -107 37 inlet;
#X text 90 39 ratio;
#X text -121 19 res/decay (1..10000);
#X obj -320 98 inlet;
#X text -322 79 freq;
#X obj -63 433 vcf~ 1;
#X connect 0 0 24 1;
#X connect 1 0 16 0;
#X connect 2 0 4 0;
#X connect 3 0 12 0;
#X connect 4 0 3 0;
#X connect 4 1 3 1;
#X connect 5 0 8 1;
#X connect 6 0 5 0;
#X connect 7 0 9 0;
#X connect 7 1 6 0;
#X connect 8 0 0 1;
#X connect 9 0 8 0;
#X connect 10 0 11 0;
#X connect 11 0 1 1;
#X connect 12 0 11 1;
#X connect 13 0 10 0;
#X connect 13 1 10 1;
#X connect 13 2 12 0;
#X connect 14 0 24 0;
#X connect 15 0 7 0;
#X connect 17 0 13 0;
#X connect 19 0 2 0;
#X connect 19 0 24 2;
#X connect 22 0 0 0;
#X connect 24 0 1 0;
#X restore 280 531 pd reaonbp;
#X obj 13 54 noise~;
#X obj 112 90 line~;
#X msg 72 38 0 10;
#X obj 114 42 float;
#X obj 90 -5 t b b f;
#X obj 99 121 *~;
#X obj 77 -42 inlet;
#X text 72 -59 trig 0..1;
#X connect 0 0 1 0;
#X connect 2 0 6 0;
#X connect 3 0 7 0;
#X connect 6 0 0 1;
#X connect 6 0 8 1;
#X connect 6 0 9 1;
#X connect 6 0 10 1;
#X connect 6 0 11 1;
#X connect 7 0 0 2;
#X connect 7 1 0 3;
#X connect 7 2 0 4;
#X connect 7 3 8 2;
#X connect 7 4 8 3;
#X connect 7 5 8 4;
#X connect 7 6 9 2;
#X connect 7 7 9 3;
#X connect 7 8 9 4;
#X connect 7 9 10 2;
#X connect 7 10 10 3;
#X connect 7 11 10 4;
#X connect 7 12 11 2;
#X connect 7 13 11 3;
#X connect 7 14 11 4;
#X connect 8 0 1 0;
#X connect 9 0 1 0;
#X connect 10 0 1 0;
#X connect 11 0 1 0;
#X connect 12 0 17 0;
#X connect 13 0 17 1;
#X connect 14 0 13 0;
#X connect 15 0 13 0;
#X connect 16 0 14 0;
#X connect 16 1 15 0;
#X connect 16 2 15 1;
#X connect 17 0 0 0;
#X connect 17 0 8 0;
#X connect 17 0 9 0;
#X connect 17 0 10 0;
#X connect 17 0 11 0;
#X connect 18 0 16 0;
#X restore -146 478 pd monomode;
#X obj 108 202 hsl 128 15 10 10000 1 1 empty empty empty -2 -8 0 10
-262144 -1 -1 3300 1;
#X obj 109 185 nbx 5 14 -16 16 0 1 empty empty empty 0 -8 0 10 -262144
-1 -1 9.0319 256;
#X obj 169 184 hsl 64 15 0 1 0 1 empty empty empty -2 -8 0 10 -262144
-1 -1 2054 1;
#X obj 108 242 hsl 128 15 10 10000 1 1 empty empty empty -2 -8 0 10
-262144 -1 -1 3700 1;
#X obj 109 225 nbx 5 14 -16 16 0 1 empty empty empty 0 -8 0 10 -262144
-1 -1 2.1553 256;
#X obj 169 224 hsl 64 15 0 1 0 1 empty empty empty -2 -8 0 10 -262144
-1 -1 2671 1;
#X obj 247 158 hsl 128 15 10 10000 1 1 empty empty empty -2 -8 0 10
-262144 -1 -1 3000 1;
#X obj 248 141 nbx 5 14 -16 16 0 1 empty empty empty 0 -8 0 10 -262144
-1 -1 10.0961 256;
#X obj 308 140 hsl 64 15 0 1 0 1 empty empty empty -2 -8 0 10 -262144
-1 -1 3982 1;
#X obj 247 198 hsl 128 15 10 10000 1 1 empty empty empty -2 -8 0 10
-262144 -1 -1 4500 1;
#X obj 248 181 nbx 5 14 -16 16 0 1 empty empty empty 0 -8 0 10 -262144
-1 -1 -3.6997 256;
#X obj 308 180 hsl 64 15 0 1 0 1 empty empty empty -2 -8 0 10 -262144
-1 -1 6149 1;
#X obj 247 237 hsl 128 15 10 10000 1 1 empty empty empty -2 -8 0 10
-262144 -1 -1 2007 1;
#X obj 248 220 nbx 5 14 -16 16 0 1 empty empty empty 0 -8 0 10 -262144
-1 -1 1.9058 256;
#X obj 308 219 hsl 64 15 0 1 0 1 empty empty empty -2 -8 0 10 -262144
-1 -1 844 1;
#X obj 257 106 bng 10 250 50 0 empty empty rnd_r 14 7 0 10 -260097
-1 -1;
#X obj 95 419 float;
#X obj 106 452 pack f f f f f f f f f f f f f f f;
#X obj 334 106 bng 10 250 50 0 empty empty rnd_l 14 7 0 10 -260097
-1 -1;
#X obj 454 -88 / 1000;
#X obj 456 -110 random 1000;
#X obj 461 -32 / 1000;
#X obj 463 -54 random 1000;
#X obj 106 116 nbx 3 14 0 127 0 1 empty empty empty 0 -8 0 10 -262144
-1 -1 41 256;
#X obj -100 722 *~ 0.5;
#N canvas 1 84 844 677 monomode 0;
#N canvas 415 379 628 478 reaonbp 0;
#X obj 23 233 *;
#X obj -85 483 *~;
#X obj -142 87 log;
#X obj -147 142 *;
#X obj -150 116 t f f;
#X obj 85 157 pow -1;
#X obj 86 135 * -1;
#X obj 63 104 t f f;
#X obj 47 190 +;
#X obj 20 149 clip 0 16;
#X obj -211 198 *;
#X obj -165 257 *;
#X obj -139 229 float;
#X obj -214 173 t f f b;
#X obj -372 170 inlet~;
#X obj 92 54 inlet;
#X obj -67 518 outlet~;
#X obj -249 62 inlet;
#X text -246 45 level (0..1);
#X obj -107 37 inlet;
#X text 90 39 ratio;
#X text -121 19 res/decay (1..10000);
#X obj -320 98 inlet;
#X text -322 79 freq;
#X obj -63 433 vcf~ 1;
#X connect 0 0 24 1;
#X connect 1 0 16 0;
#X connect 2 0 4 0;
#X connect 3 0 12 0;
#X connect 4 0 3 0;
#X connect 4 1 3 1;
#X connect 5 0 8 1;
#X connect 6 0 5 0;
#X connect 7 0 9 0;
#X connect 7 1 6 0;
#X connect 8 0 0 1;
#X connect 9 0 8 0;
#X connect 10 0 11 0;
#X connect 11 0 1 1;
#X connect 12 0 11 1;
#X connect 13 0 10 0;
#X connect 13 1 10 1;
#X connect 13 2 12 0;
#X connect 14 0 24 0;
#X connect 15 0 7 0;
#X connect 17 0 13 0;
#X connect 19 0 2 0;
#X connect 19 0 24 2;
#X connect 22 0 0 0;
#X connect 24 0 1 0;
#X restore 151 393 pd reaonbp;
#X obj 204 589 outlet~;
#X obj 205 100 inlet;
#X obj 262 102 inlet;
#X text 204 81 pitch;
#X text 262 81 params;
#X obj 184 137 mtof;
#X obj 258 323 unpack f f f f f f f f f f f f f f f;
#N canvas 419 377 628 478 reaonbp 0;
#X obj 23 233 *;
#X obj -85 483 *~;
#X obj -142 87 log;
#X obj -147 142 *;
#X obj -150 116 t f f;
#X obj 85 157 pow -1;
#X obj 86 135 * -1;
#X obj 63 104 t f f;
#X obj 47 190 +;
#X obj 20 149 clip 0 16;
#X obj -211 198 *;
#X obj -165 257 *;
#X obj -139 229 float;
#X obj -214 173 t f f b;
#X obj -372 170 inlet~;
#X obj 92 54 inlet;
#X obj -67 518 outlet~;
#X obj -249 62 inlet;
#X text -246 45 level (0..1);
#X obj -107 37 inlet;
#X text 90 39 ratio;
#X text -121 19 res/decay (1..10000);
#X obj -320 98 inlet;
#X text -322 79 freq;
#X obj -63 433 vcf~ 1;
#X connect 0 0 24 1;
#X connect 1 0 16 0;
#X connect 2 0 4 0;
#X connect 3 0 12 0;
#X connect 4 0 3 0;
#X connect 4 1 3 1;
#X connect 5 0 8 1;
#X connect 6 0 5 0;
#X connect 7 0 9 0;
#X connect 7 1 6 0;
#X connect 8 0 0 1;
#X connect 9 0 8 0;
#X connect 10 0 11 0;
#X connect 11 0 1 1;
#X connect 12 0 11 1;
#X connect 13 0 10 0;
#X connect 13 1 10 1;
#X connect 13 2 12 0;
#X connect 14 0 24 0;
#X connect 15 0 7 0;
#X connect 17 0 13 0;
#X connect 19 0 2 0;
#X connect 19 0 24 2;
#X connect 22 0 0 0;
#X connect 24 0 1 0;
#X restore 184 428 pd reaonbp;
#N canvas 417 378 628 478 reaonbp 0;
#X obj 23 233 *;
#X obj -85 483 *~;
#X obj -142 87 log;
#X obj -147 142 *;
#X obj -150 116 t f f;
#X obj 85 157 pow -1;
#X obj 86 135 * -1;
#X obj 63 104 t f f;
#X obj 47 190 +;
#X obj 20 149 clip 0 16;
#X obj -211 198 *;
#X obj -165 257 *;
#X obj -139 229 float;
#X obj -214 173 t f f b;
#X obj -372 170 inlet~;
#X obj 92 54 inlet;
#X obj -67 518 outlet~;
#X obj -249 62 inlet;
#X text -246 45 level (0..1);
#X obj -107 37 inlet;
#X text 90 39 ratio;
#X text -121 19 res/decay (1..10000);
#X obj -320 98 inlet;
#X text -322 79 freq;
#X obj -63 433 vcf~ 1;
#X connect 0 0 24 1;
#X connect 1 0 16 0;
#X connect 2 0 4 0;
#X connect 3 0 12 0;
#X connect 4 0 3 0;
#X connect 4 1 3 1;
#X connect 5 0 8 1;
#X connect 6 0 5 0;
#X connect 7 0 9 0;
#X connect 7 1 6 0;
#X connect 8 0 0 1;
#X connect 9 0 8 0;
#X connect 10 0 11 0;
#X connect 11 0 1 1;
#X connect 12 0 11 1;
#X connect 13 0 10 0;
#X connect 13 1 10 1;
#X connect 13 2 12 0;
#X connect 14 0 24 0;
#X connect 15 0 7 0;
#X connect 17 0 13 0;
#X connect 19 0 2 0;
#X connect 19 0 24 2;
#X connect 22 0 0 0;
#X connect 24 0 1 0;
#X restore 218 464 pd reaonbp;
#N canvas 419 377 628 478 reaonbp 0;
#X obj 23 233 *;
#X obj -85 483 *~;
#X obj -142 87 log;
#X obj -147 142 *;
#X obj -150 116 t f f;
#X obj 85 157 pow -1;
#X obj 86 135 * -1;
#X obj 63 104 t f f;
#X obj 47 190 +;
#X obj 20 149 clip 0 16;
#X obj -211 198 *;
#X obj -165 257 *;
#X obj -139 229 float;
#X obj -214 173 t f f b;
#X obj -372 170 inlet~;
#X obj 92 54 inlet;
#X obj -67 518 outlet~;
#X obj -249 62 inlet;
#X text -246 45 level (0..1);
#X obj -107 37 inlet;
#X text 90 39 ratio;
#X text -121 19 res/decay (1..10000);
#X obj -320 98 inlet;
#X text -322 79 freq;
#X obj -63 433 vcf~ 1;
#X connect 0 0 24 1;
#X connect 1 0 16 0;
#X connect 2 0 4 0;
#X connect 3 0 12 0;
#X connect 4 0 3 0;
#X connect 4 1 3 1;
#X connect 5 0 8 1;
#X connect 6 0 5 0;
#X connect 7 0 9 0;
#X connect 7 1 6 0;
#X connect 8 0 0 1;
#X connect 9 0 8 0;
#X connect 10 0 11 0;
#X connect 11 0 1 1;
#X connect 12 0 11 1;
#X connect 13 0 10 0;
#X connect 13 1 10 1;
#X connect 13 2 12 0;
#X connect 14 0 24 0;
#X connect 15 0 7 0;
#X connect 17 0 13 0;
#X connect 19 0 2 0;
#X connect 19 0 24 2;
#X connect 22 0 0 0;
#X connect 24 0 1 0;
#X restore 251 499 pd reaonbp;
#N canvas 419 377 628 478 reaonbp 0;
#X obj 23 233 *;
#X obj -85 483 *~;
#X obj -142 87 log;
#X obj -147 142 *;
#X obj -150 116 t f f;
#X obj 85 157 pow -1;
#X obj 86 135 * -1;
#X obj 63 104 t f f;
#X obj 47 190 +;
#X obj 20 149 clip 0 16;
#X obj -211 198 *;
#X obj -165 257 *;
#X obj -139 229 float;
#X obj -214 173 t f f b;
#X obj -372 170 inlet~;
#X obj 92 54 inlet;
#X obj -67 518 outlet~;
#X obj -249 62 inlet;
#X text -246 45 level (0..1);
#X obj -107 37 inlet;
#X text 90 39 ratio;
#X text -121 19 res/decay (1..10000);
#X obj -320 98 inlet;
#X text -322 79 freq;
#X obj -63 433 vcf~ 1;
#X connect 0 0 24 1;
#X connect 1 0 16 0;
#X connect 2 0 4 0;
#X connect 3 0 12 0;
#X connect 4 0 3 0;
#X connect 4 1 3 1;
#X connect 5 0 8 1;
#X connect 6 0 5 0;
#X connect 7 0 9 0;
#X connect 7 1 6 0;
#X connect 8 0 0 1;
#X connect 9 0 8 0;
#X connect 10 0 11 0;
#X connect 11 0 1 1;
#X connect 12 0 11 1;
#X connect 13 0 10 0;
#X connect 13 1 10 1;
#X connect 13 2 12 0;
#X connect 14 0 24 0;
#X connect 15 0 7 0;
#X connect 17 0 13 0;
#X connect 19 0 2 0;
#X connect 19 0 24 2;
#X connect 22 0 0 0;
#X connect 24 0 1 0;
#X restore 280 531 pd reaonbp;
#X obj 13 54 noise~;
#X obj 112 90 line~;
#X msg 72 38 0 10;
#X obj 114 42 float;
#X obj 90 -5 t b b f;
#X obj 99 121 *~;
#X obj 77 -42 inlet;
#X text 72 -59 trig 0..1;
#X connect 0 0 1 0;
#X connect 2 0 6 0;
#X connect 3 0 7 0;
#X connect 6 0 0 1;
#X connect 6 0 8 1;
#X connect 6 0 9 1;
#X connect 6 0 10 1;
#X connect 6 0 11 1;
#X connect 7 0 0 2;
#X connect 7 1 0 3;
#X connect 7 2 0 4;
#X connect 7 3 8 2;
#X connect 7 4 8 3;
#X connect 7 5 8 4;
#X connect 7 6 9 2;
#X connect 7 7 9 3;
#X connect 7 8 9 4;
#X connect 7 9 10 2;
#X connect 7 10 10 3;
#X connect 7 11 10 4;
#X connect 7 12 11 2;
#X connect 7 13 11 3;
#X connect 7 14 11 4;
#X connect 8 0 1 0;
#X connect 9 0 1 0;
#X connect 10 0 1 0;
#X connect 11 0 1 0;
#X connect 12 0 17 0;
#X connect 13 0 17 1;
#X connect 14 0 13 0;
#X connect 15 0 13 0;
#X connect 16 0 14 0;
#X connect 16 1 15 0;
#X connect 16 2 15 1;
#X connect 17 0 0 0;
#X connect 17 0 8 0;
#X connect 17 0 9 0;
#X connect 17 0 10 0;
#X connect 17 0 11 0;
#X connect 18 0 16 0;
#X restore -185 414 pd monomode;
#X obj 106 136 nbx 3 14 0 127 0 1 empty empty empty 0 -8 0 10 -262144
-1 -1 46 256;
#N canvas 1 82 844 677 monomode 0;
#N canvas 415 379 628 478 reaonbp 0;
#X obj 23 233 *;
#X obj -85 483 *~;
#X obj -142 87 log;
#X obj -147 142 *;
#X obj -150 116 t f f;
#X obj 85 157 pow -1;
#X obj 86 135 * -1;
#X obj 63 104 t f f;
#X obj 47 190 +;
#X obj 20 149 clip 0 16;
#X obj -211 198 *;
#X obj -165 257 *;
#X obj -139 229 float;
#X obj -214 173 t f f b;
#X obj -372 170 inlet~;
#X obj 92 54 inlet;
#X obj -67 518 outlet~;
#X obj -249 62 inlet;
#X text -246 45 level (0..1);
#X obj -107 37 inlet;
#X text 90 39 ratio;
#X text -121 19 res/decay (1..10000);
#X obj -320 98 inlet;
#X text -322 79 freq;
#X obj -63 433 vcf~ 1;
#X connect 0 0 24 1;
#X connect 1 0 16 0;
#X connect 2 0 4 0;
#X connect 3 0 12 0;
#X connect 4 0 3 0;
#X connect 4 1 3 1;
#X connect 5 0 8 1;
#X connect 6 0 5 0;
#X connect 7 0 9 0;
#X connect 7 1 6 0;
#X connect 8 0 0 1;
#X connect 9 0 8 0;
#X connect 10 0 11 0;
#X connect 11 0 1 1;
#X connect 12 0 11 1;
#X connect 13 0 10 0;
#X connect 13 1 10 1;
#X connect 13 2 12 0;
#X connect 14 0 24 0;
#X connect 15 0 7 0;
#X connect 17 0 13 0;
#X connect 19 0 2 0;
#X connect 19 0 24 2;
#X connect 22 0 0 0;
#X connect 24 0 1 0;
#X restore 151 393 pd reaonbp;
#X obj 204 589 outlet~;
#X obj 205 100 inlet;
#X obj 262 102 inlet;
#X text 204 81 pitch;
#X text 262 81 params;
#X obj 184 137 mtof;
#X obj 258 323 unpack f f f f f f f f f f f f f f f;
#N canvas 419 377 628 478 reaonbp 0;
#X obj 23 233 *;
#X obj -85 483 *~;
#X obj -142 87 log;
#X obj -147 142 *;
#X obj -150 116 t f f;
#X obj 85 157 pow -1;
#X obj 86 135 * -1;
#X obj 63 104 t f f;
#X obj 47 190 +;
#X obj 20 149 clip 0 16;
#X obj -211 198 *;
#X obj -165 257 *;
#X obj -139 229 float;
#X obj -214 173 t f f b;
#X obj -372 170 inlet~;
#X obj 92 54 inlet;
#X obj -67 518 outlet~;
#X obj -249 62 inlet;
#X text -246 45 level (0..1);
#X obj -107 37 inlet;
#X text 90 39 ratio;
#X text -121 19 res/decay (1..10000);
#X obj -320 98 inlet;
#X text -322 79 freq;
#X obj -63 433 vcf~ 1;
#X connect 0 0 24 1;
#X connect 1 0 16 0;
#X connect 2 0 4 0;
#X connect 3 0 12 0;
#X connect 4 0 3 0;
#X connect 4 1 3 1;
#X connect 5 0 8 1;
#X connect 6 0 5 0;
#X connect 7 0 9 0;
#X connect 7 1 6 0;
#X connect 8 0 0 1;
#X connect 9 0 8 0;
#X connect 10 0 11 0;
#X connect 11 0 1 1;
#X connect 12 0 11 1;
#X connect 13 0 10 0;
#X connect 13 1 10 1;
#X connect 13 2 12 0;
#X connect 14 0 24 0;
#X connect 15 0 7 0;
#X connect 17 0 13 0;
#X connect 19 0 2 0;
#X connect 19 0 24 2;
#X connect 22 0 0 0;
#X connect 24 0 1 0;
#X restore 184 428 pd reaonbp;
#N canvas 417 378 628 478 reaonbp 0;
#X obj 23 233 *;
#X obj -85 483 *~;
#X obj -142 87 log;
#X obj -147 142 *;
#X obj -150 116 t f f;
#X obj 85 157 pow -1;
#X obj 86 135 * -1;
#X obj 63 104 t f f;
#X obj 47 190 +;
#X obj 20 149 clip 0 16;
#X obj -211 198 *;
#X obj -165 257 *;
#X obj -139 229 float;
#X obj -214 173 t f f b;
#X obj -372 170 inlet~;
#X obj 92 54 inlet;
#X obj -67 518 outlet~;
#X obj -249 62 inlet;
#X text -246 45 level (0..1);
#X obj -107 37 inlet;
#X text 90 39 ratio;
#X text -121 19 res/decay (1..10000);
#X obj -320 98 inlet;
#X text -322 79 freq;
#X obj -63 433 vcf~ 1;
#X connect 0 0 24 1;
#X connect 1 0 16 0;
#X connect 2 0 4 0;
#X connect 3 0 12 0;
#X connect 4 0 3 0;
#X connect 4 1 3 1;
#X connect 5 0 8 1;
#X connect 6 0 5 0;
#X connect 7 0 9 0;
#X connect 7 1 6 0;
#X connect 8 0 0 1;
#X connect 9 0 8 0;
#X connect 10 0 11 0;
#X connect 11 0 1 1;
#X connect 12 0 11 1;
#X connect 13 0 10 0;
#X connect 13 1 10 1;
#X connect 13 2 12 0;
#X connect 14 0 24 0;
#X connect 15 0 7 0;
#X connect 17 0 13 0;
#X connect 19 0 2 0;
#X connect 19 0 24 2;
#X connect 22 0 0 0;
#X connect 24 0 1 0;
#X restore 218 464 pd reaonbp;
#N canvas 419 377 628 478 reaonbp 0;
#X obj 23 233 *;
#X obj -85 483 *~;
#X obj -142 87 log;
#X obj -147 142 *;
#X obj -150 116 t f f;
#X obj 85 157 pow -1;
#X obj 86 135 * -1;
#X obj 63 104 t f f;
#X obj 47 190 +;
#X obj 20 149 clip 0 16;
#X obj -211 198 *;
#X obj -165 257 *;
#X obj -139 229 float;
#X obj -214 173 t f f b;
#X obj -372 170 inlet~;
#X obj 92 54 inlet;
#X obj -67 518 outlet~;
#X obj -249 62 inlet;
#X text -246 45 level (0..1);
#X obj -107 37 inlet;
#X text 90 39 ratio;
#X text -121 19 res/decay (1..10000);
#X obj -320 98 inlet;
#X text -322 79 freq;
#X obj -63 433 vcf~ 1;
#X connect 0 0 24 1;
#X connect 1 0 16 0;
#X connect 2 0 4 0;
#X connect 3 0 12 0;
#X connect 4 0 3 0;
#X connect 4 1 3 1;
#X connect 5 0 8 1;
#X connect 6 0 5 0;
#X connect 7 0 9 0;
#X connect 7 1 6 0;
#X connect 8 0 0 1;
#X connect 9 0 8 0;
#X connect 10 0 11 0;
#X connect 11 0 1 1;
#X connect 12 0 11 1;
#X connect 13 0 10 0;
#X connect 13 1 10 1;
#X connect 13 2 12 0;
#X connect 14 0 24 0;
#X connect 15 0 7 0;
#X connect 17 0 13 0;
#X connect 19 0 2 0;
#X connect 19 0 24 2;
#X connect 22 0 0 0;
#X connect 24 0 1 0;
#X restore 251 499 pd reaonbp;
#N canvas 419 377 628 478 reaonbp 0;
#X obj 23 233 *;
#X obj -85 483 *~;
#X obj -142 87 log;
#X obj -147 142 *;
#X obj -150 116 t f f;
#X obj 85 157 pow -1;
#X obj 86 135 * -1;
#X obj 63 104 t f f;
#X obj 47 190 +;
#X obj 20 149 clip 0 16;
#X obj -211 198 *;
#X obj -165 257 *;
#X obj -139 229 float;
#X obj -214 173 t f f b;
#X obj -372 170 inlet~;
#X obj 92 54 inlet;
#X obj -67 518 outlet~;
#X obj -249 62 inlet;
#X text -246 45 level (0..1);
#X obj -107 37 inlet;
#X text 90 39 ratio;
#X text -121 19 res/decay (1..10000);
#X obj -320 98 inlet;
#X text -322 79 freq;
#X obj -63 433 vcf~ 1;
#X connect 0 0 24 1;
#X connect 1 0 16 0;
#X connect 2 0 4 0;
#X connect 3 0 12 0;
#X connect 4 0 3 0;
#X connect 4 1 3 1;
#X connect 5 0 8 1;
#X connect 6 0 5 0;
#X connect 7 0 9 0;
#X connect 7 1 6 0;
#X connect 8 0 0 1;
#X connect 9 0 8 0;
#X connect 10 0 11 0;
#X connect 11 0 1 1;
#X connect 12 0 11 1;
#X connect 13 0 10 0;
#X connect 13 1 10 1;
#X connect 13 2 12 0;
#X connect 14 0 24 0;
#X connect 15 0 7 0;
#X connect 17 0 13 0;
#X connect 19 0 2 0;
#X connect 19 0 24 2;
#X connect 22 0 0 0;
#X connect 24 0 1 0;
#X restore 280 531 pd reaonbp;
#X obj 13 54 noise~;
#X obj 112 90 line~;
#X msg 72 38 0 10;
#X obj 114 42 float;
#X obj 90 -5 t b b f;
#X obj 99 121 *~;
#X obj 77 -42 inlet;
#X text 72 -59 trig 0..1;
#X connect 0 0 1 0;
#X connect 2 0 6 0;
#X connect 3 0 7 0;
#X connect 6 0 0 1;
#X connect 6 0 8 1;
#X connect 6 0 9 1;
#X connect 6 0 10 1;
#X connect 6 0 11 1;
#X connect 7 0 0 2;
#X connect 7 1 0 3;
#X connect 7 2 0 4;
#X connect 7 3 8 2;
#X connect 7 4 8 3;
#X connect 7 5 8 4;
#X connect 7 6 9 2;
#X connect 7 7 9 3;
#X connect 7 8 9 4;
#X connect 7 9 10 2;
#X connect 7 10 10 3;
#X connect 7 11 10 4;
#X connect 7 12 11 2;
#X connect 7 13 11 3;
#X connect 7 14 11 4;
#X connect 8 0 1 0;
#X connect 9 0 1 0;
#X connect 10 0 1 0;
#X connect 11 0 1 0;
#X connect 12 0 17 0;
#X connect 13 0 17 1;
#X connect 14 0 13 0;
#X connect 15 0 13 0;
#X connect 16 0 14 0;
#X connect 16 1 15 0;
#X connect 16 2 15 1;
#X connect 17 0 0 0;
#X connect 17 0 8 0;
#X connect 17 0 9 0;
#X connect 17 0 10 0;
#X connect 17 0 11 0;
#X connect 18 0 16 0;
#X restore -167 443 pd monomode;
#X obj 106 156 nbx 3 14 0 127 0 1 empty empty empty 0 -8 0 10 -262144
-1 -1 40 256;
#N canvas 1 82 844 677 monomode 0;
#N canvas 415 379 628 478 reaonbp 0;
#X obj 23 233 *;
#X obj -85 483 *~;
#X obj -142 87 log;
#X obj -147 142 *;
#X obj -150 116 t f f;
#X obj 85 157 pow -1;
#X obj 86 135 * -1;
#X obj 63 104 t f f;
#X obj 47 190 +;
#X obj 20 149 clip 0 16;
#X obj -211 198 *;
#X obj -165 257 *;
#X obj -139 229 float;
#X obj -214 173 t f f b;
#X obj -372 170 inlet~;
#X obj 92 54 inlet;
#X obj -67 518 outlet~;
#X obj -249 62 inlet;
#X text -246 45 level (0..1);
#X obj -107 37 inlet;
#X text 90 39 ratio;
#X text -121 19 res/decay (1..10000);
#X obj -320 98 inlet;
#X text -322 79 freq;
#X obj -63 433 vcf~ 1;
#X connect 0 0 24 1;
#X connect 1 0 16 0;
#X connect 2 0 4 0;
#X connect 3 0 12 0;
#X connect 4 0 3 0;
#X connect 4 1 3 1;
#X connect 5 0 8 1;
#X connect 6 0 5 0;
#X connect 7 0 9 0;
#X connect 7 1 6 0;
#X connect 8 0 0 1;
#X connect 9 0 8 0;
#X connect 10 0 11 0;
#X connect 11 0 1 1;
#X connect 12 0 11 1;
#X connect 13 0 10 0;
#X connect 13 1 10 1;
#X connect 13 2 12 0;
#X connect 14 0 24 0;
#X connect 15 0 7 0;
#X connect 17 0 13 0;
#X connect 19 0 2 0;
#X connect 19 0 24 2;
#X connect 22 0 0 0;
#X connect 24 0 1 0;
#X restore 151 393 pd reaonbp;
#X obj 204 589 outlet~;
#X obj 205 100 inlet;
#X obj 262 102 inlet;
#X text 204 81 pitch;
#X text 262 81 params;
#X obj 184 137 mtof;
#X obj 258 323 unpack f f f f f f f f f f f f f f f;
#N canvas 419 377 628 478 reaonbp 0;
#X obj 23 233 *;
#X obj -85 483 *~;
#X obj -142 87 log;
#X obj -147 142 *;
#X obj -150 116 t f f;
#X obj 85 157 pow -1;
#X obj 86 135 * -1;
#X obj 63 104 t f f;
#X obj 47 190 +;
#X obj 20 149 clip 0 16;
#X obj -211 198 *;
#X obj -165 257 *;
#X obj -139 229 float;
#X obj -214 173 t f f b;
#X obj -372 170 inlet~;
#X obj 92 54 inlet;
#X obj -67 518 outlet~;
#X obj -249 62 inlet;
#X text -246 45 level (0..1);
#X obj -107 37 inlet;
#X text 90 39 ratio;
#X text -121 19 res/decay (1..10000);
#X obj -320 98 inlet;
#X text -322 79 freq;
#X obj -63 433 vcf~ 1;
#X connect 0 0 24 1;
#X connect 1 0 16 0;
#X connect 2 0 4 0;
#X connect 3 0 12 0;
#X connect 4 0 3 0;
#X connect 4 1 3 1;
#X connect 5 0 8 1;
#X connect 6 0 5 0;
#X connect 7 0 9 0;
#X connect 7 1 6 0;
#X connect 8 0 0 1;
#X connect 9 0 8 0;
#X connect 10 0 11 0;
#X connect 11 0 1 1;
#X connect 12 0 11 1;
#X connect 13 0 10 0;
#X connect 13 1 10 1;
#X connect 13 2 12 0;
#X connect 14 0 24 0;
#X connect 15 0 7 0;
#X connect 17 0 13 0;
#X connect 19 0 2 0;
#X connect 19 0 24 2;
#X connect 22 0 0 0;
#X connect 24 0 1 0;
#X restore 184 428 pd reaonbp;
#N canvas 417 378 628 478 reaonbp 0;
#X obj 23 233 *;
#X obj -85 483 *~;
#X obj -142 87 log;
#X obj -147 142 *;
#X obj -150 116 t f f;
#X obj 85 157 pow -1;
#X obj 86 135 * -1;
#X obj 63 104 t f f;
#X obj 47 190 +;
#X obj 20 149 clip 0 16;
#X obj -211 198 *;
#X obj -165 257 *;
#X obj -139 229 float;
#X obj -214 173 t f f b;
#X obj -372 170 inlet~;
#X obj 92 54 inlet;
#X obj -67 518 outlet~;
#X obj -249 62 inlet;
#X text -246 45 level (0..1);
#X obj -107 37 inlet;
#X text 90 39 ratio;
#X text -121 19 res/decay (1..10000);
#X obj -320 98 inlet;
#X text -322 79 freq;
#X obj -63 433 vcf~ 1;
#X connect 0 0 24 1;
#X connect 1 0 16 0;
#X connect 2 0 4 0;
#X connect 3 0 12 0;
#X connect 4 0 3 0;
#X connect 4 1 3 1;
#X connect 5 0 8 1;
#X connect 6 0 5 0;
#X connect 7 0 9 0;
#X connect 7 1 6 0;
#X connect 8 0 0 1;
#X connect 9 0 8 0;
#X connect 10 0 11 0;
#X connect 11 0 1 1;
#X connect 12 0 11 1;
#X connect 13 0 10 0;
#X connect 13 1 10 1;
#X connect 13 2 12 0;
#X connect 14 0 24 0;
#X connect 15 0 7 0;
#X connect 17 0 13 0;
#X connect 19 0 2 0;
#X connect 19 0 24 2;
#X connect 22 0 0 0;
#X connect 24 0 1 0;
#X restore 218 464 pd reaonbp;
#N canvas 419 377 628 478 reaonbp 0;
#X obj 23 233 *;
#X obj -85 483 *~;
#X obj -142 87 log;
#X obj -147 142 *;
#X obj -150 116 t f f;
#X obj 85 157 pow -1;
#X obj 86 135 * -1;
#X obj 63 104 t f f;
#X obj 47 190 +;
#X obj 20 149 clip 0 16;
#X obj -211 198 *;
#X obj -165 257 *;
#X obj -139 229 float;
#X obj -214 173 t f f b;
#X obj -372 170 inlet~;
#X obj 92 54 inlet;
#X obj -67 518 outlet~;
#X obj -249 62 inlet;
#X text -246 45 level (0..1);
#X obj -107 37 inlet;
#X text 90 39 ratio;
#X text -121 19 res/decay (1..10000);
#X obj -320 98 inlet;
#X text -322 79 freq;
#X obj -63 433 vcf~ 1;
#X connect 0 0 24 1;
#X connect 1 0 16 0;
#X connect 2 0 4 0;
#X connect 3 0 12 0;
#X connect 4 0 3 0;
#X connect 4 1 3 1;
#X connect 5 0 8 1;
#X connect 6 0 5 0;
#X connect 7 0 9 0;
#X connect 7 1 6 0;
#X connect 8 0 0 1;
#X connect 9 0 8 0;
#X connect 10 0 11 0;
#X connect 11 0 1 1;
#X connect 12 0 11 1;
#X connect 13 0 10 0;
#X connect 13 1 10 1;
#X connect 13 2 12 0;
#X connect 14 0 24 0;
#X connect 15 0 7 0;
#X connect 17 0 13 0;
#X connect 19 0 2 0;
#X connect 19 0 24 2;
#X connect 22 0 0 0;
#X connect 24 0 1 0;
#X restore 251 499 pd reaonbp;
#N canvas 419 377 628 478 reaonbp 0;
#X obj 23 233 *;
#X obj -85 483 *~;
#X obj -142 87 log;
#X obj -147 142 *;
#X obj -150 116 t f f;
#X obj 85 157 pow -1;
#X obj 86 135 * -1;
#X obj 63 104 t f f;
#X obj 47 190 +;
#X obj 20 149 clip 0 16;
#X obj -211 198 *;
#X obj -165 257 *;
#X obj -139 229 float;
#X obj -214 173 t f f b;
#X obj -372 170 inlet~;
#X obj 92 54 inlet;
#X obj -67 518 outlet~;
#X obj -249 62 inlet;
#X text -246 45 level (0..1);
#X obj -107 37 inlet;
#X text 90 39 ratio;
#X text -121 19 res/decay (1..10000);
#X obj -320 98 inlet;
#X text -322 79 freq;
#X obj -63 433 vcf~ 1;
#X connect 0 0 24 1;
#X connect 1 0 16 0;
#X connect 2 0 4 0;
#X connect 3 0 12 0;
#X connect 4 0 3 0;
#X connect 4 1 3 1;
#X connect 5 0 8 1;
#X connect 6 0 5 0;
#X connect 7 0 9 0;
#X connect 7 1 6 0;
#X connect 8 0 0 1;
#X connect 9 0 8 0;
#X connect 10 0 11 0;
#X connect 11 0 1 1;
#X connect 12 0 11 1;
#X connect 13 0 10 0;
#X connect 13 1 10 1;
#X connect 13 2 12 0;
#X connect 14 0 24 0;
#X connect 15 0 7 0;
#X connect 17 0 13 0;
#X connect 19 0 2 0;
#X connect 19 0 24 2;
#X connect 22 0 0 0;
#X connect 24 0 1 0;
#X restore 280 531 pd reaonbp;
#X obj 13 54 noise~;
#X obj 112 90 line~;
#X msg 72 38 0 10;
#X obj 114 42 float;
#X obj 90 -5 t b b f;
#X obj 99 121 *~;
#X obj 77 -42 inlet;
#X text 72 -59 trig 0..1;
#X connect 0 0 1 0;
#X connect 2 0 6 0;
#X connect 3 0 7 0;
#X connect 6 0 0 1;
#X connect 6 0 8 1;
#X connect 6 0 9 1;
#X connect 6 0 10 1;
#X connect 6 0 11 1;
#X connect 7 0 0 2;
#X connect 7 1 0 3;
#X connect 7 2 0 4;
#X connect 7 3 8 2;
#X connect 7 4 8 3;
#X connect 7 5 8 4;
#X connect 7 6 9 2;
#X connect 7 7 9 3;
#X connect 7 8 9 4;
#X connect 7 9 10 2;
#X connect 7 10 10 3;
#X connect 7 11 10 4;
#X connect 7 12 11 2;
#X connect 7 13 11 3;
#X connect 7 14 11 4;
#X connect 8 0 1 0;
#X connect 9 0 1 0;
#X connect 10 0 1 0;
#X connect 11 0 1 0;
#X connect 12 0 17 0;
#X connect 13 0 17 1;
#X connect 14 0 13 0;
#X connect 15 0 13 0;
#X connect 16 0 14 0;
#X connect 16 1 15 0;
#X connect 16 2 15 1;
#X connect 17 0 0 0;
#X connect 17 0 8 0;
#X connect 17 0 9 0;
#X connect 17 0 10 0;
#X connect 17 0 11 0;
#X connect 18 0 16 0;
#X restore -76 529 pd monomode;
#X obj 153 116 nbx 3 14 0 127 0 1 empty empty empty 0 -8 0 10 -262144
-1 -1 37 256;
#N canvas 1 82 844 677 monomode 0;
#N canvas 415 379 628 478 reaonbp 0;
#X obj 23 233 *;
#X obj -85 483 *~;
#X obj -142 87 log;
#X obj -147 142 *;
#X obj -150 116 t f f;
#X obj 85 157 pow -1;
#X obj 86 135 * -1;
#X obj 63 104 t f f;
#X obj 47 190 +;
#X obj 20 149 clip 0 16;
#X obj -211 198 *;
#X obj -165 257 *;
#X obj -139 229 float;
#X obj -214 173 t f f b;
#X obj -372 170 inlet~;
#X obj 92 54 inlet;
#X obj -67 518 outlet~;
#X obj -249 62 inlet;
#X text -246 45 level (0..1);
#X obj -107 37 inlet;
#X text 90 39 ratio;
#X text -121 19 res/decay (1..10000);
#X obj -320 98 inlet;
#X text -322 79 freq;
#X obj -63 433 vcf~ 1;
#X connect 0 0 24 1;
#X connect 1 0 16 0;
#X connect 2 0 4 0;
#X connect 3 0 12 0;
#X connect 4 0 3 0;
#X connect 4 1 3 1;
#X connect 5 0 8 1;
#X connect 6 0 5 0;
#X connect 7 0 9 0;
#X connect 7 1 6 0;
#X connect 8 0 0 1;
#X connect 9 0 8 0;
#X connect 10 0 11 0;
#X connect 11 0 1 1;
#X connect 12 0 11 1;
#X connect 13 0 10 0;
#X connect 13 1 10 1;
#X connect 13 2 12 0;
#X connect 14 0 24 0;
#X connect 15 0 7 0;
#X connect 17 0 13 0;
#X connect 19 0 2 0;
#X connect 19 0 24 2;
#X connect 22 0 0 0;
#X connect 24 0 1 0;
#X restore 151 393 pd reaonbp;
#X obj 204 589 outlet~;
#X obj 205 100 inlet;
#X obj 262 102 inlet;
#X text 204 81 pitch;
#X text 262 81 params;
#X obj 184 137 mtof;
#X obj 258 323 unpack f f f f f f f f f f f f f f f;
#N canvas 419 377 628 478 reaonbp 0;
#X obj 23 233 *;
#X obj -85 483 *~;
#X obj -142 87 log;
#X obj -147 142 *;
#X obj -150 116 t f f;
#X obj 85 157 pow -1;
#X obj 86 135 * -1;
#X obj 63 104 t f f;
#X obj 47 190 +;
#X obj 20 149 clip 0 16;
#X obj -211 198 *;
#X obj -165 257 *;
#X obj -139 229 float;
#X obj -214 173 t f f b;
#X obj -372 170 inlet~;
#X obj 92 54 inlet;
#X obj -67 518 outlet~;
#X obj -249 62 inlet;
#X text -246 45 level (0..1);
#X obj -107 37 inlet;
#X text 90 39 ratio;
#X text -121 19 res/decay (1..10000);
#X obj -320 98 inlet;
#X text -322 79 freq;
#X obj -63 433 vcf~ 1;
#X connect 0 0 24 1;
#X connect 1 0 16 0;
#X connect 2 0 4 0;
#X connect 3 0 12 0;
#X connect 4 0 3 0;
#X connect 4 1 3 1;
#X connect 5 0 8 1;
#X connect 6 0 5 0;
#X connect 7 0 9 0;
#X connect 7 1 6 0;
#X connect 8 0 0 1;
#X connect 9 0 8 0;
#X connect 10 0 11 0;
#X connect 11 0 1 1;
#X connect 12 0 11 1;
#X connect 13 0 10 0;
#X connect 13 1 10 1;
#X connect 13 2 12 0;
#X connect 14 0 24 0;
#X connect 15 0 7 0;
#X connect 17 0 13 0;
#X connect 19 0 2 0;
#X connect 19 0 24 2;
#X connect 22 0 0 0;
#X connect 24 0 1 0;
#X restore 184 428 pd reaonbp;
#N canvas 417 378 628 478 reaonbp 0;
#X obj 23 233 *;
#X obj -85 483 *~;
#X obj -142 87 log;
#X obj -147 142 *;
#X obj -150 116 t f f;
#X obj 85 157 pow -1;
#X obj 86 135 * -1;
#X obj 63 104 t f f;
#X obj 47 190 +;
#X obj 20 149 clip 0 16;
#X obj -211 198 *;
#X obj -165 257 *;
#X obj -139 229 float;
#X obj -214 173 t f f b;
#X obj -372 170 inlet~;
#X obj 92 54 inlet;
#X obj -67 518 outlet~;
#X obj -249 62 inlet;
#X text -246 45 level (0..1);
#X obj -107 37 inlet;
#X text 90 39 ratio;
#X text -121 19 res/decay (1..10000);
#X obj -320 98 inlet;
#X text -322 79 freq;
#X obj -63 433 vcf~ 1;
#X connect 0 0 24 1;
#X connect 1 0 16 0;
#X connect 2 0 4 0;
#X connect 3 0 12 0;
#X connect 4 0 3 0;
#X connect 4 1 3 1;
#X connect 5 0 8 1;
#X connect 6 0 5 0;
#X connect 7 0 9 0;
#X connect 7 1 6 0;
#X connect 8 0 0 1;
#X connect 9 0 8 0;
#X connect 10 0 11 0;
#X connect 11 0 1 1;
#X connect 12 0 11 1;
#X connect 13 0 10 0;
#X connect 13 1 10 1;
#X connect 13 2 12 0;
#X connect 14 0 24 0;
#X connect 15 0 7 0;
#X connect 17 0 13 0;
#X connect 19 0 2 0;
#X connect 19 0 24 2;
#X connect 22 0 0 0;
#X connect 24 0 1 0;
#X restore 218 464 pd reaonbp;
#N canvas 419 377 628 478 reaonbp 0;
#X obj 23 233 *;
#X obj -85 483 *~;
#X obj -142 87 log;
#X obj -147 142 *;
#X obj -150 116 t f f;
#X obj 85 157 pow -1;
#X obj 86 135 * -1;
#X obj 63 104 t f f;
#X obj 47 190 +;
#X obj 20 149 clip 0 16;
#X obj -211 198 *;
#X obj -165 257 *;
#X obj -139 229 float;
#X obj -214 173 t f f b;
#X obj -372 170 inlet~;
#X obj 92 54 inlet;
#X obj -67 518 outlet~;
#X obj -249 62 inlet;
#X text -246 45 level (0..1);
#X obj -107 37 inlet;
#X text 90 39 ratio;
#X text -121 19 res/decay (1..10000);
#X obj -320 98 inlet;
#X text -322 79 freq;
#X obj -63 433 vcf~ 1;
#X connect 0 0 24 1;
#X connect 1 0 16 0;
#X connect 2 0 4 0;
#X connect 3 0 12 0;
#X connect 4 0 3 0;
#X connect 4 1 3 1;
#X connect 5 0 8 1;
#X connect 6 0 5 0;
#X connect 7 0 9 0;
#X connect 7 1 6 0;
#X connect 8 0 0 1;
#X connect 9 0 8 0;
#X connect 10 0 11 0;
#X connect 11 0 1 1;
#X connect 12 0 11 1;
#X connect 13 0 10 0;
#X connect 13 1 10 1;
#X connect 13 2 12 0;
#X connect 14 0 24 0;
#X connect 15 0 7 0;
#X connect 17 0 13 0;
#X connect 19 0 2 0;
#X connect 19 0 24 2;
#X connect 22 0 0 0;
#X connect 24 0 1 0;
#X restore 251 499 pd reaonbp;
#N canvas 419 377 628 478 reaonbp 0;
#X obj 23 233 *;
#X obj -85 483 *~;
#X obj -142 87 log;
#X obj -147 142 *;
#X obj -150 116 t f f;
#X obj 85 157 pow -1;
#X obj 86 135 * -1;
#X obj 63 104 t f f;
#X obj 47 190 +;
#X obj 20 149 clip 0 16;
#X obj -211 198 *;
#X obj -165 257 *;
#X obj -139 229 float;
#X obj -214 173 t f f b;
#X obj -372 170 inlet~;
#X obj 92 54 inlet;
#X obj -67 518 outlet~;
#X obj -249 62 inlet;
#X text -246 45 level (0..1);
#X obj -107 37 inlet;
#X text 90 39 ratio;
#X text -121 19 res/decay (1..10000);
#X obj -320 98 inlet;
#X text -322 79 freq;
#X obj -63 433 vcf~ 1;
#X connect 0 0 24 1;
#X connect 1 0 16 0;
#X connect 2 0 4 0;
#X connect 3 0 12 0;
#X connect 4 0 3 0;
#X connect 4 1 3 1;
#X connect 5 0 8 1;
#X connect 6 0 5 0;
#X connect 7 0 9 0;
#X connect 7 1 6 0;
#X connect 8 0 0 1;
#X connect 9 0 8 0;
#X connect 10 0 11 0;
#X connect 11 0 1 1;
#X connect 12 0 11 1;
#X connect 13 0 10 0;
#X connect 13 1 10 1;
#X connect 13 2 12 0;
#X connect 14 0 24 0;
#X connect 15 0 7 0;
#X connect 17 0 13 0;
#X connect 19 0 2 0;
#X connect 19 0 24 2;
#X connect 22 0 0 0;
#X connect 24 0 1 0;
#X restore 280 531 pd reaonbp;
#X obj 13 54 noise~;
#X obj 112 90 line~;
#X msg 72 38 0 10;
#X obj 114 42 float;
#X obj 90 -5 t b b f;
#X obj 99 121 *~;
#X obj 77 -42 inlet;
#X text 72 -59 trig 0..1;
#X connect 0 0 1 0;
#X connect 2 0 6 0;
#X connect 3 0 7 0;
#X connect 6 0 0 1;
#X connect 6 0 8 1;
#X connect 6 0 9 1;
#X connect 6 0 10 1;
#X connect 6 0 11 1;
#X connect 7 0 0 2;
#X connect 7 1 0 3;
#X connect 7 2 0 4;
#X connect 7 3 8 2;
#X connect 7 4 8 3;
#X connect 7 5 8 4;
#X connect 7 6 9 2;
#X connect 7 7 9 3;
#X connect 7 8 9 4;
#X connect 7 9 10 2;
#X connect 7 10 10 3;
#X connect 7 11 10 4;
#X connect 7 12 11 2;
#X connect 7 13 11 3;
#X connect 7 14 11 4;
#X connect 8 0 1 0;
#X connect 9 0 1 0;
#X connect 10 0 1 0;
#X connect 11 0 1 0;
#X connect 12 0 17 0;
#X connect 13 0 17 1;
#X connect 14 0 13 0;
#X connect 15 0 13 0;
#X connect 16 0 14 0;
#X connect 16 1 15 0;
#X connect 16 2 15 1;
#X connect 17 0 0 0;
#X connect 17 0 8 0;
#X connect 17 0 9 0;
#X connect 17 0 10 0;
#X connect 17 0 11 0;
#X connect 18 0 16 0;
#X restore -48 561 pd monomode;
#X obj 153 136 nbx 3 14 0 127 0 1 empty empty empty 0 -8 0 10 -262144
-1 -1 45 256;
#N canvas 1 82 844 677 monomode 0;
#N canvas 415 379 628 478 reaonbp 0;
#X obj 23 233 *;
#X obj -85 483 *~;
#X obj -142 87 log;
#X obj -147 142 *;
#X obj -150 116 t f f;
#X obj 85 157 pow -1;
#X obj 86 135 * -1;
#X obj 63 104 t f f;
#X obj 47 190 +;
#X obj 20 149 clip 0 16;
#X obj -211 198 *;
#X obj -165 257 *;
#X obj -139 229 float;
#X obj -214 173 t f f b;
#X obj -372 170 inlet~;
#X obj 92 54 inlet;
#X obj -67 518 outlet~;
#X obj -249 62 inlet;
#X text -246 45 level (0..1);
#X obj -107 37 inlet;
#X text 90 39 ratio;
#X text -121 19 res/decay (1..10000);
#X obj -320 98 inlet;
#X text -322 79 freq;
#X obj -63 433 vcf~ 1;
#X connect 0 0 24 1;
#X connect 1 0 16 0;
#X connect 2 0 4 0;
#X connect 3 0 12 0;
#X connect 4 0 3 0;
#X connect 4 1 3 1;
#X connect 5 0 8 1;
#X connect 6 0 5 0;
#X connect 7 0 9 0;
#X connect 7 1 6 0;
#X connect 8 0 0 1;
#X connect 9 0 8 0;
#X connect 10 0 11 0;
#X connect 11 0 1 1;
#X connect 12 0 11 1;
#X connect 13 0 10 0;
#X connect 13 1 10 1;
#X connect 13 2 12 0;
#X connect 14 0 24 0;
#X connect 15 0 7 0;
#X connect 17 0 13 0;
#X connect 19 0 2 0;
#X connect 19 0 24 2;
#X connect 22 0 0 0;
#X connect 24 0 1 0;
#X restore 151 393 pd reaonbp;
#X obj 204 589 outlet~;
#X obj 205 100 inlet;
#X obj 262 102 inlet;
#X text 204 81 pitch;
#X text 262 81 params;
#X obj 184 137 mtof;
#X obj 258 323 unpack f f f f f f f f f f f f f f f;
#N canvas 419 377 628 478 reaonbp 0;
#X obj 23 233 *;
#X obj -85 483 *~;
#X obj -142 87 log;
#X obj -147 142 *;
#X obj -150 116 t f f;
#X obj 85 157 pow -1;
#X obj 86 135 * -1;
#X obj 63 104 t f f;
#X obj 47 190 +;
#X obj 20 149 clip 0 16;
#X obj -211 198 *;
#X obj -165 257 *;
#X obj -139 229 float;
#X obj -214 173 t f f b;
#X obj -372 170 inlet~;
#X obj 92 54 inlet;
#X obj -67 518 outlet~;
#X obj -249 62 inlet;
#X text -246 45 level (0..1);
#X obj -107 37 inlet;
#X text 90 39 ratio;
#X text -121 19 res/decay (1..10000);
#X obj -320 98 inlet;
#X text -322 79 freq;
#X obj -63 433 vcf~ 1;
#X connect 0 0 24 1;
#X connect 1 0 16 0;
#X connect 2 0 4 0;
#X connect 3 0 12 0;
#X connect 4 0 3 0;
#X connect 4 1 3 1;
#X connect 5 0 8 1;
#X connect 6 0 5 0;
#X connect 7 0 9 0;
#X connect 7 1 6 0;
#X connect 8 0 0 1;
#X connect 9 0 8 0;
#X connect 10 0 11 0;
#X connect 11 0 1 1;
#X connect 12 0 11 1;
#X connect 13 0 10 0;
#X connect 13 1 10 1;
#X connect 13 2 12 0;
#X connect 14 0 24 0;
#X connect 15 0 7 0;
#X connect 17 0 13 0;
#X connect 19 0 2 0;
#X connect 19 0 24 2;
#X connect 22 0 0 0;
#X connect 24 0 1 0;
#X restore 184 428 pd reaonbp;
#N canvas 417 378 628 478 reaonbp 0;
#X obj 23 233 *;
#X obj -85 483 *~;
#X obj -142 87 log;
#X obj -147 142 *;
#X obj -150 116 t f f;
#X obj 85 157 pow -1;
#X obj 86 135 * -1;
#X obj 63 104 t f f;
#X obj 47 190 +;
#X obj 20 149 clip 0 16;
#X obj -211 198 *;
#X obj -165 257 *;
#X obj -139 229 float;
#X obj -214 173 t f f b;
#X obj -372 170 inlet~;
#X obj 92 54 inlet;
#X obj -67 518 outlet~;
#X obj -249 62 inlet;
#X text -246 45 level (0..1);
#X obj -107 37 inlet;
#X text 90 39 ratio;
#X text -121 19 res/decay (1..10000);
#X obj -320 98 inlet;
#X text -322 79 freq;
#X obj -63 433 vcf~ 1;
#X connect 0 0 24 1;
#X connect 1 0 16 0;
#X connect 2 0 4 0;
#X connect 3 0 12 0;
#X connect 4 0 3 0;
#X connect 4 1 3 1;
#X connect 5 0 8 1;
#X connect 6 0 5 0;
#X connect 7 0 9 0;
#X connect 7 1 6 0;
#X connect 8 0 0 1;
#X connect 9 0 8 0;
#X connect 10 0 11 0;
#X connect 11 0 1 1;
#X connect 12 0 11 1;
#X connect 13 0 10 0;
#X connect 13 1 10 1;
#X connect 13 2 12 0;
#X connect 14 0 24 0;
#X connect 15 0 7 0;
#X connect 17 0 13 0;
#X connect 19 0 2 0;
#X connect 19 0 24 2;
#X connect 22 0 0 0;
#X connect 24 0 1 0;
#X restore 218 464 pd reaonbp;
#N canvas 419 377 628 478 reaonbp 0;
#X obj 23 233 *;
#X obj -85 483 *~;
#X obj -142 87 log;
#X obj -147 142 *;
#X obj -150 116 t f f;
#X obj 85 157 pow -1;
#X obj 86 135 * -1;
#X obj 63 104 t f f;
#X obj 47 190 +;
#X obj 20 149 clip 0 16;
#X obj -211 198 *;
#X obj -165 257 *;
#X obj -139 229 float;
#X obj -214 173 t f f b;
#X obj -372 170 inlet~;
#X obj 92 54 inlet;
#X obj -67 518 outlet~;
#X obj -249 62 inlet;
#X text -246 45 level (0..1);
#X obj -107 37 inlet;
#X text 90 39 ratio;
#X text -121 19 res/decay (1..10000);
#X obj -320 98 inlet;
#X text -322 79 freq;
#X obj -63 433 vcf~ 1;
#X connect 0 0 24 1;
#X connect 1 0 16 0;
#X connect 2 0 4 0;
#X connect 3 0 12 0;
#X connect 4 0 3 0;
#X connect 4 1 3 1;
#X connect 5 0 8 1;
#X connect 6 0 5 0;
#X connect 7 0 9 0;
#X connect 7 1 6 0;
#X connect 8 0 0 1;
#X connect 9 0 8 0;
#X connect 10 0 11 0;
#X connect 11 0 1 1;
#X connect 12 0 11 1;
#X connect 13 0 10 0;
#X connect 13 1 10 1;
#X connect 13 2 12 0;
#X connect 14 0 24 0;
#X connect 15 0 7 0;
#X connect 17 0 13 0;
#X connect 19 0 2 0;
#X connect 19 0 24 2;
#X connect 22 0 0 0;
#X connect 24 0 1 0;
#X restore 251 499 pd reaonbp;
#N canvas 419 377 628 478 reaonbp 0;
#X obj 23 233 *;
#X obj -85 483 *~;
#X obj -142 87 log;
#X obj -147 142 *;
#X obj -150 116 t f f;
#X obj 85 157 pow -1;
#X obj 86 135 * -1;
#X obj 63 104 t f f;
#X obj 47 190 +;
#X obj 20 149 clip 0 16;
#X obj -211 198 *;
#X obj -165 257 *;
#X obj -139 229 float;
#X obj -214 173 t f f b;
#X obj -372 170 inlet~;
#X obj 92 54 inlet;
#X obj -67 518 outlet~;
#X obj -249 62 inlet;
#X text -246 45 level (0..1);
#X obj -107 37 inlet;
#X text 90 39 ratio;
#X text -121 19 res/decay (1..10000);
#X obj -320 98 inlet;
#X text -322 79 freq;
#X obj -63 433 vcf~ 1;
#X connect 0 0 24 1;
#X connect 1 0 16 0;
#X connect 2 0 4 0;
#X connect 3 0 12 0;
#X connect 4 0 3 0;
#X connect 4 1 3 1;
#X connect 5 0 8 1;
#X connect 6 0 5 0;
#X connect 7 0 9 0;
#X connect 7 1 6 0;
#X connect 8 0 0 1;
#X connect 9 0 8 0;
#X connect 10 0 11 0;
#X connect 11 0 1 1;
#X connect 12 0 11 1;
#X connect 13 0 10 0;
#X connect 13 1 10 1;
#X connect 13 2 12 0;
#X connect 14 0 24 0;
#X connect 15 0 7 0;
#X connect 17 0 13 0;
#X connect 19 0 2 0;
#X connect 19 0 24 2;
#X connect 22 0 0 0;
#X connect 24 0 1 0;
#X restore 280 531 pd reaonbp;
#X obj 13 54 noise~;
#X obj 112 90 line~;
#X msg 72 38 0 10;
#X obj 114 42 float;
#X obj 90 -5 t b b f;
#X obj 99 121 *~;
#X obj 77 -42 inlet;
#X text 72 -59 trig 0..1;
#X connect 0 0 1 0;
#X connect 2 0 6 0;
#X connect 3 0 7 0;
#X connect 6 0 0 1;
#X connect 6 0 8 1;
#X connect 6 0 9 1;
#X connect 6 0 10 1;
#X connect 6 0 11 1;
#X connect 7 0 0 2;
#X connect 7 1 0 3;
#X connect 7 2 0 4;
#X connect 7 3 8 2;
#X connect 7 4 8 3;
#X connect 7 5 8 4;
#X connect 7 6 9 2;
#X connect 7 7 9 3;
#X connect 7 8 9 4;
#X connect 7 9 10 2;
#X connect 7 10 10 3;
#X connect 7 11 10 4;
#X connect 7 12 11 2;
#X connect 7 13 11 3;
#X connect 7 14 11 4;
#X connect 8 0 1 0;
#X connect 9 0 1 0;
#X connect 10 0 1 0;
#X connect 11 0 1 0;
#X connect 12 0 17 0;
#X connect 13 0 17 1;
#X connect 14 0 13 0;
#X connect 15 0 13 0;
#X connect 16 0 14 0;
#X connect 16 1 15 0;
#X connect 16 2 15 1;
#X connect 17 0 0 0;
#X connect 17 0 8 0;
#X connect 17 0 9 0;
#X connect 17 0 10 0;
#X connect 17 0 11 0;
#X connect 18 0 16 0;
#X restore -30 590 pd monomode;
#X obj 153 156 nbx 3 14 0 127 0 1 empty empty empty 0 -8 0 10 -262144
-1 -1 45 256;
#N canvas 1 82 844 677 monomode 0;
#N canvas 415 379 628 478 reaonbp 0;
#X obj 23 233 *;
#X obj -85 483 *~;
#X obj -142 87 log;
#X obj -147 142 *;
#X obj -150 116 t f f;
#X obj 85 157 pow -1;
#X obj 86 135 * -1;
#X obj 63 104 t f f;
#X obj 47 190 +;
#X obj 20 149 clip 0 16;
#X obj -211 198 *;
#X obj -165 257 *;
#X obj -139 229 float;
#X obj -214 173 t f f b;
#X obj -372 170 inlet~;
#X obj 92 54 inlet;
#X obj -67 518 outlet~;
#X obj -249 62 inlet;
#X text -246 45 level (0..1);
#X obj -107 37 inlet;
#X text 90 39 ratio;
#X text -121 19 res/decay (1..10000);
#X obj -320 98 inlet;
#X text -322 79 freq;
#X obj -63 433 vcf~ 1;
#X connect 0 0 24 1;
#X connect 1 0 16 0;
#X connect 2 0 4 0;
#X connect 3 0 12 0;
#X connect 4 0 3 0;
#X connect 4 1 3 1;
#X connect 5 0 8 1;
#X connect 6 0 5 0;
#X connect 7 0 9 0;
#X connect 7 1 6 0;
#X connect 8 0 0 1;
#X connect 9 0 8 0;
#X connect 10 0 11 0;
#X connect 11 0 1 1;
#X connect 12 0 11 1;
#X connect 13 0 10 0;
#X connect 13 1 10 1;
#X connect 13 2 12 0;
#X connect 14 0 24 0;
#X connect 15 0 7 0;
#X connect 17 0 13 0;
#X connect 19 0 2 0;
#X connect 19 0 24 2;
#X connect 22 0 0 0;
#X connect 24 0 1 0;
#X restore 151 393 pd reaonbp;
#X obj 204 589 outlet~;
#X obj 205 100 inlet;
#X obj 262 102 inlet;
#X text 204 81 pitch;
#X text 262 81 params;
#X obj 184 137 mtof;
#X obj 258 323 unpack f f f f f f f f f f f f f f f;
#N canvas 419 377 628 478 reaonbp 0;
#X obj 23 233 *;
#X obj -85 483 *~;
#X obj -142 87 log;
#X obj -147 142 *;
#X obj -150 116 t f f;
#X obj 85 157 pow -1;
#X obj 86 135 * -1;
#X obj 63 104 t f f;
#X obj 47 190 +;
#X obj 20 149 clip 0 16;
#X obj -211 198 *;
#X obj -165 257 *;
#X obj -139 229 float;
#X obj -214 173 t f f b;
#X obj -372 170 inlet~;
#X obj 92 54 inlet;
#X obj -67 518 outlet~;
#X obj -249 62 inlet;
#X text -246 45 level (0..1);
#X obj -107 37 inlet;
#X text 90 39 ratio;
#X text -121 19 res/decay (1..10000);
#X obj -320 98 inlet;
#X text -322 79 freq;
#X obj -63 433 vcf~ 1;
#X connect 0 0 24 1;
#X connect 1 0 16 0;
#X connect 2 0 4 0;
#X connect 3 0 12 0;
#X connect 4 0 3 0;
#X connect 4 1 3 1;
#X connect 5 0 8 1;
#X connect 6 0 5 0;
#X connect 7 0 9 0;
#X connect 7 1 6 0;
#X connect 8 0 0 1;
#X connect 9 0 8 0;
#X connect 10 0 11 0;
#X connect 11 0 1 1;
#X connect 12 0 11 1;
#X connect 13 0 10 0;
#X connect 13 1 10 1;
#X connect 13 2 12 0;
#X connect 14 0 24 0;
#X connect 15 0 7 0;
#X connect 17 0 13 0;
#X connect 19 0 2 0;
#X connect 19 0 24 2;
#X connect 22 0 0 0;
#X connect 24 0 1 0;
#X restore 184 428 pd reaonbp;
#N canvas 417 378 628 478 reaonbp 0;
#X obj 23 233 *;
#X obj -85 483 *~;
#X obj -142 87 log;
#X obj -147 142 *;
#X obj -150 116 t f f;
#X obj 85 157 pow -1;
#X obj 86 135 * -1;
#X obj 63 104 t f f;
#X obj 47 190 +;
#X obj 20 149 clip 0 16;
#X obj -211 198 *;
#X obj -165 257 *;
#X obj -139 229 float;
#X obj -214 173 t f f b;
#X obj -372 170 inlet~;
#X obj 92 54 inlet;
#X obj -67 518 outlet~;
#X obj -249 62 inlet;
#X text -246 45 level (0..1);
#X obj -107 37 inlet;
#X text 90 39 ratio;
#X text -121 19 res/decay (1..10000);
#X obj -320 98 inlet;
#X text -322 79 freq;
#X obj -63 433 vcf~ 1;
#X connect 0 0 24 1;
#X connect 1 0 16 0;
#X connect 2 0 4 0;
#X connect 3 0 12 0;
#X connect 4 0 3 0;
#X connect 4 1 3 1;
#X connect 5 0 8 1;
#X connect 6 0 5 0;
#X connect 7 0 9 0;
#X connect 7 1 6 0;
#X connect 8 0 0 1;
#X connect 9 0 8 0;
#X connect 10 0 11 0;
#X connect 11 0 1 1;
#X connect 12 0 11 1;
#X connect 13 0 10 0;
#X connect 13 1 10 1;
#X connect 13 2 12 0;
#X connect 14 0 24 0;
#X connect 15 0 7 0;
#X connect 17 0 13 0;
#X connect 19 0 2 0;
#X connect 19 0 24 2;
#X connect 22 0 0 0;
#X connect 24 0 1 0;
#X restore 218 464 pd reaonbp;
#N canvas 419 377 628 478 reaonbp 0;
#X obj 23 233 *;
#X obj -85 483 *~;
#X obj -142 87 log;
#X obj -147 142 *;
#X obj -150 116 t f f;
#X obj 85 157 pow -1;
#X obj 86 135 * -1;
#X obj 63 104 t f f;
#X obj 47 190 +;
#X obj 20 149 clip 0 16;
#X obj -211 198 *;
#X obj -165 257 *;
#X obj -139 229 float;
#X obj -214 173 t f f b;
#X obj -372 170 inlet~;
#X obj 92 54 inlet;
#X obj -67 518 outlet~;
#X obj -249 62 inlet;
#X text -246 45 level (0..1);
#X obj -107 37 inlet;
#X text 90 39 ratio;
#X text -121 19 res/decay (1..10000);
#X obj -320 98 inlet;
#X text -322 79 freq;
#X obj -63 433 vcf~ 1;
#X connect 0 0 24 1;
#X connect 1 0 16 0;
#X connect 2 0 4 0;
#X connect 3 0 12 0;
#X connect 4 0 3 0;
#X connect 4 1 3 1;
#X connect 5 0 8 1;
#X connect 6 0 5 0;
#X connect 7 0 9 0;
#X connect 7 1 6 0;
#X connect 8 0 0 1;
#X connect 9 0 8 0;
#X connect 10 0 11 0;
#X connect 11 0 1 1;
#X connect 12 0 11 1;
#X connect 13 0 10 0;
#X connect 13 1 10 1;
#X connect 13 2 12 0;
#X connect 14 0 24 0;
#X connect 15 0 7 0;
#X connect 17 0 13 0;
#X connect 19 0 2 0;
#X connect 19 0 24 2;
#X connect 22 0 0 0;
#X connect 24 0 1 0;
#X restore 251 499 pd reaonbp;
#N canvas 419 377 628 478 reaonbp 0;
#X obj 23 233 *;
#X obj -85 483 *~;
#X obj -142 87 log;
#X obj -147 142 *;
#X obj -150 116 t f f;
#X obj 85 157 pow -1;
#X obj 86 135 * -1;
#X obj 63 104 t f f;
#X obj 47 190 +;
#X obj 20 149 clip 0 16;
#X obj -211 198 *;
#X obj -165 257 *;
#X obj -139 229 float;
#X obj -214 173 t f f b;
#X obj -372 170 inlet~;
#X obj 92 54 inlet;
#X obj -67 518 outlet~;
#X obj -249 62 inlet;
#X text -246 45 level (0..1);
#X obj -107 37 inlet;
#X text 90 39 ratio;
#X text -121 19 res/decay (1..10000);
#X obj -320 98 inlet;
#X text -322 79 freq;
#X obj -63 433 vcf~ 1;
#X connect 0 0 24 1;
#X connect 1 0 16 0;
#X connect 2 0 4 0;
#X connect 3 0 12 0;
#X connect 4 0 3 0;
#X connect 4 1 3 1;
#X connect 5 0 8 1;
#X connect 6 0 5 0;
#X connect 7 0 9 0;
#X connect 7 1 6 0;
#X connect 8 0 0 1;
#X connect 9 0 8 0;
#X connect 10 0 11 0;
#X connect 11 0 1 1;
#X connect 12 0 11 1;
#X connect 13 0 10 0;
#X connect 13 1 10 1;
#X connect 13 2 12 0;
#X connect 14 0 24 0;
#X connect 15 0 7 0;
#X connect 17 0 13 0;
#X connect 19 0 2 0;
#X connect 19 0 24 2;
#X connect 22 0 0 0;
#X connect 24 0 1 0;
#X restore 280 531 pd reaonbp;
#X obj 13 54 noise~;
#X obj 112 90 line~;
#X msg 72 38 0 10;
#X obj 114 42 float;
#X obj 90 -5 t b b f;
#X obj 99 121 *~;
#X obj 77 -42 inlet;
#X text 72 -59 trig 0..1;
#X connect 0 0 1 0;
#X connect 2 0 6 0;
#X connect 3 0 7 0;
#X connect 6 0 0 1;
#X connect 6 0 8 1;
#X connect 6 0 9 1;
#X connect 6 0 10 1;
#X connect 6 0 11 1;
#X connect 7 0 0 2;
#X connect 7 1 0 3;
#X connect 7 2 0 4;
#X connect 7 3 8 2;
#X connect 7 4 8 3;
#X connect 7 5 8 4;
#X connect 7 6 9 2;
#X connect 7 7 9 3;
#X connect 7 8 9 4;
#X connect 7 9 10 2;
#X connect 7 10 10 3;
#X connect 7 11 10 4;
#X connect 7 12 11 2;
#X connect 7 13 11 3;
#X connect 7 14 11 4;
#X connect 8 0 1 0;
#X connect 9 0 1 0;
#X connect 10 0 1 0;
#X connect 11 0 1 0;
#X connect 12 0 17 0;
#X connect 13 0 17 1;
#X connect 14 0 13 0;
#X connect 15 0 13 0;
#X connect 16 0 14 0;
#X connect 16 1 15 0;
#X connect 16 2 15 1;
#X connect 17 0 0 0;
#X connect 17 0 8 0;
#X connect 17 0 9 0;
#X connect 17 0 10 0;
#X connect 17 0 11 0;
#X connect 18 0 16 0;
#X restore 36 619 pd monomode;
#X obj 198 116 nbx 3 14 0 127 0 1 empty empty empty 0 -8 0 10 -262144
-1 -1 38 256;
#N canvas 1 82 844 677 monomode 0;
#N canvas 415 379 628 478 reaonbp 0;
#X obj 23 233 *;
#X obj -85 483 *~;
#X obj -142 87 log;
#X obj -147 142 *;
#X obj -150 116 t f f;
#X obj 85 157 pow -1;
#X obj 86 135 * -1;
#X obj 63 104 t f f;
#X obj 47 190 +;
#X obj 20 149 clip 0 16;
#X obj -211 198 *;
#X obj -165 257 *;
#X obj -139 229 float;
#X obj -214 173 t f f b;
#X obj -372 170 inlet~;
#X obj 92 54 inlet;
#X obj -67 518 outlet~;
#X obj -249 62 inlet;
#X text -246 45 level (0..1);
#X obj -107 37 inlet;
#X text 90 39 ratio;
#X text -121 19 res/decay (1..10000);
#X obj -320 98 inlet;
#X text -322 79 freq;
#X obj -63 433 vcf~ 1;
#X connect 0 0 24 1;
#X connect 1 0 16 0;
#X connect 2 0 4 0;
#X connect 3 0 12 0;
#X connect 4 0 3 0;
#X connect 4 1 3 1;
#X connect 5 0 8 1;
#X connect 6 0 5 0;
#X connect 7 0 9 0;
#X connect 7 1 6 0;
#X connect 8 0 0 1;
#X connect 9 0 8 0;
#X connect 10 0 11 0;
#X connect 11 0 1 1;
#X connect 12 0 11 1;
#X connect 13 0 10 0;
#X connect 13 1 10 1;
#X connect 13 2 12 0;
#X connect 14 0 24 0;
#X connect 15 0 7 0;
#X connect 17 0 13 0;
#X connect 19 0 2 0;
#X connect 19 0 24 2;
#X connect 22 0 0 0;
#X connect 24 0 1 0;
#X restore 151 393 pd reaonbp;
#X obj 204 589 outlet~;
#X obj 205 100 inlet;
#X obj 262 102 inlet;
#X text 204 81 pitch;
#X text 262 81 params;
#X obj 184 137 mtof;
#X obj 258 323 unpack f f f f f f f f f f f f f f f;
#N canvas 419 377 628 478 reaonbp 0;
#X obj 23 233 *;
#X obj -85 483 *~;
#X obj -142 87 log;
#X obj -147 142 *;
#X obj -150 116 t f f;
#X obj 85 157 pow -1;
#X obj 86 135 * -1;
#X obj 63 104 t f f;
#X obj 47 190 +;
#X obj 20 149 clip 0 16;
#X obj -211 198 *;
#X obj -165 257 *;
#X obj -139 229 float;
#X obj -214 173 t f f b;
#X obj -372 170 inlet~;
#X obj 92 54 inlet;
#X obj -67 518 outlet~;
#X obj -249 62 inlet;
#X text -246 45 level (0..1);
#X obj -107 37 inlet;
#X text 90 39 ratio;
#X text -121 19 res/decay (1..10000);
#X obj -320 98 inlet;
#X text -322 79 freq;
#X obj -63 433 vcf~ 1;
#X connect 0 0 24 1;
#X connect 1 0 16 0;
#X connect 2 0 4 0;
#X connect 3 0 12 0;
#X connect 4 0 3 0;
#X connect 4 1 3 1;
#X connect 5 0 8 1;
#X connect 6 0 5 0;
#X connect 7 0 9 0;
#X connect 7 1 6 0;
#X connect 8 0 0 1;
#X connect 9 0 8 0;
#X connect 10 0 11 0;
#X connect 11 0 1 1;
#X connect 12 0 11 1;
#X connect 13 0 10 0;
#X connect 13 1 10 1;
#X connect 13 2 12 0;
#X connect 14 0 24 0;
#X connect 15 0 7 0;
#X connect 17 0 13 0;
#X connect 19 0 2 0;
#X connect 19 0 24 2;
#X connect 22 0 0 0;
#X connect 24 0 1 0;
#X restore 184 428 pd reaonbp;
#N canvas 417 378 628 478 reaonbp 0;
#X obj 23 233 *;
#X obj -85 483 *~;
#X obj -142 87 log;
#X obj -147 142 *;
#X obj -150 116 t f f;
#X obj 85 157 pow -1;
#X obj 86 135 * -1;
#X obj 63 104 t f f;
#X obj 47 190 +;
#X obj 20 149 clip 0 16;
#X obj -211 198 *;
#X obj -165 257 *;
#X obj -139 229 float;
#X obj -214 173 t f f b;
#X obj -372 170 inlet~;
#X obj 92 54 inlet;
#X obj -67 518 outlet~;
#X obj -249 62 inlet;
#X text -246 45 level (0..1);
#X obj -107 37 inlet;
#X text 90 39 ratio;
#X text -121 19 res/decay (1..10000);
#X obj -320 98 inlet;
#X text -322 79 freq;
#X obj -63 433 vcf~ 1;
#X connect 0 0 24 1;
#X connect 1 0 16 0;
#X connect 2 0 4 0;
#X connect 3 0 12 0;
#X connect 4 0 3 0;
#X connect 4 1 3 1;
#X connect 5 0 8 1;
#X connect 6 0 5 0;
#X connect 7 0 9 0;
#X connect 7 1 6 0;
#X connect 8 0 0 1;
#X connect 9 0 8 0;
#X connect 10 0 11 0;
#X connect 11 0 1 1;
#X connect 12 0 11 1;
#X connect 13 0 10 0;
#X connect 13 1 10 1;
#X connect 13 2 12 0;
#X connect 14 0 24 0;
#X connect 15 0 7 0;
#X connect 17 0 13 0;
#X connect 19 0 2 0;
#X connect 19 0 24 2;
#X connect 22 0 0 0;
#X connect 24 0 1 0;
#X restore 218 464 pd reaonbp;
#N canvas 419 377 628 478 reaonbp 0;
#X obj 23 233 *;
#X obj -85 483 *~;
#X obj -142 87 log;
#X obj -147 142 *;
#X obj -150 116 t f f;
#X obj 85 157 pow -1;
#X obj 86 135 * -1;
#X obj 63 104 t f f;
#X obj 47 190 +;
#X obj 20 149 clip 0 16;
#X obj -211 198 *;
#X obj -165 257 *;
#X obj -139 229 float;
#X obj -214 173 t f f b;
#X obj -372 170 inlet~;
#X obj 92 54 inlet;
#X obj -67 518 outlet~;
#X obj -249 62 inlet;
#X text -246 45 level (0..1);
#X obj -107 37 inlet;
#X text 90 39 ratio;
#X text -121 19 res/decay (1..10000);
#X obj -320 98 inlet;
#X text -322 79 freq;
#X obj -63 433 vcf~ 1;
#X connect 0 0 24 1;
#X connect 1 0 16 0;
#X connect 2 0 4 0;
#X connect 3 0 12 0;
#X connect 4 0 3 0;
#X connect 4 1 3 1;
#X connect 5 0 8 1;
#X connect 6 0 5 0;
#X connect 7 0 9 0;
#X connect 7 1 6 0;
#X connect 8 0 0 1;
#X connect 9 0 8 0;
#X connect 10 0 11 0;
#X connect 11 0 1 1;
#X connect 12 0 11 1;
#X connect 13 0 10 0;
#X connect 13 1 10 1;
#X connect 13 2 12 0;
#X connect 14 0 24 0;
#X connect 15 0 7 0;
#X connect 17 0 13 0;
#X connect 19 0 2 0;
#X connect 19 0 24 2;
#X connect 22 0 0 0;
#X connect 24 0 1 0;
#X restore 251 499 pd reaonbp;
#N canvas 419 377 628 478 reaonbp 0;
#X obj 23 233 *;
#X obj -85 483 *~;
#X obj -142 87 log;
#X obj -147 142 *;
#X obj -150 116 t f f;
#X obj 85 157 pow -1;
#X obj 86 135 * -1;
#X obj 63 104 t f f;
#X obj 47 190 +;
#X obj 20 149 clip 0 16;
#X obj -211 198 *;
#X obj -165 257 *;
#X obj -139 229 float;
#X obj -214 173 t f f b;
#X obj -372 170 inlet~;
#X obj 92 54 inlet;
#X obj -67 518 outlet~;
#X obj -249 62 inlet;
#X text -246 45 level (0..1);
#X obj -107 37 inlet;
#X text 90 39 ratio;
#X text -121 19 res/decay (1..10000);
#X obj -320 98 inlet;
#X text -322 79 freq;
#X obj -63 433 vcf~ 1;
#X connect 0 0 24 1;
#X connect 1 0 16 0;
#X connect 2 0 4 0;
#X connect 3 0 12 0;
#X connect 4 0 3 0;
#X connect 4 1 3 1;
#X connect 5 0 8 1;
#X connect 6 0 5 0;
#X connect 7 0 9 0;
#X connect 7 1 6 0;
#X connect 8 0 0 1;
#X connect 9 0 8 0;
#X connect 10 0 11 0;
#X connect 11 0 1 1;
#X connect 12 0 11 1;
#X connect 13 0 10 0;
#X connect 13 1 10 1;
#X connect 13 2 12 0;
#X connect 14 0 24 0;
#X connect 15 0 7 0;
#X connect 17 0 13 0;
#X connect 19 0 2 0;
#X connect 19 0 24 2;
#X connect 22 0 0 0;
#X connect 24 0 1 0;
#X restore 280 531 pd reaonbp;
#X obj 13 54 noise~;
#X obj 112 90 line~;
#X msg 72 38 0 10;
#X obj 114 42 float;
#X obj 90 -5 t b b f;
#X obj 99 121 *~;
#X obj 77 -42 inlet;
#X text 72 -59 trig 0..1;
#X connect 0 0 1 0;
#X connect 2 0 6 0;
#X connect 3 0 7 0;
#X connect 6 0 0 1;
#X connect 6 0 8 1;
#X connect 6 0 9 1;
#X connect 6 0 10 1;
#X connect 6 0 11 1;
#X connect 7 0 0 2;
#X connect 7 1 0 3;
#X connect 7 2 0 4;
#X connect 7 3 8 2;
#X connect 7 4 8 3;
#X connect 7 5 8 4;
#X connect 7 6 9 2;
#X connect 7 7 9 3;
#X connect 7 8 9 4;
#X connect 7 9 10 2;
#X connect 7 10 10 3;
#X connect 7 11 10 4;
#X connect 7 12 11 2;
#X connect 7 13 11 3;
#X connect 7 14 11 4;
#X connect 8 0 1 0;
#X connect 9 0 1 0;
#X connect 10 0 1 0;
#X connect 11 0 1 0;
#X connect 12 0 17 0;
#X connect 13 0 17 1;
#X connect 14 0 13 0;
#X connect 15 0 13 0;
#X connect 16 0 14 0;
#X connect 16 1 15 0;
#X connect 16 2 15 1;
#X connect 17 0 0 0;
#X connect 17 0 8 0;
#X connect 17 0 9 0;
#X connect 17 0 10 0;
#X connect 17 0 11 0;
#X connect 18 0 16 0;
#X restore 64 651 pd monomode;
#X obj 198 136 nbx 3 14 0 127 0 1 empty empty empty 0 -8 0 10 -262144
-1 -1 39 256;
#N canvas 1 82 844 677 monomode 0;
#N canvas 415 379 628 478 reaonbp 0;
#X obj 23 233 *;
#X obj -85 483 *~;
#X obj -142 87 log;
#X obj -147 142 *;
#X obj -150 116 t f f;
#X obj 85 157 pow -1;
#X obj 86 135 * -1;
#X obj 63 104 t f f;
#X obj 47 190 +;
#X obj 20 149 clip 0 16;
#X obj -211 198 *;
#X obj -165 257 *;
#X obj -139 229 float;
#X obj -214 173 t f f b;
#X obj -372 170 inlet~;
#X obj 92 54 inlet;
#X obj -67 518 outlet~;
#X obj -249 62 inlet;
#X text -246 45 level (0..1);
#X obj -107 37 inlet;
#X text 90 39 ratio;
#X text -121 19 res/decay (1..10000);
#X obj -320 98 inlet;
#X text -322 79 freq;
#X obj -63 433 vcf~ 1;
#X connect 0 0 24 1;
#X connect 1 0 16 0;
#X connect 2 0 4 0;
#X connect 3 0 12 0;
#X connect 4 0 3 0;
#X connect 4 1 3 1;
#X connect 5 0 8 1;
#X connect 6 0 5 0;
#X connect 7 0 9 0;
#X connect 7 1 6 0;
#X connect 8 0 0 1;
#X connect 9 0 8 0;
#X connect 10 0 11 0;
#X connect 11 0 1 1;
#X connect 12 0 11 1;
#X connect 13 0 10 0;
#X connect 13 1 10 1;
#X connect 13 2 12 0;
#X connect 14 0 24 0;
#X connect 15 0 7 0;
#X connect 17 0 13 0;
#X connect 19 0 2 0;
#X connect 19 0 24 2;
#X connect 22 0 0 0;
#X connect 24 0 1 0;
#X restore 151 393 pd reaonbp;
#X obj 204 589 outlet~;
#X obj 205 100 inlet;
#X obj 262 102 inlet;
#X text 204 81 pitch;
#X text 262 81 params;
#X obj 184 137 mtof;
#X obj 258 323 unpack f f f f f f f f f f f f f f f;
#N canvas 419 377 628 478 reaonbp 0;
#X obj 23 233 *;
#X obj -85 483 *~;
#X obj -142 87 log;
#X obj -147 142 *;
#X obj -150 116 t f f;
#X obj 85 157 pow -1;
#X obj 86 135 * -1;
#X obj 63 104 t f f;
#X obj 47 190 +;
#X obj 20 149 clip 0 16;
#X obj -211 198 *;
#X obj -165 257 *;
#X obj -139 229 float;
#X obj -214 173 t f f b;
#X obj -372 170 inlet~;
#X obj 92 54 inlet;
#X obj -67 518 outlet~;
#X obj -249 62 inlet;
#X text -246 45 level (0..1);
#X obj -107 37 inlet;
#X text 90 39 ratio;
#X text -121 19 res/decay (1..10000);
#X obj -320 98 inlet;
#X text -322 79 freq;
#X obj -63 433 vcf~ 1;
#X connect 0 0 24 1;
#X connect 1 0 16 0;
#X connect 2 0 4 0;
#X connect 3 0 12 0;
#X connect 4 0 3 0;
#X connect 4 1 3 1;
#X connect 5 0 8 1;
#X connect 6 0 5 0;
#X connect 7 0 9 0;
#X connect 7 1 6 0;
#X connect 8 0 0 1;
#X connect 9 0 8 0;
#X connect 10 0 11 0;
#X connect 11 0 1 1;
#X connect 12 0 11 1;
#X connect 13 0 10 0;
#X connect 13 1 10 1;
#X connect 13 2 12 0;
#X connect 14 0 24 0;
#X connect 15 0 7 0;
#X connect 17 0 13 0;
#X connect 19 0 2 0;
#X connect 19 0 24 2;
#X connect 22 0 0 0;
#X connect 24 0 1 0;
#X restore 184 428 pd reaonbp;
#N canvas 417 378 628 478 reaonbp 0;
#X obj 23 233 *;
#X obj -85 483 *~;
#X obj -142 87 log;
#X obj -147 142 *;
#X obj -150 116 t f f;
#X obj 85 157 pow -1;
#X obj 86 135 * -1;
#X obj 63 104 t f f;
#X obj 47 190 +;
#X obj 20 149 clip 0 16;
#X obj -211 198 *;
#X obj -165 257 *;
#X obj -139 229 float;
#X obj -214 173 t f f b;
#X obj -372 170 inlet~;
#X obj 92 54 inlet;
#X obj -67 518 outlet~;
#X obj -249 62 inlet;
#X text -246 45 level (0..1);
#X obj -107 37 inlet;
#X text 90 39 ratio;
#X text -121 19 res/decay (1..10000);
#X obj -320 98 inlet;
#X text -322 79 freq;
#X obj -63 433 vcf~ 1;
#X connect 0 0 24 1;
#X connect 1 0 16 0;
#X connect 2 0 4 0;
#X connect 3 0 12 0;
#X connect 4 0 3 0;
#X connect 4 1 3 1;
#X connect 5 0 8 1;
#X connect 6 0 5 0;
#X connect 7 0 9 0;
#X connect 7 1 6 0;
#X connect 8 0 0 1;
#X connect 9 0 8 0;
#X connect 10 0 11 0;
#X connect 11 0 1 1;
#X connect 12 0 11 1;
#X connect 13 0 10 0;
#X connect 13 1 10 1;
#X connect 13 2 12 0;
#X connect 14 0 24 0;
#X connect 15 0 7 0;
#X connect 17 0 13 0;
#X connect 19 0 2 0;
#X connect 19 0 24 2;
#X connect 22 0 0 0;
#X connect 24 0 1 0;
#X restore 218 464 pd reaonbp;
#N canvas 419 377 628 478 reaonbp 0;
#X obj 23 233 *;
#X obj -85 483 *~;
#X obj -142 87 log;
#X obj -147 142 *;
#X obj -150 116 t f f;
#X obj 85 157 pow -1;
#X obj 86 135 * -1;
#X obj 63 104 t f f;
#X obj 47 190 +;
#X obj 20 149 clip 0 16;
#X obj -211 198 *;
#X obj -165 257 *;
#X obj -139 229 float;
#X obj -214 173 t f f b;
#X obj -372 170 inlet~;
#X obj 92 54 inlet;
#X obj -67 518 outlet~;
#X obj -249 62 inlet;
#X text -246 45 level (0..1);
#X obj -107 37 inlet;
#X text 90 39 ratio;
#X text -121 19 res/decay (1..10000);
#X obj -320 98 inlet;
#X text -322 79 freq;
#X obj -63 433 vcf~ 1;
#X connect 0 0 24 1;
#X connect 1 0 16 0;
#X connect 2 0 4 0;
#X connect 3 0 12 0;
#X connect 4 0 3 0;
#X connect 4 1 3 1;
#X connect 5 0 8 1;
#X connect 6 0 5 0;
#X connect 7 0 9 0;
#X connect 7 1 6 0;
#X connect 8 0 0 1;
#X connect 9 0 8 0;
#X connect 10 0 11 0;
#X connect 11 0 1 1;
#X connect 12 0 11 1;
#X connect 13 0 10 0;
#X connect 13 1 10 1;
#X connect 13 2 12 0;
#X connect 14 0 24 0;
#X connect 15 0 7 0;
#X connect 17 0 13 0;
#X connect 19 0 2 0;
#X connect 19 0 24 2;
#X connect 22 0 0 0;
#X connect 24 0 1 0;
#X restore 251 499 pd reaonbp;
#N canvas 419 377 628 478 reaonbp 0;
#X obj 23 233 *;
#X obj -85 483 *~;
#X obj -142 87 log;
#X obj -147 142 *;
#X obj -150 116 t f f;
#X obj 85 157 pow -1;
#X obj 86 135 * -1;
#X obj 63 104 t f f;
#X obj 47 190 +;
#X obj 20 149 clip 0 16;
#X obj -211 198 *;
#X obj -165 257 *;
#X obj -139 229 float;
#X obj -214 173 t f f b;
#X obj -372 170 inlet~;
#X obj 92 54 inlet;
#X obj -67 518 outlet~;
#X obj -249 62 inlet;
#X text -246 45 level (0..1);
#X obj -107 37 inlet;
#X text 90 39 ratio;
#X text -121 19 res/decay (1..10000);
#X obj -320 98 inlet;
#X text -322 79 freq;
#X obj -63 433 vcf~ 1;
#X connect 0 0 24 1;
#X connect 1 0 16 0;
#X connect 2 0 4 0;
#X connect 3 0 12 0;
#X connect 4 0 3 0;
#X connect 4 1 3 1;
#X connect 5 0 8 1;
#X connect 6 0 5 0;
#X connect 7 0 9 0;
#X connect 7 1 6 0;
#X connect 8 0 0 1;
#X connect 9 0 8 0;
#X connect 10 0 11 0;
#X connect 11 0 1 1;
#X connect 12 0 11 1;
#X connect 13 0 10 0;
#X connect 13 1 10 1;
#X connect 13 2 12 0;
#X connect 14 0 24 0;
#X connect 15 0 7 0;
#X connect 17 0 13 0;
#X connect 19 0 2 0;
#X connect 19 0 24 2;
#X connect 22 0 0 0;
#X connect 24 0 1 0;
#X restore 280 531 pd reaonbp;
#X obj 13 54 noise~;
#X obj 112 90 line~;
#X msg 72 38 0 10;
#X obj 114 42 float;
#X obj 90 -5 t b b f;
#X obj 99 121 *~;
#X obj 77 -42 inlet;
#X text 72 -59 trig 0..1;
#X connect 0 0 1 0;
#X connect 2 0 6 0;
#X connect 3 0 7 0;
#X connect 6 0 0 1;
#X connect 6 0 8 1;
#X connect 6 0 9 1;
#X connect 6 0 10 1;
#X connect 6 0 11 1;
#X connect 7 0 0 2;
#X connect 7 1 0 3;
#X connect 7 2 0 4;
#X connect 7 3 8 2;
#X connect 7 4 8 3;
#X connect 7 5 8 4;
#X connect 7 6 9 2;
#X connect 7 7 9 3;
#X connect 7 8 9 4;
#X connect 7 9 10 2;
#X connect 7 10 10 3;
#X connect 7 11 10 4;
#X connect 7 12 11 2;
#X connect 7 13 11 3;
#X connect 7 14 11 4;
#X connect 8 0 1 0;
#X connect 9 0 1 0;
#X connect 10 0 1 0;
#X connect 11 0 1 0;
#X connect 12 0 17 0;
#X connect 13 0 17 1;
#X connect 14 0 13 0;
#X connect 15 0 13 0;
#X connect 16 0 14 0;
#X connect 16 1 15 0;
#X connect 16 2 15 1;
#X connect 17 0 0 0;
#X connect 17 0 8 0;
#X connect 17 0 9 0;
#X connect 17 0 10 0;
#X connect 17 0 11 0;
#X connect 18 0 16 0;
#X restore 82 680 pd monomode;
#X obj 198 156 nbx 3 14 0 127 0 1 empty empty empty 0 -8 0 10 -262144
-1 -1 47 256;
#X obj 471 16 / 1000;
#X obj 473 -6 random 1000;
#X obj 475 63 / 1000;
#X obj 477 41 random 1000;
#X obj 485 111 / 1000;
#X obj 487 89 random 1000;
#X obj -99 746 outlet~;
#X obj -315 131 inlet;
#X obj 68 381 delay 3;
#X obj -276 130 inlet;
#X obj -235 130 inlet;
#X obj -208 160 inlet;
#X obj -169 159 inlet;
#X obj -128 159 inlet;
#X obj -80 185 inlet;
#X obj -41 184 inlet;
#X obj 0 184 inlet;
#X obj 366 -191 unpack f f f f f f f f f;
#X obj 372 -225 inlet;
#X text -191 129 triggers (0..1);
#X text 266 -155 scale;
#X obj 459 -164 inlet;
#X text 460 -183 tp;
#X obj -125 334 +;
#X obj -95 362 +;
#X obj -59 389 +;
#X obj 4 268 t b f;
#X obj -7 447 +;
#X obj 23 475 +;
#X obj 59 502 +;
#X obj 83 569 +;
#X obj 113 597 +;
#X obj 149 624 +;
#X obj -3 -399 random 32;
#X obj 5 -331 - 16;
#X msg 219 -450 32;
#X obj 237 -418 /;
#X obj 265 -448 pow -1;
#X obj 225 -479 t b f;
#X obj 42 -375 t f f;
#X obj 41 -352 * 0.5;
#X obj 6 -309 /;
#X obj 14 -286 +;
#X obj 4 -427 t b b;
#X obj 258 122 nbx 3 14 1 8 0 1 empty empty rat -20 7 0 10 -262144
-1 -1 8 256;
#X obj 318 122 nbx 3 14 0 99 0 1 empty empty fin -20 7 0 10 -262144
-1 -1 99 256;
#X obj 184 -367 * 10;
#X obj 66 -328 random;
#X obj -114 -333 random 32;
#X obj -106 -265 - 16;
#X obj -69 -309 t f f;
#X obj -70 -286 * 0.5;
#X obj -105 -243 /;
#X obj -97 -220 +;
#X obj -107 -361 t b b;
#X obj -45 -262 random;
#X obj 58 -300 / 10000;
#X obj -53 -234 / 10000;
#X obj -190 -248 random 32;
#X obj -182 -180 - 16;
#X obj -145 -224 t f f;
#X obj -146 -201 * 0.5;
#X obj -181 -158 /;
#X obj -173 -135 +;
#X obj -183 -276 t b b;
#X obj -121 -177 random;
#X obj -129 -149 / 10000;
#X obj -271 -162 random 32;
#X obj -263 -94 - 16;
#X obj -226 -138 t f f;
#X obj -227 -115 * 0.5;
#X obj -262 -72 /;
#X obj -254 -49 +;
#X obj -264 -190 t b b;
#X obj -202 -91 random;
#X obj -210 -63 / 10000;
#X obj -347 -77 random 32;
#X obj -339 -9 - 16;
#X obj -302 -53 t f f;
#X obj -303 -30 * 0.5;
#X obj -338 13 /;
#X obj -330 36 +;
#X obj -340 -105 t b b;
#X obj -278 -6 random;
#X obj -286 22 / 10000;
#X text -190 -399 random ratios;
#X text 499 -137 random levels;
#X connect 0 0 25 0;
#X connect 1 0 18 1;
#X connect 1 0 50 0;
#X connect 2 0 18 2;
#X connect 2 0 50 0;
#X connect 3 0 17 1;
#X connect 3 0 50 0;
#X connect 4 0 18 4;
#X connect 4 0 50 0;
#X connect 5 0 18 5;
#X connect 5 0 50 0;
#X connect 6 0 18 3;
#X connect 6 0 50 0;
#X connect 7 0 18 7;
#X connect 7 0 50 0;
#X connect 8 0 18 8;
#X connect 8 0 50 0;
#X connect 9 0 18 6;
#X connect 9 0 50 0;
#X connect 10 0 18 10;
#X connect 10 0 50 0;
#X connect 11 0 18 11;
#X connect 11 0 50 0;
#X connect 12 0 18 9;
#X connect 12 0 50 0;
#X connect 13 0 18 13;
#X connect 13 0 50 0;
#X connect 14 0 18 14;
#X connect 14 0 50 0;
#X connect 15 0 18 12;
#X connect 15 0 50 0;
#X connect 16 0 85 0;
#X connect 16 0 96 0;
#X connect 16 0 106 0;
#X connect 16 0 115 0;
#X connect 16 0 124 0;
#X connect 17 0 18 0;
#X connect 18 0 0 2;
#X connect 18 0 26 2;
#X connect 18 0 28 2;
#X connect 18 0 30 2;
#X connect 18 0 32 2;
#X connect 18 0 34 2;
#X connect 18 0 36 2;
#X connect 18 0 38 2;
#X connect 18 0 40 2;
#X connect 19 0 21 0;
#X connect 19 0 23 0;
#X connect 19 0 43 0;
#X connect 19 0 45 0;
#X connect 19 0 47 0;
#X connect 20 0 3 0;
#X connect 21 0 20 0;
#X connect 22 0 6 0;
#X connect 23 0 22 0;
#X connect 24 0 65 0;
#X connect 25 0 48 0;
#X connect 26 0 25 0;
#X connect 27 0 66 0;
#X connect 28 0 25 0;
#X connect 29 0 67 0;
#X connect 30 0 25 0;
#X connect 31 0 69 0;
#X connect 32 0 25 0;
#X connect 33 0 70 0;
#X connect 34 0 25 0;
#X connect 35 0 71 0;
#X connect 36 0 25 0;
#X connect 37 0 72 0;
#X connect 38 0 25 0;
#X connect 39 0 73 0;
#X connect 40 0 25 0;
#X connect 41 0 74 0;
#X connect 42 0 9 0;
#X connect 43 0 42 0;
#X connect 44 0 12 0;
#X connect 45 0 44 0;
#X connect 46 0 15 0;
#X connect 47 0 46 0;
#X connect 49 0 26 0;
#X connect 50 0 17 0;
#X connect 50 0 24 0;
#X connect 50 0 27 0;
#X connect 50 0 29 0;
#X connect 50 0 31 0;
#X connect 50 0 33 0;
#X connect 50 0 35 0;
#X connect 50 0 37 0;
#X connect 50 0 39 0;
#X connect 50 0 41 0;
#X connect 51 0 28 0;
#X connect 52 0 0 0;
#X connect 53 0 30 0;
#X connect 54 0 32 0;
#X connect 55 0 34 0;
#X connect 56 0 36 0;
#X connect 57 0 38 0;
#X connect 58 0 40 0;
#X connect 59 0 24 0;
#X connect 59 1 27 0;
#X connect 59 2 29 0;
#X connect 59 3 31 0;
#X connect 59 4 33 0;
#X connect 59 5 35 0;
#X connect 59 6 37 0;
#X connect 59 7 39 0;
#X connect 59 8 41 0;
#X connect 60 0 59 0;
#X connect 63 0 68 0;
#X connect 65 0 26 1;
#X connect 66 0 28 1;
#X connect 67 0 0 1;
#X connect 68 0 65 0;
#X connect 68 0 66 0;
#X connect 68 0 67 0;
#X connect 68 0 69 0;
#X connect 68 0 70 0;
#X connect 68 0 71 0;
#X connect 68 0 72 0;
#X connect 68 0 73 0;
#X connect 68 0 74 0;
#X connect 68 1 65 1;
#X connect 68 1 66 1;
#X connect 68 1 67 1;
#X connect 68 1 69 1;
#X connect 68 1 70 1;
#X connect 68 1 71 1;
#X connect 68 1 72 1;
#X connect 68 1 73 1;
#X connect 68 1 74 1;
#X connect 69 0 30 1;
#X connect 70 0 32 1;
#X connect 71 0 34 1;
#X connect 72 0 36 1;
#X connect 73 0 38 1;
#X connect 74 0 40 1;
#X connect 75 0 76 0;
#X connect 76 0 83 0;
#X connect 77 0 78 0;
#X connect 78 0 81 0;
#X connect 78 0 92 0;
#X connect 78 0 102 0;
#X connect 78 0 111 0;
#X connect 78 0 120 0;
#X connect 79 0 78 1;
#X connect 80 0 77 0;
#X connect 80 1 79 0;
#X connect 81 0 82 0;
#X connect 81 1 75 1;
#X connect 82 0 76 1;
#X connect 83 0 84 0;
#X connect 84 0 2 0;
#X connect 85 0 75 0;
#X connect 85 1 89 0;
#X connect 86 0 80 0;
#X connect 86 0 83 1;
#X connect 86 0 94 1;
#X connect 86 0 104 1;
#X connect 86 0 113 1;
#X connect 86 0 122 1;
#X connect 87 0 88 0;
#X connect 88 0 89 1;
#X connect 88 0 97 1;
#X connect 88 0 107 1;
#X connect 88 0 116 1;
#X connect 88 0 125 1;
#X connect 89 0 98 0;
#X connect 90 0 91 0;
#X connect 91 0 94 0;
#X connect 92 0 93 0;
#X connect 92 1 90 1;
#X connect 93 0 91 1;
#X connect 94 0 95 0;
#X connect 95 0 5 0;
#X connect 96 0 90 0;
#X connect 96 1 97 0;
#X connect 97 0 99 0;
#X connect 98 0 84 1;
#X connect 99 0 95 1;
#X connect 100 0 101 0;
#X connect 101 0 104 0;
#X connect 102 0 103 0;
#X connect 102 1 100 1;
#X connect 103 0 101 1;
#X connect 104 0 105 0;
#X connect 105 0 8 0;
#X connect 106 0 100 0;
#X connect 106 1 107 0;
#X connect 107 0 108 0;
#X connect 108 0 105 1;
#X connect 109 0 110 0;
#X connect 110 0 113 0;
#X connect 111 0 112 0;
#X connect 111 1 109 1;
#X connect 112 0 110 1;
#X connect 113 0 114 0;
#X connect 114 0 11 0;
#X connect 115 0 109 0;
#X connect 115 1 116 0;
#X connect 116 0 117 0;
#X connect 117 0 114 1;
#X connect 118 0 119 0;
#X connect 119 0 122 0;
#X connect 120 0 121 0;
#X connect 120 1 118 1;
#X connect 121 0 119 1;
#X connect 122 0 123 0;
#X connect 123 0 14 0;
#X connect 124 0 118 0;
#X connect 124 1 125 0;
#X connect 125 0 126 0;
#X connect 126 0 123 1;
#X coords 0 -1 1 1 280 160 1 100 100;
#X restore 209 28 pd 9drums;
#N canvas 204 108 903 740 probabilities 0;
#N canvas 0 50 450 300 (subpatch) 0;
#X array \$0probs 32 float 3;
#A 0 8 69 70 80 84 89 90 86 76 58 54 54 54 53 53 53 54 55 58 61 66
68 70 77 80 80 78 77 75 72 65 42;
#X coords 0 100 32 0 320 100 1 0 0;
#X restore 105 118 graph;
#X obj -11 22 inlet;
#X obj 10 488 outlet;
#X obj 491 223 \$0;
#X obj 499 244 pack f f;
#X obj 476 194 t b f;
#X obj 549 -12 \$0;
#X obj 557 9 pack f f;
#X obj 575 -51 t b f;
#X obj 415 63 float;
#X obj 397 102 nbx 2 14 2 32 0 1 empty empty len -20 7 0 10 -262144
-1 -1 32 256;
#X msg 500 267 \; \$1probs resize \$2;
#X obj -5 309 tabread \$0probs;
#X obj -4 90 mod;
#X obj 107 219 hsl 315 8 0 1 0 0 empty empty empty -2 -8 0 10 -262144
-1 -1 5887 1;
#X obj 17 117 /;
#X obj 53 367 random 1000;
#X obj -1 48 t f b;
#X obj 7 454 select 0;
#X obj 53 387 / 10;
#X obj 19 422 <=;
#X obj -6 349 *;
#X obj 261 104 hsl 100 8 -2 2 0 1 empty empty dns -25 6 0 10 -262144
-1 -1 9900 1;
#X obj 197 298 pow;
#X obj 194 242 t b f;
#X msg 193 270 2;
#X text 69 -81 trigger probabilities sequencer \, up to 32 step pattern
;
#X text -7 5 songpos;
#X obj 187 103 bng 12 250 50 0 empty empty clr 17 7 0 10 -258113 -1
-1;
#X msg 558 32 \; \$1probs const 0;
#X connect 1 0 17 0;
#X connect 3 0 4 0;
#X connect 4 0 11 0;
#X connect 5 0 3 0;
#X connect 5 1 4 1;
#X connect 6 0 7 0;
#X connect 7 0 29 0;
#X connect 8 0 6 0;
#X connect 8 1 7 1;
#X connect 9 0 5 0;
#X connect 10 0 9 0;
#X connect 10 0 13 1;
#X connect 10 0 15 1;
#X connect 12 0 21 0;
#X connect 13 0 12 0;
#X connect 13 0 15 0;
#X connect 15 0 14 0;
#X connect 16 0 19 0;
#X connect 17 0 13 0;
#X connect 17 1 16 0;
#X connect 18 0 2 0;
#X connect 19 0 20 1;
#X connect 20 0 18 0;
#X connect 21 0 20 0;
#X connect 22 0 24 0;
#X connect 23 0 21 1;
#X connect 24 0 25 0;
#X connect 24 1 23 1;
#X connect 25 0 23 0;
#X connect 28 0 8 0;
#X coords 0 -1 1 1 330 130 2 100 100;
#X restore 195 -294 pd probabilities;
#X obj 231 -7 route 0 1 2 3 4 5 6 7 8;
#N canvas 1 84 486 449 swingpos 0;
#X obj 221 225 mod 2;
#X obj 188 302 delay 0;
#X obj 217 276 *;
#X obj 302 185 *;
#X obj 219 199 t b f f;
#X obj 106 118 hsl 64 8 0 0.4 0 1 empty empty empty -33 4 0 10 -262144
-1 -1 0 1;
#X obj 229 330 int;
#X obj 199 32 inlet;
#X obj 371 17 inlet;
#X text 211 49 pos;
#X text 383 33 bpm;
#X text 96 136 swing factor;
#X obj 229 359 outlet;
#X msg 365 86 1;
#X obj 377 111 /;
#X obj 368 63 t f f;
#X obj 387 134 * 15000;
#X text 303 133 1/16 in ms;
#X connect 0 0 2 0;
#X connect 1 0 6 0;
#X connect 2 0 1 1;
#X connect 3 0 2 1;
#X connect 4 0 1 0;
#X connect 4 1 0 0;
#X connect 4 2 6 1;
#X connect 5 0 3 0;
#X connect 6 0 12 0;
#X connect 7 0 4 0;
#X connect 8 0 15 0;
#X connect 13 0 14 0;
#X connect 14 0 16 0;
#X connect 15 0 13 0;
#X connect 15 1 14 1;
#X connect 16 0 3 1;
#X coords 0 -1 1 1 75 30 1 100 100;
#X restore 194 -331 pd swingpos;
#N canvas 219 78 1184 711 songpos96-16 0;
#X obj 318 440 + 1;
#X obj 267 436 float;
#X msg 206 296 1;
#X obj 218 321 /;
#X obj 209 273 t f f;
#X obj 228 344 * 15000;
#X obj 339 355 t b f;
#X obj 263 405 metro 125;
#X msg 340 329 -2;
#X obj 172 17 loadbang;
#X floatatom 126 113 5 30 300 0 bpm - -, f 5;
#X msg -2 85 set \$1;
#X msg 5 139 112;
#X obj 174 112 bng 15 250 50 0 empty empty empty 6 7 0 10 -261234 -1
-1;
#X obj 278 636 outlet;
#X obj 570 496 outlet;
#X text 618 497 bpm->;
#X obj 200 112 bng 15 50 20 0 empty empty empty 6 7 0 10 -204786 -1
-1;
#X obj 208 225 float;
#X obj 435 539 outlet;
#X text 144 343 1/16 in ms;
#X text 485 540 pos96->;
#X obj 259 373 / 6;
#X text 219 371 1/96;
#X obj 280 481 / 6;
#X obj 280 505 int;
#X obj 279 530 change;
#X obj 600 64 + 1;
#X obj 602 29 float;
#X obj 600 96 moses 2;
#X obj 600 155 timer;
#X obj 600 123 t b;
#X obj 648 122 t b b;
#X obj 653 243 /;
#X msg 623 221 60000;
#X obj 618 183 t b f;
#X obj 656 268 moses 10;
#X text 500 72 beatcounter;
#X obj 772 358 float;
#X obj 769 401 + 1;
#X obj 688 426 +;
#X obj 729 396 *;
#X obj 705 328 t f b;
#X obj 698 464 /;
#X msg 884 211 0;
#X text 499 302 mean (as seen on idafx blog);
#X obj 864 324 t f f;
#X obj 921 503 moses 0.1;
#X text 880 303 reset;
#X obj 870 366 /;
#X obj 849 431 < 0.75;
#X obj 903 435 > 1.25;
#X obj 869 391 t f f;
#X obj 877 471 ||;
#X obj 174 54 t b b b;
#X obj 43 -7 inlet;
#X obj 107 -11 inlet;
#X text 329 637 pos16->;
#X text 46 14 sync;
#X text 111 10 tap;
#X connect 0 0 1 1;
#X connect 0 0 24 0;
#X connect 0 0 19 0;
#X connect 1 0 0 0;
#X connect 2 0 3 0;
#X connect 3 0 5 0;
#X connect 4 0 2 0;
#X connect 4 1 3 1;
#X connect 5 0 22 0;
#X connect 6 0 7 0;
#X connect 6 1 1 0;
#X connect 7 0 1 0;
#X connect 8 0 6 0;
#X connect 9 0 54 0;
#X connect 10 0 11 0;
#X connect 10 0 18 1;
#X connect 11 0 12 0;
#X connect 12 0 10 0;
#X connect 13 0 8 0;
#X connect 13 0 18 0;
#X connect 17 0 28 0;
#X connect 18 0 4 0;
#X connect 18 0 15 0;
#X connect 22 0 7 1;
#X connect 24 0 25 0;
#X connect 25 0 26 0;
#X connect 26 0 14 0;
#X connect 27 0 28 1;
#X connect 27 0 29 0;
#X connect 28 0 27 0;
#X connect 29 0 31 0;
#X connect 29 1 32 0;
#X connect 30 0 35 0;
#X connect 30 0 46 0;
#X connect 31 0 30 0;
#X connect 32 0 30 0;
#X connect 32 1 30 1;
#X connect 33 0 36 0;
#X connect 34 0 33 0;
#X connect 35 0 34 0;
#X connect 35 1 33 1;
#X connect 36 1 42 0;
#X connect 38 0 39 0;
#X connect 38 0 41 0;
#X connect 39 0 38 1;
#X connect 39 0 43 1;
#X connect 40 0 43 0;
#X connect 41 0 40 1;
#X connect 42 0 40 0;
#X connect 42 1 38 0;
#X connect 43 0 41 1;
#X connect 43 0 10 0;
#X connect 44 0 38 1;
#X connect 44 0 28 1;
#X connect 46 0 49 1;
#X connect 46 1 49 0;
#X connect 47 1 44 0;
#X connect 49 0 52 0;
#X connect 50 0 53 0;
#X connect 51 0 53 1;
#X connect 52 0 50 0;
#X connect 52 1 51 0;
#X connect 53 0 47 0;
#X connect 54 0 13 0;
#X connect 54 1 13 0;
#X connect 54 2 12 0;
#X connect 55 0 13 0;
#X connect 56 0 17 0;
#X coords 0 -1 1 1 120 30 1 100 100;
#X restore 194 -372 pd songpos96-16;
#N canvas 726 121 1019 870 noteproba 0;
#X obj 145 329 moses;
#X obj 168 115 vsl 8 100 0 100 0 1 empty empty empty 0 -9 0 10 -262144
-1 -1 0 1;
#X obj 191 350 moses;
#X obj 183 115 vsl 8 100 0 100 0 1 empty empty empty 0 -9 0 10 -262144
-1 -1 0 1;
#X obj 274 307 +;
#X obj 296 328 +;
#X obj 198 115 vsl 8 100 0 100 0 1 empty empty empty 0 -9 0 10 -262144
-1 -1 0 1;
#X obj 239 376 moses;
#X obj 97 272 delay 1;
#X obj 562 440 random;
#X obj 316 354 +;
#X obj 284 401 moses;
#X obj 213 115 vsl 8 100 0 100 0 1 empty empty empty 0 -9 0 10 -262144
-1 -1 0 1;
#X obj 228 115 vsl 8 100 0 100 0 1 empty empty empty 0 -9 0 10 -262144
-1 -1 9900 1;
#X obj 243 115 vsl 8 100 0 100 0 1 empty empty empty 0 -9 0 10 -262144
-1 -1 0 1;
#X obj 342 378 +;
#X obj 324 431 moses;
#X obj 370 408 +;
#X obj 371 456 moses;
#X obj 416 440 +;
#X obj 406 484 moses;
#X obj 258 115 vsl 8 100 0 100 0 1 empty empty empty 0 -9 0 10 -262144
-1 -1 0 1;
#X obj 273 115 vsl 8 100 0 100 0 1 empty empty empty 0 -9 0 10 -262144
-1 -1 0 1;
#X obj 288 115 vsl 8 100 0 100 0 1 empty empty empty 0 -9 0 10 -262144
-1 -1 0 1;
#X obj 441 461 +;
#X obj 446 514 moses;
#X obj 492 491 +;
#X obj 493 539 moses;
#X msg 124 429 0;
#X msg 166 453 1;
#X msg 209 475 2;
#X msg 251 499 3;
#X obj 679 33 inlet;
#X msg 290 511 4;
#X msg 332 535 5;
#X msg 375 557 6;
#X msg 417 581 7;
#X msg 460 595 8;
#X obj 500 96 moses;
#X obj 546 117 moses;
#X obj 594 143 moses;
#X obj 112 134 hsl 50 15 0 100 0 1 empty empty 1 -10 7 0 10 -262144
-1 -1 3500 1;
#X obj 502 153 +;
#X obj 534 182 +;
#X obj 112 154 hsl 50 15 0 100 0 1 empty empty 2 -10 7 0 10 -262144
-1 -1 2900 1;
#X obj 112 174 hsl 50 15 0 100 0 1 empty empty 3 -10 7 0 10 -262144
-1 -1 3100 1;
#X obj 639 215 random;
#X obj 253 64 delay 1;
#X msg 479 196 1;
#X msg 521 220 2;
#X msg 564 242 3;
#X obj 635 349 until;
#X obj 104 855 outlet;
#X obj 99 794 pack f f;
#X obj 694 500 random 128;
#X obj 693 75 t b b;
#X text 101 117 nr. notes;
#X text 215 99 trig nr;
#N canvas 0 50 450 250 (subpatch) 0;
#X array \$0lvls 128 float 3;
#A 0 0.0816591 0.0816591 0.0816591 0.0816591 0.0816591 0.0816591 0.0816591
0.0816591 0.144444 0.144444 0.146667 0.148889 0.151111 0.153333 0.155555
0.155555 0.161111 0.166667 0.166667 0.17037 0.174074 0.122222 0.122222
0.126667 0.131111 0.135555 0.14 0.144444 0.144444 0.144444 0.144444
0.144444 0.152778 0.161111 0.169444 0.177777 0.177777 0.188888 0.188888
0.199999 0.205555 0.21111 0.216666 0.222221 0.227777 0.233332 0.238888
0.244443 0.266666 0.274073 0.28148 0.288888 0.288888 0.299999 0.31111
0.322221 0.327776 0.333332 0.344443 0.355554 0.355554 0.355554 0.366665
0.366665 0.377776 0.388887 0.399998 0.411109 0.416664 0.433331 0.437034
0.440738 0.455553 0.46296 0.470368 0.488886 0.499997 0.505552 0.511108
0.53333 0.538886 0.544441 0.566663 0.572219 0.577774 0.594441 0.611107
0.622218 0.633329 0.655551 0.661107 0.677773 0.688884 0.69444 0.711106
0.744439 0.75555 0.766661 0.799995 0.844439 0.849994 0.166666 0.166666
0.166666 0.166666 0.166666 0.177777 0.177777 0.177777 0.188888 0.188888
0.188888 0.199999 0.199999 0.203703 0.207407 0.21111 0.21111 0.21111
0.222221 0.222221 0.222221 0.233332 0.255554 0.666662 0.699996 0.722218
0.733329;
#X coords 0 1 128 0 90 90 1 0 0;
#X restore 303 126 graph;
#X obj 695 525 tabread \$0lvls;
#X text 346 310 distribute probs for 9 sounds/trigs;
#X text 427 73 distrib. for up to 3 simultanous notes;
#X text 722 480 velocity ransom distribution from table;
#X text 103 7 per step parameter probabilities: nr of notes \, note
(instrument) nr \, velocity level selection;
#X connect 0 0 28 0;
#X connect 0 1 2 0;
#X connect 1 0 0 1;
#X connect 1 0 4 0;
#X connect 1 0 8 0;
#X connect 2 0 29 0;
#X connect 2 1 7 0;
#X connect 3 0 4 1;
#X connect 3 0 8 0;
#X connect 4 0 5 0;
#X connect 4 0 2 1;
#X connect 5 0 7 1;
#X connect 5 0 10 0;
#X connect 6 0 5 1;
#X connect 6 0 8 0;
#X connect 7 0 30 0;
#X connect 7 1 11 0;
#X connect 8 0 4 0;
#X connect 9 0 0 0;
#X connect 10 0 11 1;
#X connect 10 0 15 0;
#X connect 11 0 31 0;
#X connect 11 1 16 0;
#X connect 12 0 10 1;
#X connect 12 0 8 0;
#X connect 13 0 15 1;
#X connect 13 0 8 0;
#X connect 14 0 8 0;
#X connect 14 0 17 1;
#X connect 15 0 16 1;
#X connect 15 0 17 0;
#X connect 16 0 33 0;
#X connect 16 1 18 0;
#X connect 17 0 18 1;
#X connect 17 0 19 0;
#X connect 18 0 34 0;
#X connect 18 1 20 0;
#X connect 19 0 20 1;
#X connect 19 0 24 0;
#X connect 20 0 35 0;
#X connect 20 1 25 0;
#X connect 21 0 19 1;
#X connect 21 0 8 0;
#X connect 22 0 24 1;
#X connect 22 0 8 0;
#X connect 23 0 26 1;
#X connect 23 0 8 0;
#X connect 24 0 25 1;
#X connect 24 0 26 0;
#X connect 25 0 36 0;
#X connect 25 1 27 0;
#X connect 26 0 27 1;
#X connect 26 0 9 1;
#X connect 27 0 37 0;
#X connect 28 0 53 0;
#X connect 29 0 53 0;
#X connect 30 0 53 0;
#X connect 31 0 53 0;
#X connect 32 0 55 0;
#X connect 33 0 53 0;
#X connect 34 0 53 0;
#X connect 35 0 53 0;
#X connect 36 0 53 0;
#X connect 37 0 53 0;
#X connect 38 0 48 0;
#X connect 38 1 39 0;
#X connect 39 0 49 0;
#X connect 39 1 40 0;
#X connect 40 0 50 0;
#X connect 41 0 38 1;
#X connect 41 0 42 0;
#X connect 41 0 47 0;
#X connect 42 0 43 0;
#X connect 42 0 39 1;
#X connect 43 0 46 1;
#X connect 43 0 40 1;
#X connect 44 0 42 1;
#X connect 44 0 47 0;
#X connect 45 0 47 0;
#X connect 45 0 43 1;
#X connect 46 0 38 0;
#X connect 47 0 42 0;
#X connect 48 0 51 0;
#X connect 49 0 51 0;
#X connect 50 0 51 0;
#X connect 51 0 9 0;
#X connect 53 0 52 0;
#X connect 54 0 59 0;
#X connect 55 0 46 0;
#X connect 55 1 54 0;
#X connect 59 0 53 1;
#X coords 0 -1 1 1 300 120 1 100 100;
#X restore 196 -160 pd noteproba;
#N canvas 43 128 610 640 mym2schorus 0;
#X obj 23 59 inlet~;
#X obj 466 487 outlet~;
#X obj 295 500 outlet~;
#X obj 197 264 cos~;
#X obj 197 291 +~ 1;
#X obj 290 225 +~ 0.25;
#X obj 304 254 cos~;
#X obj 309 284 +~ 1;
#X obj 369 69 phasor~;
#X obj 354 -14 loadbang;
#X msg 355 20 0.8;
#X obj 145 407 vd~ \$0mychr1;
#X obj 298 371 vd~ \$0mychr1;
#X obj 311 318 *~ 0.3;
#X obj 418 232 cos~;
#X obj 423 262 +~ 1;
#X obj 412 349 vd~ \$0mychr1;
#X obj 425 296 *~ 0.3;
#X obj 24 101 delwrite~ \$0mychr1 100;
#X obj 404 203 +~ 0.5;
#X obj 522 250 cos~;
#X obj 527 280 +~ 1;
#X obj 516 367 vd~ \$0mychr1;
#X obj 508 221 +~ 0.75;
#X obj 530 315 *~ 0.31;
#X obj 194 318 *~ 0.31;
#X connect 0 0 18 0;
#X connect 3 0 4 0;
#X connect 4 0 25 0;
#X connect 5 0 6 0;
#X connect 6 0 7 0;
#X connect 7 0 13 0;
#X connect 8 0 3 0;
#X connect 8 0 5 0;
#X connect 8 0 19 0;
#X connect 8 0 23 0;
#X connect 9 0 10 0;
#X connect 10 0 8 0;
#X connect 11 0 2 0;
#X connect 12 0 1 0;
#X connect 13 0 12 0;
#X connect 14 0 15 0;
#X connect 15 0 17 0;
#X connect 16 0 2 0;
#X connect 17 0 16 0;
#X connect 19 0 14 0;
#X connect 20 0 21 0;
#X connect 21 0 24 0;
#X connect 22 0 1 0;
#X connect 23 0 20 0;
#X connect 24 0 22 0;
#X connect 25 0 11 0;
#X restore 211 230 pd mym2schorus;
#X text 254 -42 9 drums/whatever;
#X msg 1068 -469 1 maj \, 6 - \, 2 - \, 5 -7 \, 2 -;
#N canvas 435 477 293 176 show 0;
#X obj 77 36 inlet;
#X obj 77 109 outlet;
#X obj 77 60 list prepend set;
#X obj 77 85 list trim;
#X connect 0 0 2 0;
#X connect 2 0 3 0;
#X connect 3 0 1 0;
#X restore 754 -404 pd show;
#X msg 554 -374 bang;
#X msg 599 -395 seed 123;
#X floatatom 620 -338 5 0 0 2 range - -, f 5;
#X floatatom 670 -334 5 0 0 2 length - -, f 5;
#X msg 754 -431 bang;
#X msg 753 -376 41 46 40 37 45 45 38 39 47;
#X obj 577 -310 u_listrandom 5 2;
#X obj 581 -273 listOp;
#X obj 668 -273 + 36;
#N canvas 296 90 1105 738 process 0;
#X obj 107 314 phasor~;
#X obj 107 391 *~ -1;
#X obj 108 416 +~ 1;
#X obj 125 561 sig~ 1;
#X obj 190 560 cos~;
#X obj 126 585 -~;
#X obj 127 610 *~ 0.5;
#X obj 106 639 *~;
#X obj 142 473 samphold~;
#X obj 108 500 *~;
#X obj 143 445 sig~;
#X floatatom 135 260 10 0 0 0 - - -, f 10;
#X floatatom 266 218 5 0 0 0 - - -, f 5;
#X obj 249 253 t b f;
#X obj 229 371 / 44.1;
#X obj 342 392 *~ -1;
#X obj 343 417 +~ 1;
#X obj 360 562 sig~ 1;
#X obj 424 562 cos~;
#X obj 361 586 -~;
#X obj 362 611 *~ 0.5;
#X obj 343 636 *~;
#X obj 377 474 samphold~;
#X obj 343 501 *~;
#X obj 378 446 sig~;
#X obj 339 344 +~ 0.5;
#X obj 339 366 wrap~;
#X obj 144 288 expr (pow(2 \, ($f2/12)) - 1) * 44100/$f1;
#X obj 102 97 vsl 15 128 100 30000 0 0 empty empty empty 0 -8 0 8 -262144
-1 -1 0 1;
#X obj 102 235 t b f;
#X obj 266 138 vsl 15 73 -36 36 0 0 empty empty empty 0 -8 0 8 -262144
-1 -1 0 1;
#X obj 484 348 *~ 0;
#X obj 517 107 vsl 15 128 0.01 1 1 0 empty empty empty 0 -8 0 8 -262144
-1 -1 0 1;
#X obj 517 267 sel 0.01;
#X msg 515 294 0;
#X floatatom 515 323 5 0 0 0 - - -, f 5;
#X text 520 79 feedback;
#X text 269 114 transposition;
#X text 37 71 window-width (samples);
#X obj 494 376 inlet~;
#X obj 105 698 outlet~;
#X obj 586 46 inlet;
#X obj 675 46 inlet;
#X obj 629 46 inlet;
#X obj 485 408 delwrite~ \$0-delayr 5000;
#X obj 344 527 vd~ \$0-delayr;
#X obj 109 526 vd~ \$0-delayr;
#X connect 0 0 1 0;
#X connect 0 0 4 0;
#X connect 0 0 8 1;
#X connect 0 0 25 0;
#X connect 1 0 2 0;
#X connect 2 0 9 0;
#X connect 3 0 5 0;
#X connect 4 0 5 1;
#X connect 5 0 6 0;
#X connect 6 0 7 1;
#X connect 7 0 31 0;
#X connect 7 0 40 0;
#X connect 8 0 9 1;
#X connect 9 0 46 0;
#X connect 10 0 8 0;
#X connect 11 0 27 0;
#X connect 12 0 13 0;
#X connect 13 0 11 0;
#X connect 13 1 27 1;
#X connect 14 0 10 0;
#X connect 14 0 24 0;
#X connect 15 0 16 0;
#X connect 16 0 23 0;
#X connect 17 0 19 0;
#X connect 18 0 19 1;
#X connect 19 0 20 0;
#X connect 20 0 21 1;
#X connect 21 0 31 0;
#X connect 21 0 40 0;
#X connect 22 0 23 1;
#X connect 23 0 45 0;
#X connect 24 0 22 0;
#X connect 25 0 26 0;
#X connect 26 0 15 0;
#X connect 26 0 22 1;
#X connect 26 0 18 0;
#X connect 27 0 0 0;
#X connect 28 0 29 0;
#X connect 29 0 12 0;
#X connect 29 1 14 0;
#X connect 29 1 11 0;
#X connect 30 0 12 0;
#X connect 31 0 44 0;
#X connect 32 0 33 0;
#X connect 33 0 34 0;
#X connect 33 1 35 0;
#X connect 34 0 35 0;
#X connect 35 0 31 1;
#X connect 39 0 44 0;
#X connect 41 0 29 0;
#X connect 42 0 33 0;
#X connect 43 0 12 0;
#X connect 45 0 21 0;
#X connect 46 0 7 0;
#X restore 209 202 pd process;
#X text 822 -440 comment;
#X obj 673 -129 declare -path rjdj;
#X connect 1 0 20 0;
#X connect 2 0 6 0;
#X connect 3 0 1 0;
#X connect 3 1 1 1;
#X connect 3 2 1 2;
#X connect 3 3 1 3;
#X connect 3 4 1 4;
#X connect 3 5 1 5;
#X connect 3 6 1 6;
#X connect 3 7 1 7;
#X connect 3 8 1 8;
#X connect 3 9 1 10;
#X connect 4 0 2 0;
#X connect 5 0 4 0;
#X connect 5 2 4 1;
#X connect 6 0 3 0;
#X connect 7 0 0 0;
#X connect 7 1 0 1;
#X connect 10 0 16 0;
#X connect 11 0 17 0;
#X connect 12 0 17 0;
#X connect 13 0 17 1;
#X connect 14 0 17 2;
#X connect 15 0 10 0;
#X connect 17 0 18 0;
#X connect 18 0 1 9;
#X connect 18 0 10 0;
#X connect 18 1 19 0;
#X connect 19 0 18 1;
#X connect 20 0 7 0;
