#N canvas 0 50 1366 696 10;
#X obj 367 139 inlet~;
#X obj 471 137 inlet~;
#X obj 419 260 samphold~;
#X msg 514 221 reset;
#X obj 141 126 cnv 5 5 5 empty empty ASR 0 0 0 12 -262144 -66577 0
;
#X obj 104 142 cnv 5 5 5 empty empty OUT 0 0 0 8 -262144 -66577 0;
#X obj 103 108 cnv 5 5 5 empty empty SAMPLE 0 0 0 8 -262144 -66577
0;
#X obj 175 108 cnv 5 5 5 empty empty TRIG 0 0 0 8 -262144 -226533 0
;
#X obj 515 195 t b b;
#X obj 177 116 bng 15 50 50 0 empty empty empty 17 7 0 10 -262144 -226533
-1;
#X obj 515 167 threshold~ 0.9 0 0.9 0;
#X obj 435 488 outlet~;
#X obj 508 489 outlet~;
#X obj 358 489 outlet~;
#X obj 376 396 snapshot~;
#X obj 439 456 sig~;
#X obj 504 454 sig~;
#X obj 371 456 sig~;
#X obj 375 421 cyclone/bucket 4 1;
#X obj 580 488 outlet~;
#X obj 576 453 sig~;
#X connect 0 0 2 0;
#X connect 1 0 2 1;
#X connect 1 0 10 0;
#X connect 2 0 14 0;
#X connect 8 0 3 0;
#X connect 8 1 9 0;
#X connect 9 0 14 0;
#X connect 10 0 8 0;
#X connect 14 0 18 0;
#X connect 15 0 11 0;
#X connect 16 0 12 0;
#X connect 17 0 13 0;
#X connect 18 0 17 0;
#X connect 18 1 15 0;
#X connect 18 2 16 0;
#X connect 18 3 20 0;
#X connect 20 0 19 0;
#X coords 0 -1 1 1 100 50 2 100 100;
