#N canvas 640 403 450 333 10;
#X obj 18 101 soundfiler;
#X obj 18 56 symbol \$1;
#X msg 18 78 read -resize \$1 \$1-L \$1-R;
#X obj 18 34 loadbang;
#X obj 18 257 table \$1-L;
#X obj 18 282 table \$1-R;
#X obj 115 279 tabread4~ \$1-L;
#X obj 18 125 s \$0-sample-length;
#X obj 115 304 outlet~;
#X obj 261 307 outlet~;
#X obj 261 282 tabread4~ \$1-R;
#X obj 19 154 r \$0-sample-length;
#X obj 19 224 s \$0-phasorfreq;
#X obj 210 169 phasor~;
#X obj 209 238 *~;
#X obj 224 191 r \$0-sample-length;
#X obj 224 214 sig~;
#X obj 210 90 sig~;
#X obj 209 139 *~ 1;
#X obj 210 64 r \$0-phasorfreq;
#X obj 230 113 inlet;
#X msg 19 177 44100 \$1;
#X obj 19 200 /;
#X connect 0 0 7 0;
#X connect 1 0 2 0;
#X connect 2 0 0 0;
#X connect 3 0 1 0;
#X connect 6 0 8 0;
#X connect 10 0 9 0;
#X connect 11 0 21 0;
#X connect 13 0 14 0;
#X connect 14 0 6 0;
#X connect 14 0 10 0;
#X connect 15 0 16 0;
#X connect 16 0 14 1;
#X connect 17 0 18 0;
#X connect 18 0 13 0;
#X connect 19 0 17 0;
#X connect 20 0 18 1;
#X connect 21 0 22 0;
#X connect 22 0 12 0;
