#N canvas 1362 722 1366 696 10;
#X obj 382 134 inlet~;
#X obj 471 137 inlet~;
#X obj 419 260 samphold~;
#X msg 514 221 reset;
#X obj 174 118 cnv 5 5 5 empty empty ASR 0 0 0 12 -262144 -66577 0
;
#X obj 105 167 cnv 5 5 5 empty empty OUTS 0 0 0 8 -262144 -66577 0
;
#X obj 144 141 cnv 5 5 5 empty empty del_(ms) 0 0 0 8 -262144 -66577
0;
#X obj 249 108 cnv 5 5 5 empty empty TRIG 0 0 0 8 -262144 -226533 0
;
#X obj 515 195 t b b;
#X obj 251 116 bng 15 50 50 0 empty empty empty 17 7 0 10 -262144 -226533
-1;
#X obj 515 167 threshold~ 0.9 0 0.9 0;
#X obj 294 422 outlet~;
#X obj -34 418 outlet~;
#X obj 47 418 outlet~;
#X obj 222 420 outlet~;
#X text 109 244 float input (delay time in ms);
#X obj 103 108 cnv 5 5 5 empty empty SAMPLE 0 0 0 8 -262144 -66577
0;
#X obj 193 329 + 1000;
#X obj 373 339 + 1500;
#X obj 138 155 hsl 128 15 0 20000 0 0 empty empty empty -2 -8 0 10
-262144 -1 -1 0 1;
#X obj 24 365 delread~ asr_line1 1000;
#X obj 203 364 delread~ asr_line2 1500;
#X obj 388 366 delread~ asr_line3 2000;
#X obj 445 304 delwrite~ asr_line2;
#X obj 594 302 delwrite~ asr_line3;
#X obj 736 301 delwrite~ asr_line1;
#X floatatom 111 214 5 0 0 0 - - -, f 5;
#X obj 59 337 + 500;
#X floatatom 184 235 5 0 0 0 - - -, f 5;
#X floatatom 231 217 5 0 0 0 - - -, f 5;
#X obj 747 224 cyclone/bucket 3 1;
#X obj 301 555 snapshot~;
#X floatatom 330 597 5 0 0 0 - - -, f 5;
#X floatatom 749 264 5 0 0 0 - - -, f 5;
#X floatatom 795 265 5 0 0 0 - - -, f 5;
#X floatatom 851 264 5 0 0 0 - - -, f 5;
#X obj 971 288 * 127;
#X obj 982 340 sig~;
#X obj 811 569 hsl 128 15 0 127 0 0 empty empty empty -2 -8 0 10 -262144
-1 -1 0 1;
#X obj 808 589 / 127;
#X obj 808 611 sig~;
#X text 805 534 How convert control numbers to the patch editor's signal
flow:;
#X text 948 568 0-127;
#X floatatom 946 394 5 0 0 0 - - -, f 5;
#X connect 0 0 2 0;
#X connect 1 0 2 1;
#X connect 1 0 10 0;
#X connect 2 0 12 0;
#X connect 2 0 23 0;
#X connect 2 0 25 0;
#X connect 2 0 24 0;
#X connect 2 0 31 0;
#X connect 8 0 3 0;
#X connect 8 1 9 0;
#X connect 9 0 31 0;
#X connect 10 0 8 0;
#X connect 17 0 21 0;
#X connect 18 0 22 0;
#X connect 19 0 26 0;
#X connect 19 0 28 0;
#X connect 19 0 29 0;
#X connect 20 0 13 0;
#X connect 21 0 14 0;
#X connect 22 0 11 0;
#X connect 26 0 27 0;
#X connect 27 0 20 0;
#X connect 28 0 17 0;
#X connect 29 0 18 0;
#X connect 30 0 33 0;
#X connect 30 1 34 0;
#X connect 30 2 35 0;
#X connect 31 0 32 0;
#X connect 31 0 30 0;
#X connect 33 0 36 0;
#X connect 36 0 43 0;
#X connect 38 0 39 0;
#X connect 39 0 40 0;
#X coords 0 -1 1 1 175 75 2 100 100;
