#N canvas 3 0 1366 712 10;
#X obj 477 111 unpack 0 0;
#X obj 330 112 r transpose;
#X obj 479 79 inlet;
#X obj 473 573 outlet~;
#X obj 376 152 + 12;
#X obj 430 346 brds~;
#X obj 236 114 r osc-shape;
#X msg 235 147 shape \$1;
#X obj 150 113 r osc-colour;
#X obj 151 224 r osc-timbre;
#X msg 150 148 colour \$1;
#X msg 151 257 timbre \$1;
#X msg 447 319 pitch \$1;
#X obj 459 196 * 128;
#X obj 460 174 - 63;
#X obj 459 224 + 8252;
#X connect 0 0 4 0;
#X connect 1 0 4 1;
#X connect 2 0 0 0;
#X connect 4 0 14 0;
#X connect 5 0 3 0;
#X connect 6 0 7 0;
#X connect 7 0 5 0;
#X connect 8 0 10 0;
#X connect 9 0 11 0;
#X connect 10 0 5 0;
#X connect 11 0 5 0;
#X connect 12 0 5 0;
#X connect 13 0 15 0;
#X connect 14 0 13 0;
#X connect 15 0 12 0;
