#N canvas 351 228 657 372 10;
#X obj 23 300 cnv 15 400 30 empty empty OUTPUTS: 20 12 0 14 -158136
-262144 0;
#X obj 20 131 cnv 15 400 30 empty empty CONTROLS: 20 12 0 14 -158136
-262144 0;
#X obj 20 194 cnv 15 400 30 empty empty INPUTS: 20 12 0 14 -158136
-262144 0;
#X obj 20 17 cnv 15 400 30 empty empty ANALOG_SHIFT_REGISTER: 20 12
0 14 -150893 -262144 0;
#X text 24 166 none;
#X text 24 230 SAMPLE - signal in;
#X obj 445 18 asr;
#X text 26 334 OUT - outputs;
#X text 22 250 TRIG - trigger/gate input that will sample the signal
at the SAMPLE - input;
#X text 19 63 A simple 5-stage Analog Shift Register (ASR). The sampled
input is passed from left to right across the outputs on each trigger
in received.;
