#N canvas -8 -8 1366 696 10;
#X obj 174 37 inlet~;
#X obj 282 28 inlet~;
#X obj 267 151 samphold~;
#X obj 141 126 cnv 5 5 5 empty empty ASR 0 0 0 12 -262144 -66577 0
;
#X obj 104 142 cnv 5 5 5 empty empty OUT 0 0 0 8 -262144 -66577 0;
#X obj 103 108 cnv 5 5 5 empty empty SAMPLE 0 0 0 8 -262144 -66577
0;
#X obj 175 108 cnv 5 5 5 empty empty TRIG 0 0 0 8 -262144 -226533 0
;
#X obj 322 93 t b b;
#X obj 177 116 bng 15 50 50 0 empty empty empty 17 7 0 10 -262144 -226533
-1;
#X obj 322 65 threshold~ 0.9 0 0.9 0;
#X obj 266 184 snapshot~;
#X obj 408 305 list;
#X obj 196 379 f;
#X obj 249 384 + 1;
#X obj 199 446 t b b;
#X floatatom 448 352 5 0 0 0 - - -, f 5;
#X msg 306 330 0;
#X text 524 325 remove last value from the register;
#X text 499 351 last value in the register;
#X text 343 218 shift values in the register;
#X obj 252 271 t b l l;
#X obj 252 218 list append;
#X text 283 382 once the register is full we output values constantly
;
#X text 257 426 number of registers minus 1;
#X text 322 472 once the register is full \, output values constantly
;
#X text 214 502 easy way use bucket;
#X obj 189 636 outlet~;
#X obj 262 637 outlet~;
#X obj 112 637 outlet~;
#X obj 193 604 sig~;
#X obj 258 602 sig~;
#X obj 125 604 sig~;
#X obj 334 636 outlet~;
#X obj 330 601 sig~;
#X obj 218 86 clip~ -1 1;
#X obj 406 635 outlet~;
#X obj 402 600 sig~;
#X obj 199 424 sel 5;
#X msg 283 474 5;
#X obj 418 329 list split 5;
#X text 879 609 thanks alexandros https://forum.pdpatchrepo.info/topic/10460/clock-operated-shift-register/6
;
#X obj 128 540 cyclone/bucket 5;
#X connect 0 0 34 0;
#X connect 1 0 2 1;
#X connect 1 0 9 0;
#X connect 2 0 10 0;
#X connect 7 1 8 0;
#X connect 8 0 10 0;
#X connect 9 0 7 0;
#X connect 10 0 21 0;
#X connect 10 0 41 0;
#X connect 11 0 39 0;
#X connect 12 0 13 0;
#X connect 12 0 37 0;
#X connect 13 0 12 1;
#X connect 14 0 11 0;
#X connect 14 1 38 0;
#X connect 16 0 12 1;
#X connect 20 0 12 0;
#X connect 20 1 11 1;
#X connect 20 2 21 1;
#X connect 21 0 20 0;
#X connect 29 0 26 0;
#X connect 30 0 27 0;
#X connect 31 0 28 0;
#X connect 33 0 32 0;
#X connect 34 0 2 0;
#X connect 36 0 35 0;
#X connect 37 0 14 0;
#X connect 38 0 12 1;
#X connect 39 0 21 1;
#X connect 39 1 15 0;
#X connect 41 0 31 0;
#X connect 41 1 29 0;
#X connect 41 2 30 0;
#X connect 41 3 33 0;
#X connect 41 4 36 0;
#X coords 0 -1 1 1 100 50 2 100 100;
