#N canvas 0 50 1366 696 10;
#X obj 113 235 > 0;
#X obj 114 284 pack 0 10;
#X obj 122 314 line~;
#X obj 113 213 t f f f;
#X obj 113 257 t f;
#X obj 122 362 outlet~;
#X obj 150 103 tgl 15 0 empty empty empty 17 7 0 10 -262144 -1 -1 0
1;
#X obj 308 265 outlet;
#X text 379 267 button out;
#X text 194 364 ~ gate out;
#X obj 56 15 notein 2;
#X obj 58 42 sel \$1;
#X text 316 134 all buttons on midi channel 2;
#X obj 67 367 s~ b\$1;
#X obj 339 346 s b\$1;
#X connect 0 0 4 0;
#X connect 1 0 2 0;
#X connect 2 0 5 0;
#X connect 2 0 13 0;
#X connect 3 0 0 0;
#X connect 4 0 1 0;
#X connect 6 0 3 0;
#X connect 6 0 7 0;
#X connect 6 0 14 0;
#X connect 10 0 11 0;
#X connect 11 0 6 0;
#X coords 0 -1 1 1 70 22 1 100 100;
