#N canvas 0 22 1055 745 10;
#X obj 528 70 metro 20;
#X obj 528 49 tgl 15 0 empty empty empty 17 7 0 10 -262144 -1 -1 0
1;
#X floatatom 573 43 5 0 0 0 - - -, f 5;
#X obj 508 137 hsl 128 15 0 1 0 0 empty lMin empty -2 -8 0 10 -262144
-1 -1 6350 1;
#X obj 543 161 hsl 128 15 0 0.5 0 0 empty lRange empty -2 -8 0 10 -262144
-1 -1 12700 1;
#X floatatom 471 205 5 0 0 0 - - -, f 5;
#X obj 596 190 hsl 128 15 0 9 0 0 empty spMin empty -2 -8 0 10 -262144
-1 -1 141 1;
#X obj 631 214 hsl 128 15 0 15 0 0 empty spRange empty -2 -8 0 10 -262144
-1 -1 8467 1;
#X floatatom 559 258 5 0 0 0 - - -, f 5;
#X obj 672 239 hsl 128 15 0 1 0 0 empty stMin empty -2 -8 0 10 -262144
-1 -1 6350 1;
#X obj 707 263 hsl 128 15 0 10 0 0 empty stRange empty -2 -8 0 10 -262144
-1 -1 635 1;
#X floatatom 635 325 5 0 0 0 - - -, f 5;
#X obj 649 40 hsl 128 15 5 1000 0 0 empty tMin empty -2 -8 0 10 -262144
-1 -1 574 1;
#X obj 684 64 hsl 128 15 0 200 0 0 empty tRange empty -2 -8 0 10 -262144
-1 -1 12700 1;
#X floatatom 612 108 5 0 0 0 - - -, f 5;
#X text 678 161 length range;
#X text 767 213 speed range;
#X text 843 262 start range;
#X obj 511 98 t b b b b b;
#X obj 180 190 bng 15 250 50 0 empty empty empty 17 7 0 10 -262144
-1 -1;
#X text 165 170 trigger;
#X obj 121 507 line~;
#X obj 345 522 cos~;
#X obj 345 543 *~ -1;
#X obj 345 564 +~ 1;
#X obj 345 584 /~ 2;
#X obj 344 501 line~;
#X msg 344 454 1;
#X obj 344 477 pack 0 0;
#X msg 387 455 0;
#X text 322 428 apply volume envelope;
#X obj 377 410 bng 15 250 50 0 empty empty empty 17 7 0 10 -262144
-1 -1;
#X obj 234 616 *~;
#X obj 217 260 hsl 128 15 0 1 0 0 empty empty empty -2 -8 0 10 -262144
-1 -1 7309 1;
#X obj 120 481 pack 0 0;
#X obj 214 299 *;
#X obj 229 278 r maxLength;
#X obj 41 314 *;
#X obj 56 294 r maxDel;
#X obj 26 336 f;
#X obj 26 247 bng 15 250 50 0 empty empty empty 17 7 0 10 -262144 -1
-1;
#X obj 137 312 bng 15 250 50 0 empty empty empty 17 7 0 10 -262144
-1 -1;
#X obj 393 248 hsl 128 15 0.1 20 0 0 empty empty empty -2 -8 0 10 -262144
-1 -1 1883 1;
#X text 434 230 speed;
#X obj 409 294 swap 1;
#X floatatom 408 273 5 0 0 0 - - -, f 5;
#X text 226 241 length in milisecs;
#X floatatom 26 358 15 0 0 0 - - -, f 15;
#X obj 199 321 f;
#X obj 209 386 *;
#X obj 221 362 t b f;
#X obj 415 318 -;
#X obj 186 428 +;
#X obj 209 407 t b f;
#X obj 137 375 f;
#N canvas 331 22 671 472 octaveLocker 0;
#X obj 105 68 inlet;
#X text 103 47 on/off;
#X obj 214 73 inlet;
#X text 214 54 num in;
#X obj 214 186 moses 0.125;
#X floatatom 328 384 5 0 0 0 - - -, f 5;
#X obj 277 208 moses 0.25;
#X obj 334 230 moses 0.5;
#X msg 334 253 0.5;
#X obj 385 251 moses 1;
#X obj 424 272 moses 2;
#X obj 463 294 moses 4;
#X obj 502 315 moses 8;
#X obj 541 336 moses 16;
#X obj 135 333 *;
#X obj 150 306 tgl 15 0 empty empty empty 17 7 0 10 -262144 -1 -1 0
1;
#X obj 188 381 *;
#X obj 204 327 swap 1;
#X obj 203 358 -;
#X floatatom 153 408 5 0 0 0 - - -, f 5;
#X obj 153 384 +;
#X obj 151 358 t b f;
#X obj 174 432 outlet;
#X floatatom 254 140 5 0 0 0 - - -, f 5;
#X obj 246 97 swap 1;
#X obj 254 120 -;
#X msg 206 221 0.875;
#X msg 277 231 0.75;
#X msg 424 295 -1;
#X msg 463 317 -3;
#X msg 502 338 -7;
#X msg 541 359 -15;
#X msg 586 358 -31;
#X msg 385 274 0;
#X connect 0 0 15 0;
#X connect 2 0 24 0;
#X connect 2 0 16 0;
#X connect 4 0 26 0;
#X connect 4 1 6 0;
#X connect 5 0 14 0;
#X connect 6 0 27 0;
#X connect 6 1 7 0;
#X connect 7 0 8 0;
#X connect 7 1 9 0;
#X connect 8 0 5 0;
#X connect 9 0 33 0;
#X connect 9 1 10 0;
#X connect 10 0 28 0;
#X connect 10 1 11 0;
#X connect 11 0 29 0;
#X connect 11 1 12 0;
#X connect 12 0 30 0;
#X connect 12 1 13 0;
#X connect 13 0 31 0;
#X connect 13 1 32 0;
#X connect 14 0 20 0;
#X connect 15 0 14 1;
#X connect 15 0 17 0;
#X connect 16 0 21 0;
#X connect 17 0 18 0;
#X connect 17 1 18 1;
#X connect 18 0 16 1;
#X connect 19 0 22 0;
#X connect 20 0 19 0;
#X connect 21 0 20 0;
#X connect 21 1 20 1;
#X connect 23 0 4 0;
#X connect 24 0 25 0;
#X connect 24 1 25 1;
#X connect 25 0 23 0;
#X connect 26 0 5 0;
#X connect 27 0 5 0;
#X connect 28 0 5 0;
#X connect 29 0 5 0;
#X connect 30 0 5 0;
#X connect 31 0 5 0;
#X connect 32 0 5 0;
#X connect 33 0 5 0;
#X restore 338 360 pd octaveLocker;
#X floatatom 165 364 5 0 0 0 - - -, f 5;
#X obj 165 342 min;
#X text 54 273 start time;
#X obj 409 661 *~;
#X obj 315 661 *~;
#X obj 450 597 bng 15 250 50 0 empty empty empty 17 7 0 10 -262144
-1 -1;
#X obj 180 210 t b b b;
#X floatatom 415 340 5 0 0 0 - - -, f 5;
#X floatatom 338 382 5 0 0 0 - - -, f 5;
#N canvas 0 22 471 321 myPanner 0;
#N canvas 737 142 450 300 meanNrange 0;
#X obj 181 117 random 1000;
#X obj 181 138 / 1000;
#X floatatom 181 220 5 0 0 0 - - -, f 5;
#X obj 181 93 inlet;
#X text 180 72 bang;
#X obj 181 162 * 1;
#X text 204 163 range;
#X obj 181 188 + 0;
#X text 207 191 mean;
#X obj 281 95 inlet;
#X text 283 74 mean;
#X obj 332 95 inlet;
#X text 330 75 range;
#X obj 181 244 outlet;
#X connect 0 0 1 0;
#X connect 1 0 5 0;
#X connect 2 0 13 0;
#X connect 3 0 0 0;
#X connect 5 0 7 0;
#X connect 7 0 2 0;
#X connect 9 0 7 1;
#X connect 11 0 5 1;
#X restore -637 158 pd meanNrange;
#X floatatom -637 180 5 0 0 0 - - -, f 5;
#X obj -637 136 bng 15 250 50 0 empty empty empty 17 7 0 10 -262144
-1 -1;
#X obj -600 109 loadbang;
#X obj -527 94 hsl 128 15 0 1 0 0 empty empty empty -2 -8 0 10 -262144
-1 -1 12700 1;
#X msg -600 136 0;
#X floatatom -530 114 5 0 0 0 - - -, f 5;
#X obj -522 133 bng 15 250 50 0 empty empty empty 17 7 0 10 -262144
-1 -1;
#X floatatom -522 171 5 0 0 0 - - -, f 5;
#X obj -522 151 random 2;
#X obj -522 189 * 2;
#X obj -522 210 - 1;
#X floatatom -522 232 5 0 0 0 - - -, f 5;
#X obj -594 207 *;
#X obj -637 108 t b b;
#X floatatom -594 229 5 0 0 0 - - -, f 5;
#X obj -751 100 + 1;
#X obj -751 120 / 2;
#X floatatom -751 142 5 0 0 0 - - -, f 5;
#X obj -818 98 swap 1;
#X obj -807 119 -;
#X floatatom -807 141 5 0 0 0 - - -, f 5;
#X obj -637 48 inlet;
#X obj -530 51 inlet;
#X obj -751 167 outlet;
#X obj -807 167 outlet;
#X connect 0 0 1 0;
#X connect 1 0 13 0;
#X connect 2 0 0 0;
#X connect 3 0 5 0;
#X connect 4 0 0 2;
#X connect 4 0 6 0;
#X connect 5 0 0 1;
#X connect 7 0 9 0;
#X connect 8 0 10 0;
#X connect 9 0 8 0;
#X connect 10 0 11 0;
#X connect 11 0 12 0;
#X connect 12 0 13 1;
#X connect 13 0 15 0;
#X connect 14 0 2 0;
#X connect 14 1 7 0;
#X connect 15 0 16 0;
#X connect 16 0 17 0;
#X connect 17 0 18 0;
#X connect 18 0 19 0;
#X connect 18 0 24 0;
#X connect 19 0 20 0;
#X connect 19 1 20 1;
#X connect 20 0 21 0;
#X connect 21 0 25 0;
#X connect 22 0 14 0;
#X connect 23 0 4 0;
#X restore 450 619 pd myPanner;
#X obj 356 686 dac~;
#X obj 121 533 vd~ tape1;
#X obj 516 596 hsl 128 15 0 1 0 0 empty panning empty -2 -8 0 10 -262144
-1 -1 12700 1;
#X text 654 598 pan;
#X floatatom 186 450 15 0 0 0 - - -, f 15;
#X obj 120 400 moses 0;
#X obj 120 421 bng 15 250 50 0 empty empty empty 17 7 0 10 -262144
-1 -1;
#X obj 120 440 f;
#X floatatom 120 462 5 0 0 0 - - -, f 5;
#X obj 635 305 min 1;
#X obj 777 468 adc~;
#X obj 787 510 delwrite~ tape1 5000;
#X msg 338 317 0;
#X obj 338 341 tgl 15 0 empty empty empty 17 7 0 10 -262144 -1 -1 0
1;
#X obj 117 14 loadbang;
#N canvas 737 142 450 300 minNrange 0;
#X obj 181 117 random 1000;
#X obj 181 138 / 1000;
#X floatatom 181 220 5 0 0 0 - - -, f 5;
#X obj 181 93 inlet;
#X text 180 72 bang;
#X obj 181 162 * 1;
#X text 204 163 range;
#X obj 181 188 + 0;
#X text 207 191 mean;
#X obj 281 95 inlet;
#X text 283 74 mean;
#X obj 332 95 inlet;
#X text 330 75 range;
#X obj 181 244 outlet;
#X connect 0 0 1 0;
#X connect 1 0 5 0;
#X connect 2 0 13 0;
#X connect 3 0 0 0;
#X connect 5 0 7 0;
#X connect 7 0 2 0;
#X connect 9 0 7 1;
#X connect 11 0 5 1;
#X restore 612 86 pd minNrange;
#N canvas 737 142 450 300 minNrange 0;
#X obj 181 117 random 1000;
#X obj 181 138 / 1000;
#X floatatom 181 220 5 0 0 0 - - -, f 5;
#X obj 181 93 inlet;
#X text 180 72 bang;
#X obj 181 162 * 1;
#X text 204 163 range;
#X obj 181 188 + 0;
#X text 207 191 mean;
#X obj 281 95 inlet;
#X text 283 74 mean;
#X obj 332 95 inlet;
#X text 330 75 range;
#X obj 181 244 outlet;
#X connect 0 0 1 0;
#X connect 1 0 5 0;
#X connect 2 0 13 0;
#X connect 3 0 0 0;
#X connect 5 0 7 0;
#X connect 7 0 2 0;
#X connect 9 0 7 1;
#X connect 11 0 5 1;
#X restore 471 183 pd minNrange;
#N canvas 737 142 450 300 minNrange 0;
#X obj 181 117 random 1000;
#X obj 181 138 / 1000;
#X floatatom 181 220 5 0 0 0 - - -, f 5;
#X obj 181 93 inlet;
#X text 180 72 bang;
#X obj 181 162 * 1;
#X text 204 163 range;
#X obj 181 188 + 0;
#X text 207 191 mean;
#X obj 281 95 inlet;
#X text 283 74 mean;
#X obj 332 95 inlet;
#X text 330 75 range;
#X obj 181 244 outlet;
#X connect 0 0 1 0;
#X connect 1 0 5 0;
#X connect 2 0 13 0;
#X connect 3 0 0 0;
#X connect 5 0 7 0;
#X connect 7 0 2 0;
#X connect 9 0 7 1;
#X connect 11 0 5 1;
#X restore 559 236 pd minNrange;
#N canvas 737 142 450 300 minNrange 0;
#X obj 181 117 random 1000;
#X obj 181 138 / 1000;
#X floatatom 181 220 5 0 0 0 - - -, f 5;
#X obj 181 93 inlet;
#X text 180 72 bang;
#X obj 181 162 * 1;
#X text 204 163 range;
#X obj 181 188 + 0;
#X text 207 191 mean;
#X obj 281 95 inlet;
#X text 283 74 mean;
#X obj 332 95 inlet;
#X text 330 75 range;
#X obj 181 244 outlet;
#X connect 0 0 1 0;
#X connect 1 0 5 0;
#X connect 2 0 13 0;
#X connect 3 0 0 0;
#X connect 5 0 7 0;
#X connect 7 0 2 0;
#X connect 9 0 7 1;
#X connect 11 0 5 1;
#X restore 635 285 pd minNrange;
#X obj 12 46 s maxDel;
#X msg 12 26 2000;
#X obj 12 86 s maxLength;
#X msg 12 66 100;
#X obj 227 41 s tRange;
#X obj 227 62 s lRange;
#X obj 228 83 s spRange;
#X obj 228 103 s stRange;
#X obj 227 123 s vRange;
#X obj 171 144 s panning;
#X obj 735 290 hsl 128 15 0 1 0 0 empty vMin empty -2 -8 0 10 -262144
-1 -1 6350 1;
#X obj 770 314 hsl 128 15 0 1 0 0 empty vRange empty -2 -8 0 10 -262144
-1 -1 6350 1;
#X floatatom 698 376 5 0 0 0 - - -, f 5;
#X obj 698 356 min 1;
#N canvas 737 142 450 300 minNrange 0;
#X obj 181 117 random 1000;
#X obj 181 138 / 1000;
#X floatatom 181 220 5 0 0 0 - - -, f 5;
#X obj 181 93 inlet;
#X text 180 72 bang;
#X obj 181 162 * 1;
#X text 204 163 range;
#X obj 181 188 + 0;
#X text 207 191 mean;
#X obj 281 95 inlet;
#X text 283 74 mean;
#X obj 332 95 inlet;
#X text 330 75 range;
#X obj 181 244 outlet;
#X connect 0 0 1 0;
#X connect 1 0 5 0;
#X connect 2 0 13 0;
#X connect 3 0 0 0;
#X connect 5 0 7 0;
#X connect 7 0 2 0;
#X connect 9 0 7 1;
#X connect 11 0 5 1;
#X restore 698 336 pd minNrange;
#X text 872 289 volume min;
#X text 906 313 volume range;
#X text 809 238 start min;
#X text 733 187 speed min;
#X text 641 137 length min;
#X obj 234 638 *~ 1;
#X obj 172 41 s tMin;
#X obj 172 62 s lMin;
#X obj 173 83 s spMin;
#X obj 173 103 s stMin;
#X obj 172 123 s vMin;
#X msg 117 82 0.5;
#X msg 117 102 0.1;
#X msg 117 121 10;
#X msg 117 141 1;
#X msg 117 61 50;
#X msg 117 42 300;
#X text 492 30 start here!;
#X text 322 40 for octave lock;
#X text 308 57 see the toggle below;
#X text 783 39 firing rate min;
#X text 824 65 firing rate range;
#X connect 0 0 18 0;
#X connect 1 0 0 0;
#X connect 2 0 0 1;
#X connect 2 0 57 0;
#X connect 3 0 82 1;
#X connect 4 0 82 2;
#X connect 5 0 33 0;
#X connect 6 0 83 1;
#X connect 7 0 83 2;
#X connect 8 0 42 0;
#X connect 9 0 84 1;
#X connect 10 0 84 2;
#X connect 11 0 37 0;
#X connect 12 0 81 1;
#X connect 13 0 81 2;
#X connect 14 0 2 0;
#X connect 18 0 19 0;
#X connect 18 1 84 0;
#X connect 18 2 83 0;
#X connect 18 3 82 0;
#X connect 18 4 81 0;
#X connect 19 0 62 0;
#X connect 21 0 67 0;
#X connect 22 0 23 0;
#X connect 23 0 24 0;
#X connect 24 0 25 0;
#X connect 25 0 32 1;
#X connect 26 0 22 0;
#X connect 27 0 28 0;
#X connect 28 0 26 0;
#X connect 29 0 26 0;
#X connect 31 0 29 0;
#X connect 31 0 61 0;
#X connect 32 0 105 0;
#X connect 33 0 35 0;
#X connect 34 0 21 0;
#X connect 34 0 27 0;
#X connect 35 0 48 1;
#X connect 36 0 35 1;
#X connect 37 0 39 1;
#X connect 38 0 37 1;
#X connect 39 0 21 0;
#X connect 39 0 47 0;
#X connect 40 0 39 0;
#X connect 41 0 54 0;
#X connect 42 0 45 0;
#X connect 44 0 51 0;
#X connect 44 1 51 1;
#X connect 45 0 44 0;
#X connect 47 0 52 0;
#X connect 47 0 73 1;
#X connect 48 0 57 1;
#X connect 49 0 53 0;
#X connect 50 0 49 0;
#X connect 50 1 49 1;
#X connect 51 0 63 0;
#X connect 52 0 54 1;
#X connect 52 0 70 0;
#X connect 53 0 52 0;
#X connect 53 1 52 1;
#X connect 54 0 71 0;
#X connect 55 0 64 0;
#X connect 56 0 49 0;
#X connect 56 0 28 1;
#X connect 56 0 34 1;
#X connect 57 0 56 0;
#X connect 59 0 66 1;
#X connect 60 0 66 0;
#X connect 61 0 65 0;
#X connect 62 0 41 0;
#X connect 62 1 40 0;
#X connect 62 1 48 0;
#X connect 62 2 31 0;
#X connect 63 0 55 1;
#X connect 64 0 50 0;
#X connect 65 0 60 1;
#X connect 65 1 59 1;
#X connect 67 0 32 0;
#X connect 68 0 65 1;
#X connect 71 0 72 0;
#X connect 71 1 74 0;
#X connect 72 0 73 0;
#X connect 73 0 74 0;
#X connect 74 0 34 0;
#X connect 75 0 11 0;
#X connect 76 0 77 0;
#X connect 76 1 77 0;
#X connect 78 0 79 0;
#X connect 79 0 55 0;
#X connect 80 0 78 0;
#X connect 80 0 86 0;
#X connect 80 0 88 0;
#X connect 80 0 111 0;
#X connect 80 0 115 0;
#X connect 80 0 112 0;
#X connect 80 0 113 0;
#X connect 80 0 114 0;
#X connect 80 0 116 0;
#X connect 81 0 14 0;
#X connect 82 0 5 0;
#X connect 83 0 8 0;
#X connect 84 0 75 0;
#X connect 86 0 85 0;
#X connect 88 0 87 0;
#X connect 95 0 99 1;
#X connect 96 0 99 2;
#X connect 97 0 105 1;
#X connect 98 0 97 0;
#X connect 99 0 98 0;
#X connect 105 0 60 0;
#X connect 105 0 59 0;
#X connect 111 0 107 0;
#X connect 111 0 90 0;
#X connect 111 0 109 0;
#X connect 111 0 92 0;
#X connect 111 0 110 0;
#X connect 111 0 93 0;
#X connect 112 0 108 0;
#X connect 113 0 91 0;
#X connect 114 0 94 0;
#X connect 115 0 106 0;
#X connect 116 0 89 0;
