#N canvas 0 50 1366 696 10;
#X obj -116 -325 inlet;
#X obj 21 -325 inlet;
#X obj 151 -325 inlet;
#X msg -210 -59 stop;
#X obj -210 4 timer;
#X obj -210 29 * 48;
#X obj 238 -98 f;
#X obj 603 -69 bng 15 250 50 0 empty empty empty 17 7 0 10 -262144
-1 -1;
#X msg 238 -51 0 \$1;
#X msg 285 -27 stop;
#X obj 774 41 tgl 15 0 empty empty empty 17 7 0 10 -262144 -1 -1 1
1;
#X obj 603 56 spigot;
#X obj 665 -27 spigot;
#X obj 774 79 == 0;
#X obj -209 -325 inlet~;
#X text -210 -340 Audio In;
#X obj 237 109 outlet~;
#X obj 284 -325 inlet;
#X obj 471 -325 inlet;
#X text 469 -341 play loop from beginning;
#X obj -210 -102 spigot;
#X msg -40 -96 start;
#X obj -210 -35 bng 15 250 50 0 empty empty empty 17 7 0 10 -262144
-1 -1;
#X msg -132 -131 1;
#X msg -177 -129 0;
#X obj -210 -156 t b b;
#X floatatom -210 55 10 0 0 0 - - -, f 10;
#X floatatom 238 -73 10 0 0 0 - - -, f 10;
#X obj -74 -148 t b b b b;
#X obj 636 -128 tgl 15 0 empty empty empty 17 7 0 10 -262144 -1 -1
0 1;
#X obj 603 -108 spigot;
#X obj 653 -325 inlet;
#X text 652 -341 auto sart looping after recording;
#X obj 904 -325 inlet;
#X text 902 -341 play once;
#X obj 238 -145 bng 15 250 50 0 empty empty empty 17 7 0 10 -262144
-1 -1;
#X text 238 -204 PLAYER;
#X text 904 -169 10 seconds loop;
#X text -211 -212 RECORDER;
#X text 602 -206 LOOPER;
#X text 440 -377 INPUTS;
#X msg 774 9 0;
#X obj -116 -300 bng 15 250 50 0 empty empty empty 17 7 0 10 -262144
-1 -1;
#X obj 21 -300 bng 15 250 50 0 empty empty empty 17 7 0 10 -262144
-1 -1;
#X obj 151 -300 bng 15 250 50 0 empty empty empty 17 7 0 10 -262144
-1 -1;
#X obj 284 -300 bng 15 250 50 0 empty empty empty 17 7 0 10 -262144
-1 -1;
#X obj 471 -300 bng 15 250 50 0 empty empty empty 17 7 0 10 -262144
-1 -1;
#X obj 653 -300 bng 15 250 50 0 empty empty empty 17 7 0 10 -262144
-1 -1;
#X obj 904 -300 bng 15 250 50 0 empty empty empty 17 7 0 10 -262144
-1 -1;
#X text -116 -340 start recording;
#X text 20 -340 stop recording;
#X obj 999 -325 inlet;
#X text 997 -341 direct;
#X obj 256 83 *~;
#X obj -210 -276 s~ AudioIn\$0;
#X obj -116 -276 s StartRecording\$0;
#X obj 21 -276 s StopRecording\$0;
#X obj 151 -276 s StopPlayLoop\$0;
#X obj 284 -276 s StopPlayLoopSync\$0;
#X obj 471 -276 s PlayLoop\$0;
#X obj 653 -276 s AutoStartLoop\$0;
#X obj 904 -276 s PlayOnce\$0;
#X obj 999 -276 s Direct\$0;
#X obj -210 -178 r StopRecording\$0;
#X obj -74 -169 r StartRecording\$0;
#X obj -23 -122 s StopPlayLoop\$0;
#X obj -21 -70 r~ AudioIn\$0;
#X obj -40 -42 tabwrite~ LoopInMemory\$0;
#X obj -152 4 s RecordStop\$0;
#X obj -210 77 s LoopLength\$0;
#X obj 238 -172 r Play\$0;
#X obj 253 -123 r LoopLength\$0;
#X obj 285 -51 r StopPlayLoop\$0;
#X obj 238 5 tabplay~ LoopInMemory\$0;
#X obj 257 31 r~ AudioIn\$0;
#X obj 373 28 s PlayLoop\$0;
#X obj 271 57 r Direct\$0;
#X obj 603 -172 r RecordStop\$0;
#X obj 636 -150 r AutoStartLoop\$0;
#X obj 666 -108 r PlayLoop\$0;
#X obj 667 -80 r PlayOnce\$0;
#X obj 774 -26 r StopPlayLoopSync\$0;
#X obj 603 80 s Play\$0;
#X text 150 -341 stop now;
#X text 282 -341 stop at the end of loop;
#X obj 823 9 loadbang;
#X obj 871 -152 table LoopInMemory\$0 480000;
#X text 895 -132 Sample Rate: 48KHz;
#X connect 0 0 42 0;
#X connect 1 0 43 0;
#X connect 2 0 44 0;
#X connect 3 0 22 0;
#X connect 3 0 67 0;
#X connect 4 0 5 0;
#X connect 5 0 26 0;
#X connect 6 0 27 0;
#X connect 7 0 11 0;
#X connect 7 0 12 0;
#X connect 8 0 73 0;
#X connect 9 0 73 0;
#X connect 10 0 11 1;
#X connect 10 0 13 0;
#X connect 11 0 82 0;
#X connect 12 0 10 0;
#X connect 13 0 12 1;
#X connect 14 0 54 0;
#X connect 17 0 45 0;
#X connect 18 0 46 0;
#X connect 20 0 3 0;
#X connect 21 0 67 0;
#X connect 22 0 4 1;
#X connect 22 0 68 0;
#X connect 23 0 20 1;
#X connect 24 0 20 1;
#X connect 25 0 24 0;
#X connect 25 1 20 0;
#X connect 26 0 69 0;
#X connect 27 0 8 0;
#X connect 28 0 23 0;
#X connect 28 1 4 0;
#X connect 28 2 21 0;
#X connect 28 3 65 0;
#X connect 29 0 30 1;
#X connect 30 0 7 0;
#X connect 31 0 47 0;
#X connect 33 0 48 0;
#X connect 35 0 6 0;
#X connect 41 0 10 0;
#X connect 42 0 55 0;
#X connect 43 0 56 0;
#X connect 44 0 57 0;
#X connect 45 0 58 0;
#X connect 46 0 59 0;
#X connect 47 0 60 0;
#X connect 48 0 61 0;
#X connect 51 0 62 0;
#X connect 53 0 16 0;
#X connect 63 0 25 0;
#X connect 64 0 28 0;
#X connect 66 0 67 0;
#X connect 70 0 35 0;
#X connect 71 0 6 1;
#X connect 72 0 9 0;
#X connect 73 0 16 0;
#X connect 73 1 75 0;
#X connect 74 0 53 0;
#X connect 76 0 53 1;
#X connect 77 0 30 0;
#X connect 78 0 29 0;
#X connect 79 0 7 0;
#X connect 80 0 41 0;
#X connect 80 0 82 0;
#X connect 81 0 41 0;
#X connect 85 0 10 0;
