#N struct 1003-rectangle float x float c float step;
#N struct 1003-array array tab 1003-draw float x float y float c;
#N struct 1003-draw float x float y float c;
#N canvas 215 97 752 515 10;
#X declare -path patch_editor_abs;
#N canvas 0 50 1366 696 lissa-seq 0;
#X obj 857 414 s \$0-rectanglePointer;
#X msg 917 150 clear;
#X obj 918 304 s \$0-arrayPointer;
#X obj 877 282 t b p;
#X obj 877 260 append \$0-array x y;
#X msg 1007 216 traverse \$1 \, bang;
#X obj 1007 238 pointer;
#X obj 1007 194 symbol pd-\$0-paintSubpatch;
#X obj 877 348 setsize \$0-array tab;
#X msg 877 238 200 200;
#X obj 917 172 s pd-\$0-paintSubpatch;
#X obj 857 392 append \$0-rectangle x;
#X msg 857 370 0;
#X obj 877 327 nbx 3 15 1 128 0 0 empty \$0-steps steps 41 10 0 10
-262130 -1 -1 128 256;
#X obj 857 128 t b b b b;
#X obj 870 61 bng 15 250 50 0 empty \$0-reset reset 17 7 0 10 -262144
-1 -1;
#X obj 857 38 loadbang;
#X obj 870 81 t b b;
#X obj 870 103 s \$0-cInit;
#X obj 571 167 set \$0-rectangle c;
#X obj 571 128 nbx 5 14 -1e+037 1e+037 0 0 empty \$0-bgcolor bgcolor
0 -8 0 10 -262130 -1 -1 235 256;
#X obj 476 22 r \$0-stepNumber;
#X obj 476 211 element \$0-array tab;
#X obj 613 189 r \$0-arrayPointer;
#X obj 476 233 get \$0-draw x y;
#X floatatom 476 321 5 0 0 0 - - -, f 5;
#X floatatom 578 322 5 0 0 0 - - -, f 5;
#X obj 476 299 i;
#X obj 578 300 i;
#X obj 536 445 hradio 15 1 1 8 empty \$0-scale scale 0 -8 0 10 -262130
-1 -1 4;
#X obj 536 465 text size \$0-scales;
#X obj 560 348 nbx 5 14 0 127 0 0 empty \$0-random random 0 -8 0 10
-262130 -1 -1 0 256;
#X obj 542 389 random 0;
#X obj 542 411 -;
#X obj 608 372 * 2;
#X obj 608 394 + 1;
#X obj 476 428 +;
#X obj 476 406 *;
#X obj 518 538 text get \$0-scales;
#X obj 476 494 t f b f;
#X obj 518 516 f;
#X obj 560 367 t f f;
#X obj 476 538 /;
#X obj 518 560 f;
#X obj 476 384 / 12;
#X obj 476 560 * 12;
#X obj 476 516 -;
#X obj 476 472 i;
#X obj 476 450 + 0.5;
#X obj 476 362 t f b;
#X obj 476 582 +;
#X obj 476 697 noteout;
#X obj 492 661 pgmout;
#X obj 551 642 nbx 5 14 -1e+037 1e+037 0 0 empty \$0-channel channel
0 -8 0 10 -262130 -1 -1 0 256;
#X obj 492 642 nbx 5 14 0 127 0 0 empty \$0-sound sound 0 -8 0 10 -262130
-1 -1 13 256;
#X obj 476 604 makenote 100 200;
#X obj 578 277 + 30;
#X obj 476 277 + 30;
#X obj 30 557 cnv 15 200 120 empty empty empty 20 12 0 14 -261682 -66577
0;
#X obj 694 38 r \$0-rectanglePointer;
#X obj 476 340 +;
#X obj 518 321 nbx 3 14 0 127 0 0 empty \$0-transpose transpose 0 -8
0 10 -262130 -1 -1 42 256;
#X obj 719 235 r \$0-arrayPointer;
#X obj 624 257 set \$0-array c;
#X obj 624 238 nbx 5 14 0 999 0 0 empty \$0-linecolor linecolor 0 -8
0 10 -262130 -1 -1 688 256;
#X obj 559 494 mod;
#N canvas 2535 482 450 300 \$0-paintSubpatch 0;
#X scalar 1003-rectangle 0 235 60 \;;
#X scalar 1003-array 200 200 688 \; 0 0 665 \; 136.897 -58.5365 665
\; -111.912 107.79 665 \; -45.4102 -139.951 665 \; 149.035 149.919
665 \; -76.4254 -136.114 665 \; -86.5586 100.725 665 \; 147.185 -49.3558
665 \; -33.7606 -9.82882 665 \; -119.584 67.4632 665 \; 131.523 -114.392
665 \; 12.0687 143.188 665 \; -141.385 -149.275 665 \; 103.504 131.7
665 \; 56.7569 -93.2149 665 \; -149.918 39.9682 665 \; 65.7887 19.6154
665 \; 96.1346 -76.089 665 \; -144.381 120.51 665 \; 21.9011 -145.809
665 \; 126.477 147.99 665 \; -125.289 -126.708 665 \; -24.0592 85.3216
665 \; 144.958 -30.4178 665 \; -94.448 -29.3087 665 \; -67.7607 84.4035
665 \; 149.829 -126.079 665 \; -54.7465 147.807 665 \; -105.074 -146.062
665 \; 140.635 121.18 665 \; -9.90894 -77.0464 665 \; -132.564 20.7187
665 \; 118.247 38.8939 665 \; 35.8937 -92.34 665 \; -147.591 131.146
665 \; 84.7659 -149.159 665 \; 78.2925 143.513 665 \; -148.767 -115.133
665 \; 43.3328 68.4558 665 \; 113.346 -10.9122 665 \; -135.997 -48.2943
665 \; -2.16557 99.9077 665 \; 137.781 -135.631 665 \; -110.438 149.877
665 \; -47.4955 -140.349 665 \; 149.27 108.592 665 \; -74.5341 -59.5716
665 \; -88.3626 1.13174 665 \; 146.749 57.4875 665 \; -31.6023 -106.992
665 \; -120.905 139.547 665 \; 130.446 -149.953 665 \; 14.2989 136.612
665 \; -142.106 -101.585 665 \; 101.94 50.3627 665 \; 58.7893 8.72665
665 \; -149.974 -66.4998 665 \; 63.8523 113.669 665 \; 97.8286 -142.838
665 \; -143.764 149.381 665 \; 19.7746 -132.212 815 \; 127.618 94.0562
665 \; -124.065 -41.0402 665 \; -26.2303 -18.4746 665 \; 145.509 75.1273
665 \; -92.727 -119.811 665 \; -69.7019 145.539 665 \; 149.71 -148.164
665 \; -52.6903 127.31 665 \; -106.686 -86.2949 665 \; 139.867 31.543
665 \; -7.7105 28.2159 665 \; -133.563 -83.4959 665 \; 116.856 125.442
665 \; 38.0635 -147.597 665 \; -147.962 146.323 665 \; 82.9704 -121.823
665 \; 80.1315 77.984 665 \; -148.48 -21.7665 665 \; 41.1846 -37.7643
665 \; 114.753 91.4455 665 \; -135.069 -130.611 665 \; -4.33068 149.044
665 \; 138.637 -143.838 665 \; -108.936 115.855 665 \; -49.5792 -69.4609
665 \; 149.468 12.1136 665 \; -72.615 47.2215 665 \; -90.1034 -99.0607
665 \; 146.277 135.175 665 \; -29.4102 -149.826 665 \; -122.175 140.757
665 \; 129.363 -109.344 665 \; 16.4168 60.575 665 \; -142.807 -2.26341
665 \; 100.259 -56.4066 665 \; 60.7754 106.196 665 \; -149.999 -139.101
665 \; 61.7859 149.977 665 \; 99.4874 -137.046 665 \; -143.12 102.361
665 \; 17.5168 -51.5649 665 \; 128.799 -7.52343 665 \; -122.814 65.4175
665 \; -28.4676 -112.831 665 \; 146.045 142.489 665 \; -90.986 -149.486
665 \; -71.58 132.743 665 \; 149.563 -94.8784 665 \; -50.6228 42.1979
665 \; -108.172 17.4237 665 \; 139.056 -74.1457 665 \; -5.58359 119.215
665 \; -134.519 -145.279 665 \; 115.556 148.337 665 \; 40.0483 -127.828
665 \; -148.319 87.2181 665 \; 81.1269 -32.5771 665 \; 82.0459 -27.1036
665 \; -148.151 82.6145 665 \; 39.204 -124.899 665 \; 116.159 147.405
665 \; -134.129 -146.537 665 \; -6.67782 122.522 665 \; 139.463 -78.9486
665 \; -107.461 22.9581 665 \; -51.6523 36.668 665 \; 149.632 -90.6042
665 \; \;;
#X coords 0 400 400 0 400 400 2 0 0;
#X restore 28 30 pd \$0-paintSubpatch;
#N canvas 152 92 322 377 seq 0;
#X obj 54 83 metro 200;
#X obj 136 39 pow -1;
#X obj 136 61 * 30000;
#X obj 54 105 f;
#X obj 54 127 + 1;
#X obj 126 188 r feel;
#X obj 54 149 & 255;
#X obj 54 193 & 1;
#X obj 54 171 t f f;
#X obj 54 215 pack;
#X obj 55 237 route 0 1;
#X obj 126 237 *;
#X obj 136 210 t b f;
#X floatatom 126 259 5 0 0 0 - - -, f 5;
#X obj 84 259 pipe;
#X obj 84 335 s \$0-stepNumber;
#X obj 136 19 nbx 5 14 20 500 0 1 empty bpm bpm 0 -8 0 10 -262130 -1
-1 177 256;
#X obj 190 296 nbx 5 14 1 128 0 1 empty \$0-steps steps 0 -8 0 10 -262130
-1 -1 128 256;
#X obj 54 38 tgl 15 0 empty play play 17 7 0 10 -262130 -1 -1 1 1;
#X obj 84 313 f;
#X obj 114 313 + 1;
#X obj 144 313 mod 128;
#X msg 144 291 0;
#X obj 84 292 b;
#X obj 54 58 t f b;
#X connect 0 0 3 0;
#X connect 1 0 2 0;
#X connect 2 0 0 1;
#X connect 2 0 12 0;
#X connect 3 0 4 0;
#X connect 4 0 6 0;
#X connect 5 0 11 0;
#X connect 6 0 3 1;
#X connect 6 0 8 0;
#X connect 7 0 9 0;
#X connect 8 0 7 0;
#X connect 8 1 9 1;
#X connect 9 0 10 0;
#X connect 10 0 23 0;
#X connect 10 1 14 0;
#X connect 11 0 13 0;
#X connect 11 0 14 1;
#X connect 12 0 11 0;
#X connect 12 1 11 1;
#X connect 14 0 23 0;
#X connect 16 0 1 0;
#X connect 17 0 21 1;
#X connect 18 0 24 0;
#X connect 19 0 20 0;
#X connect 19 0 15 0;
#X connect 20 0 21 0;
#X connect 21 0 19 1;
#X connect 22 0 21 0;
#X connect 23 0 19 0;
#X connect 24 0 0 0;
#X connect 24 1 22 0;
#X restore 40 655 pd seq;
#X obj 40 633 text define -k \$0-scales;
#A set 0 1 2 3 4 5 6 7 8 9 10 11 \; 0 0 2 2 4 5 5 7 7 9 9 11 \; 0 2
4 5 7 9 11 \; 0 2 3 5 7 8 10 \; 0 4 7 \; 0 3 7 \; 0 1 \; 0 \;;
#X obj 584 146 change;
#X obj 584 189 b;
#X obj 700 385 until;
#X obj 700 434 f 0;
#X obj 729 434 + 1;
#X msg 715 409 0;
#X obj 810 664 nbx 5 14 -1e+037 1e+037 0 0 empty \$0-lissajous_p1 lissajous_p1
0 -8 0 10 -262130 -1 -1 481.35 256;
#X obj 806 718 nbx 5 14 -1e+037 1e+037 0 0 empty \$0-lissajous_p2 lissajous_p2
0 -8 0 10 -262130 -1 -1 534.38 256;
#X obj 699 760 set \$0-draw y;
#X obj 700 716 set \$0-draw x;
#X obj 867 521 element \$0-array tab;
#X obj 1004 499 r \$0-arrayPointer;
#X obj 702 360 f;
#X obj 977 641 spigot;
#X obj 1016 621 tgl 15 0 empty \$0-motion motion 17 7 0 10 -262144
-1 -1 0 1;
#X obj 720 340 nbx 3 15 1 128 0 0 empty \$0-steps steps 41 10 0 10
-262130 -1 -1 128 256;
#X obj 720 584 set \$0-draw c;
#X obj 802 542 nbx 5 14 -1e+037 1e+037 0 0 empty \$0-color color 0
-8 0 10 -262130 -1 -1 665 256;
#X obj 720 562 f;
#X obj 740 511 nbx 5 14 -1e+037 1e+037 0 0 empty \$0-colorOn colorOn
0 -8 0 10 -262130 -1 -1 815 256;
#X obj 740 478 sel;
#X obj 802 508 b;
#X obj 700 456 t f b f f;
#X obj 995 675 nbx 5 14 0 999 0 0 empty \$0-mSpeed mSpeed 0 -8 0 10
-262130 -1 -1 7 256;
#X obj 700 661 *;
#X obj 718 639 / 100;
#X obj 476 255 / 8;
#X obj 578 255 / 8;
#X obj 571 91 r \$0-cInit;
#X obj 977 716 * 1;
#X obj 700 683 expr sin(6.2832*$f1*$f2/$f3)*150;
#X obj 700 738 expr sin((6.2832*$f1*$f2/$f3)+$f4/3)*150;
#N canvas 514 354 450 75 \$0-array 0;
#X obj 16 42 plot tab c 1 0 0;
#X obj 16 20 struct \$0-array array tab \$0-draw float x float y float
c;
#X restore 40 589 pd \$0-array;
#N canvas 517 156 359 104 \$0-draw 0;
#X obj 15 18 struct \$0-draw float x float y float c;
#X obj 15 40 filledcurve c c 3 0 1 0 1;
#X restore 40 567 pd \$0-draw;
#N canvas 807 595 470 178 \$0-rectangle 0;
#X obj 44 92 s \$0-rectangle;
#X text 42 34 This is a one pixel polygon that will be stretched to
the size of the area;
#X obj 44 114 filledpolygon c 0 0 0 0 400 0 400 400 0 400;
#X obj 44 70 struct \$0-rectangle float x float c float step;
#X obj 44 145 drawnumber step 5 20 0 step=;
#X connect 3 0 0 0;
#X restore 40 611 pd \$0-rectangle;
#X obj 270 770 f;
#X obj 252 639 until;
#X obj 252 661 f;
#X obj 296 639 0;
#X obj 282 661 + 1;
#X obj 270 792 set \$0-draw c;
#X msg 252 617 128;
#X obj 358 770 element \$0-array tab;
#X obj 495 748 r \$0-arrayPointer;
#X obj 252 554 nbx 5 14 -1e+037 1e+037 0 0 empty \$0-color color 0
-8 0 10 -262130 -1 -1 665 256;
#X obj 252 727 sel;
#X obj 270 748 b;
#X obj 270 705 r \$0-stepNumber;
#X obj 252 595 t b b;
#X obj 252 683 t f f;
#X obj 252 573 t b f;
#X obj 326 642 nbx 5 14 -1e+037 1e+037 0 0 empty \$0-colorOn colorOn
0 -8 0 10 -262130 -1 -1 815 256;
#X obj 376 661 r \$0-stepNumber;
#X obj 358 683 f;
#X obj 326 661 t f b;
#X obj 326 584 r \$0-cInit;
#X obj 995 694 / 100;
#X obj 718 619 nbx 5 14 1 1000 0 0 empty \$0-lissajous_p3 lissajous_p3
0 -8 0 10 -262130 -1 -1 300.94 256;
#X obj 762 318 f;
#X obj 792 318 + 1;
#X obj 780 297 0;
#X obj 780 275 r play;
#X obj 702 296 t b b f b;
#X obj 536 67 set \$0-rectangle step;
#X obj 476 45 t f f b f;
#X obj 29 430 cnv 15 400 100 empty empty empty 20 12 0 14 -261682 -66577
0;
#X obj 245 465 nbx 3 15 1 128 0 1 \$0-sound \$0-no-r pgm 41 10 0 10
-203904 -1 -1 13 256;
#X obj 245 480 nbx 3 15 1 16 0 0 \$0-channel \$0-no-r midich 41 10
0 10 -203904 -1 -1 1 256;
#X obj 35 435 tgl 15 0 play \$0-no-r play 17 7 0 10 -262130 -1 -1 1
1;
#X obj 35 450 nbx 3 15 20 500 0 1 bpm \$0-no-r bpm 41 10 0 10 -262130
-1 -1 177 256;
#X obj 35 465 nbx 3 15 1 128 0 1 \$0-steps \$0-no-r steps 41 10 0 10
-262130 -1 -1 128 256;
#X obj 38 495 hsl 35 15 0 0.33 0 1 feel \$0-no-r swing 39 10 0 10 -262130
-1 -1 0 0;
#X obj 35 480 nbx 3 15 0 9 0 1 \$0-random \$0-no-r random 41 10 0 10
-262130 -1 -1 0 256;
#X obj 370 480 nbx 5 14 0 999 0 1 \$0-colorOn \$0-no-r colorOn 0 -8
0 10 -262130 -1 -1 815 256;
#X obj 370 451 nbx 5 14 0 999 0 1 \$0-color \$0-no-r color 0 -8 0 10
-262130 -1 -1 665 256;
#X obj 245 450 hradio 15 1 1 8 \$0-scale \$0-no-r scale 0 -8 0 10 -262130
-1 -1 4;
#X obj 312 510 nbx 5 14 0 999 0 1 \$0-bgcolor \$0-no-r bgcolor 0 -8
0 10 -262130 -1 -1 235 256;
#X obj 35 510 nbx 3 14 0 127 0 1 \$0-transpose \$0-no-r transp 41 10
0 10 -262130 -1 -1 42 256;
#X obj 370 510 nbx 5 14 0 999 0 1 \$0-linecolor \$0-no-r linecolor
0 -8 0 10 -262130 -1 -1 688 256;
#X obj 122 449 nbx 5 14 1 1000 0 1 \$0-lissajous_p1 empty lissajous_p1
0 -8 0 10 -262130 -1 -1 481.35 256;
#X obj 122 510 nbx 5 14 1 1000 0 1 \$0-lissajous_p3 empty lissajous_p3
0 -8 0 10 -262130 -1 -1 300.94 256;
#X obj 188 509 tgl 15 1 \$0-motion - motion 17 7 0 10 -262130 -1 -1
0 1;
#X obj 245 510 nbx 5 14 1 100 0 1 \$0-mSpeed \$0-no-r mSpeed 0 -8 0
10 -262130 -1 -1 7 256;
#X obj 122 479 nbx 5 14 1 1000 0 1 \$0-lissajous_p2 empty lissajous_p2
0 -8 0 10 -262130 -1 -1 534.38 256;
#X text 1052 298 counter;
#X obj 1130 344 + 1;
#X obj 1054 346 bng 15 250 50 0 empty empty empty 17 7 0 10 -262144
-1 -1;
#X obj 1054 374 float 1;
#X obj 1056 321 r b2;
#X obj 1129 371 mod 8;
#X obj -7 406 r b0;
#X obj -6 435 r k0;
#X connect 1 0 10 0;
#X connect 3 0 13 0;
#X connect 3 1 2 0;
#X connect 3 1 8 1;
#X connect 4 0 3 0;
#X connect 5 0 6 0;
#X connect 6 0 4 2;
#X connect 6 0 11 1;
#X connect 7 0 5 0;
#X connect 9 0 4 0;
#X connect 11 0 0 0;
#X connect 12 0 11 0;
#X connect 13 0 8 0;
#X connect 14 0 12 0;
#X connect 14 1 9 0;
#X connect 14 2 7 0;
#X connect 14 3 1 0;
#X connect 15 0 17 0;
#X connect 16 0 14 0;
#X connect 17 0 18 0;
#X connect 17 1 14 0;
#X connect 20 0 19 0;
#X connect 20 0 69 0;
#X connect 21 0 133 0;
#X connect 22 0 24 0;
#X connect 23 0 22 1;
#X connect 24 0 95 0;
#X connect 24 1 96 0;
#X connect 25 0 60 0;
#X connect 26 0 60 0;
#X connect 27 0 25 0;
#X connect 28 0 26 0;
#X connect 29 0 30 0;
#X connect 29 0 40 1;
#X connect 30 0 37 1;
#X connect 30 0 42 1;
#X connect 30 0 65 1;
#X connect 31 0 41 0;
#X connect 32 0 33 0;
#X connect 33 0 36 1;
#X connect 34 0 35 0;
#X connect 35 0 32 1;
#X connect 36 0 48 0;
#X connect 37 0 36 0;
#X connect 38 0 43 0;
#X connect 39 0 46 0;
#X connect 39 1 40 0;
#X connect 39 2 65 0;
#X connect 40 0 38 0;
#X connect 41 0 33 1;
#X connect 41 1 34 0;
#X connect 42 0 45 0;
#X connect 43 0 50 1;
#X connect 44 0 37 0;
#X connect 45 0 50 0;
#X connect 46 0 42 0;
#X connect 47 0 39 0;
#X connect 48 0 47 0;
#X connect 49 0 44 0;
#X connect 49 1 32 0;
#X connect 50 0 55 0;
#X connect 53 0 52 1;
#X connect 53 0 51 2;
#X connect 54 0 52 0;
#X connect 55 0 51 0;
#X connect 55 1 51 1;
#X connect 56 0 28 0;
#X connect 57 0 27 0;
#X connect 59 0 19 1;
#X connect 59 0 132 1;
#X connect 60 0 49 0;
#X connect 61 0 60 1;
#X connect 62 0 63 1;
#X connect 64 0 63 0;
#X connect 65 0 38 1;
#X connect 65 0 46 1;
#X connect 69 0 70 0;
#X connect 70 0 64 0;
#X connect 71 0 72 0;
#X connect 72 0 73 0;
#X connect 72 0 91 0;
#X connect 73 0 72 1;
#X connect 74 0 72 1;
#X connect 75 0 99 1;
#X connect 76 0 100 1;
#X connect 79 0 77 1;
#X connect 79 0 78 1;
#X connect 79 0 85 1;
#X connect 80 0 79 1;
#X connect 81 0 71 0;
#X connect 82 0 98 0;
#X connect 83 0 82 1;
#X connect 84 0 81 1;
#X connect 84 0 99 2;
#X connect 84 0 100 2;
#X connect 86 0 87 1;
#X connect 87 0 85 0;
#X connect 88 0 87 1;
#X connect 89 0 88 0;
#X connect 89 1 90 0;
#X connect 90 0 86 0;
#X connect 91 0 93 0;
#X connect 91 1 87 0;
#X connect 91 2 89 0;
#X connect 91 3 79 0;
#X connect 92 0 125 0;
#X connect 93 0 99 0;
#X connect 93 0 100 0;
#X connect 94 0 93 1;
#X connect 95 0 57 0;
#X connect 96 0 56 0;
#X connect 97 0 20 0;
#X connect 97 0 64 0;
#X connect 98 0 100 3;
#X connect 99 0 78 0;
#X connect 100 0 77 0;
#X connect 104 0 109 0;
#X connect 105 0 106 0;
#X connect 106 0 108 0;
#X connect 106 0 118 0;
#X connect 107 0 106 1;
#X connect 108 0 106 1;
#X connect 110 0 105 0;
#X connect 111 0 109 1;
#X connect 112 0 111 1;
#X connect 113 0 119 0;
#X connect 114 1 115 0;
#X connect 115 0 104 0;
#X connect 116 0 114 1;
#X connect 117 0 110 0;
#X connect 117 1 107 0;
#X connect 118 0 114 0;
#X connect 118 1 111 0;
#X connect 119 0 117 0;
#X connect 119 1 104 1;
#X connect 120 0 123 0;
#X connect 121 0 122 1;
#X connect 122 0 111 0;
#X connect 123 0 109 0;
#X connect 123 1 122 0;
#X connect 124 0 113 0;
#X connect 124 0 120 0;
#X connect 125 0 98 1;
#X connect 126 0 94 0;
#X connect 127 0 82 0;
#X connect 127 0 128 0;
#X connect 128 0 127 1;
#X connect 129 0 127 1;
#X connect 130 0 129 0;
#X connect 131 0 81 0;
#X connect 131 1 74 0;
#X connect 131 2 89 1;
#X connect 131 3 127 0;
#X connect 133 0 22 0;
#X connect 133 1 131 0;
#X connect 133 2 20 0;
#X connect 133 3 132 0;
#X connect 154 0 158 0;
#X connect 155 0 156 0;
#X connect 156 0 154 0;
#X connect 156 0 144 0;
#X connect 157 0 155 0;
#X connect 158 0 156 1;
#X connect 159 0 137 0;
#X connect 160 0 138 0;
#X coords 0 500 400 0 400 500 2 30 30;
#X restore 35 6 pd lissa-seq;
#X obj 467 479 declare -path patch_editor_abs;
#X obj 638 227 knob 11;
#X obj 439 55 knob 0;
#X obj 539 56 knob 1;
#X obj 636 57 knob 2;
#X obj 440 115 knob 3;
#X obj 539 114 knob 4;
#X obj 637 114 knob 5;
#X obj 440 176 knob 6;
#X obj 536 176 knob 7;
#X obj 634 177 knob 8;
#X obj 442 226 knob 9;
#X obj 540 227 knob 10;
#X obj 457 302 butt 0;
#X obj 548 303 butt 1;
#X obj 646 305 butt 2;
