#N canvas 229 443 881 522 10;
#X declare -path patchmenu;
#X declare -path zexy;
#X declare -lib zexy;
#X declare -path iemlib;
#X declare -path cyclone;
#N canvas 534 50 1364 1020 mapping 0;
#X obj 1271 295 r page-ready;
#X obj 1266 88 r page-ready;
#X obj 1266 114 sel 3;
#X obj 1271 321 sel 4;
#X msg 1266 161 \; p3s1 This is Page 3 \; p3s2 It does nothing! \;
p3s3 See the 'mapping' \; p3s4 subpatch to define \; p3s5 stuff. \;
;
#X msg 1276 394 \; p4s1 This is Page 4 \; p4s2 It does nothing! \;
p4s3 See the 'mapping' \; p4s4 subpatch to define \; p4s5 stuff. \;
;
#X text 1434 95 page 3 and 4 don't have any use. 'page-ready' is a
number that gets sent out when a new page is selected \, so it is useful
for triggering messages like this. See the 'more-menu-info' subpatch
for more info.;
#X obj 115 22 r p1k1;
#X obj 114 127 i;
#X obj 406 17 r p1k2;
#X obj 662 14 r p1k3;
#X obj 883 10 r p1k4;
#X text 30 83 Page 1;
#X text 31 313 Page 2;
#X text 32 529 Page 3;
#X text 24 700 Page 4;
#X obj 111 214 r p2k1;
#X obj 403 205 r p2k2;
#X obj 666 210 r p2k3;
#X text 27 835 Page 5;
#X text 17 1004 Page 6;
#X text 13 1155 Page 7;
#X text 9 1312 Page 8;
#X obj 116 450 r p3k1;
#X obj 402 448 r p3k2;
#X obj 675 446 r p3k3;
#X obj 118 1363 oknob 1 0;
#X obj 406 1360 oknob 1 0;
#X obj 660 1365 oknob 1 0;
#X obj 874 1364 oknob 1 0;
#X obj 116 645 r p4k1;
#X obj 404 638 r p4k2;
#X obj 676 631 r p4k3;
#X obj 891 628 r p4k4;
#X obj 116 827 r p5k1;
#X obj 404 820 r p5k2;
#X obj 658 823 r p5k3;
#X obj 874 813 r p5k4;
#X obj 119 990 r p6k1;
#X obj 402 994 r p6k2;
#X obj 657 987 r p6k3;
#X obj 871 983 r p6k4, f 7;
#X obj 119 1147 r p7k1;
#X obj 402 1150 r p7k2;
#X obj 654 1158 r p7k3;
#X obj 868 1157 r p7k4;
#X obj 113 1315 r p8k1;
#X obj 401 1312 r p8k2;
#X obj 655 1317 r p8k3;
#X obj 869 1316 r p8k4;
#X msg 116 1387 \; p8s1 1: Page8 \$1;
#X msg 404 1384 \; p8s2 2: Page8 \$1;
#X msg 658 1388 \; p8s3 3: Page8 \$1;
#X msg 872 1388 \; p8s4 4: Page8 \$1;
#X obj 134 55 * 128;
#X obj 185 94 s in1;
#X msg 114 155 \; p1s1 1: Input \$1 %;
#X obj 407 126 i;
#X obj 425 56 * 128;
#X msg 409 154 \; p1s2 2: AmpSmooth \$1%;
#X obj 478 93 s in2;
#X obj 668 119 i;
#X obj 688 50 * 128;
#X obj 886 106 i;
#X obj 918 41 * 128;
#X obj 739 86 s in3;
#X msg 669 154 \; p1s3 3: Gate \$1 %;
#X msg 890 147 \; p1s4 4: Amp -/+ \$1 %;
#X obj 953 79 s in4;
#X obj 116 324 i;
#X obj 159 253 * 128;
#X obj 408 320 i;
#X obj 449 248 * 128;
#X obj 668 325 i;
#X obj 707 245 * 128;
#X obj 187 291 s lfo1;
#X msg 111 374 \; p2s1 1: Freq \$1 %;
#X msg 406 369 \; p2s2 2: P-Width \$1 %;
#X obj 479 287 s lfo2;
#X obj 739 292 s lfo3;
#X msg 667 372 \; p2s3 3: Depth \$1 %;
#X obj 120 555 i;
#X obj 152 490 * 128;
#X obj 191 522 s clk1;
#X msg 112 597 \; p3s1 1: Rate \$1%;
#X obj 400 555 i;
#X obj 456 485 * 128;
#X msg 400 594 \; p3s2 2:Random \$1%;
#X obj 471 522 s rv1;
#X obj 674 549 i;
#X obj 716 482 * 128;
#X obj 745 516 s rv2;
#X msg 670 583 \; p3s3 3: Slew \$1%;
#X obj 120 740 i;
#X obj 177 680 * 128;
#X obj 404 739 i;
#X obj 459 670 * 128;
#X obj 674 731 i;
#X obj 723 662 * 128;
#X obj 887 714 i;
#X obj 942 659 * 128;
#X msg 119 767 \; p4s1 1: Pitch \$1%;
#X obj 191 713 s grn1;
#X obj 475 706 s grn2;
#X obj 745 698 s grn3;
#X obj 955 692 s grn4;
#X msg 407 764 \; p4s2 2: Grain \$1%;
#X msg 677 753 \; p4s3 3: Reverb \$1%;
#X msg 891 752 \; p4s4 4: Dry/Wet \$1%;
#X obj 118 912 i;
#X obj 160 849 * 128;
#X obj 189 885 s sd1;
#X msg 114 939 \; p5s1 1: Rate L \$1;
#X obj 402 911 i;
#X obj 459 851 * 128;
#X obj 473 884 s sd2;
#X msg 402 936 \; p5s2 2: Rate R \$1;
#X obj 658 913 i;
#X obj 713 850 * 128;
#X msg 656 941 \; p5s3 3: feedback \$1%;
#X obj 729 886 s sd3;
#X msg 871 940 \; p5s4 4: LP \$1%;
#X obj 881 907 i;
#X obj 938 850 * 128;
#X obj 952 880 s sd4;
#X obj 118 1078 i;
#X obj 174 1023 * 128;
#X obj 190 1055 s sd5;
#X obj 405 1072 i;
#X obj 477 1049 s frz1;
#X obj 737 1053 s frz2;
#X obj 882 1068 i;
#X obj 955 1043 s frz3;
#X msg 657 1102 \; p6s3 3: GrainSpeed \$1%;
#X msg 403 1097 \; p6s2 2: GrainScrub \$1%;
#X msg 871 1101 \; p6s4 4: GrainSize \$1%;
#X obj 117 1240 i;
#X obj 185 1180 * 128;
#X obj 189 1217 s mx1;
#X msg 116 1276 \; p7s1 1: Mix1 \$1;
#X obj 402 1240 i;
#X obj 461 1181 * 128;
#X msg 401 1266 \; p7s2 2: Clean \$1;
#X obj 666 1245 i;
#X obj 714 1186 * 128;
#X obj 474 1217 s mx2;
#X obj 739 1222 s mx3;
#X obj 869 1244 i;
#X obj 928 1189 * 128;
#X obj 942 1221 s mx4;
#X msg 657 1274 \; p7s3 3: FreezeR \$1;
#X msg 867 1272 \; p7s4 4: FreezeL \$1;
#X msg 118 1098 \; p6s1 1: Delay \$1 %;
#X obj 669 1013 d-scale 0 1 -1 1 100;
#X obj 855 1012 d-scale 0 1 1024 19456 100;
#X obj 114 94 * 101;
#X obj 407 93 * 101;
#X obj 668 86 * 101;
#X obj 882 79 * 101;
#X obj 668 292 * 101;
#X obj 408 287 * 101;
#X obj 116 291 * 101;
#X obj 120 522 * 101;
#X obj 400 522 * 101;
#X obj 674 516 * 101;
#X obj 120 713 * 101;
#X obj 404 706 * 101;
#X obj 674 698 * 101;
#X obj 884 692 * 101;
#X obj 881 880 * 101;
#X obj 658 886 * 101;
#X obj 402 884 * 101;
#X obj 118 885 * 101;
#X obj 119 1055 * 101;
#X obj 403 1041 * 101;
#X obj 118 1217 * 101;
#X obj 403 1212 * 101;
#X obj 667 1217 * 101;
#X obj 870 1216 * 101;
#X connect 0 0 3 0;
#X connect 1 0 2 0;
#X connect 7 0 54 0;
#X connect 7 0 155 0;
#X connect 8 0 56 0;
#X connect 9 0 156 0;
#X connect 9 0 58 0;
#X connect 10 0 62 0;
#X connect 10 0 157 0;
#X connect 11 0 64 0;
#X connect 11 0 158 0;
#X connect 16 0 70 0;
#X connect 16 0 161 0;
#X connect 17 0 72 0;
#X connect 17 0 160 0;
#X connect 18 0 74 0;
#X connect 18 0 159 0;
#X connect 23 0 82 0;
#X connect 23 0 162 0;
#X connect 24 0 86 0;
#X connect 24 0 163 0;
#X connect 25 0 90 0;
#X connect 25 0 164 0;
#X connect 26 0 50 0;
#X connect 27 0 51 0;
#X connect 28 0 52 0;
#X connect 29 0 53 0;
#X connect 30 0 94 0;
#X connect 30 0 165 0;
#X connect 31 0 96 0;
#X connect 31 0 166 0;
#X connect 32 0 98 0;
#X connect 32 0 167 0;
#X connect 33 0 100 0;
#X connect 33 0 168 0;
#X connect 34 0 110 0;
#X connect 34 0 172 0;
#X connect 35 0 114 0;
#X connect 35 0 171 0;
#X connect 36 0 118 0;
#X connect 36 0 170 0;
#X connect 37 0 123 0;
#X connect 37 0 169 0;
#X connect 38 0 126 0;
#X connect 38 0 173 0;
#X connect 39 0 129 0;
#X connect 39 0 174 0;
#X connect 40 0 153 0;
#X connect 41 0 154 0;
#X connect 42 0 137 0;
#X connect 42 0 175 0;
#X connect 43 0 141 0;
#X connect 43 0 176 0;
#X connect 44 0 144 0;
#X connect 44 0 177 0;
#X connect 45 0 148 0;
#X connect 45 0 178 0;
#X connect 46 0 26 0;
#X connect 47 0 27 0;
#X connect 48 0 28 0;
#X connect 49 0 29 0;
#X connect 54 0 55 0;
#X connect 57 0 59 0;
#X connect 58 0 60 0;
#X connect 61 0 66 0;
#X connect 62 0 65 0;
#X connect 63 0 67 0;
#X connect 64 0 68 0;
#X connect 69 0 76 0;
#X connect 70 0 75 0;
#X connect 71 0 77 0;
#X connect 72 0 78 0;
#X connect 73 0 80 0;
#X connect 74 0 79 0;
#X connect 81 0 84 0;
#X connect 82 0 83 0;
#X connect 85 0 87 0;
#X connect 86 0 88 0;
#X connect 89 0 92 0;
#X connect 90 0 91 0;
#X connect 93 0 101 0;
#X connect 94 0 102 0;
#X connect 95 0 106 0;
#X connect 96 0 103 0;
#X connect 97 0 107 0;
#X connect 98 0 104 0;
#X connect 99 0 108 0;
#X connect 100 0 105 0;
#X connect 109 0 112 0;
#X connect 110 0 111 0;
#X connect 113 0 116 0;
#X connect 114 0 115 0;
#X connect 117 0 119 0;
#X connect 118 0 120 0;
#X connect 122 0 121 0;
#X connect 123 0 124 0;
#X connect 125 0 152 0;
#X connect 126 0 127 0;
#X connect 128 0 134 0;
#X connect 131 0 135 0;
#X connect 131 0 132 0;
#X connect 136 0 139 0;
#X connect 137 0 138 0;
#X connect 140 0 142 0;
#X connect 141 0 145 0;
#X connect 143 0 150 0;
#X connect 144 0 146 0;
#X connect 147 0 151 0;
#X connect 148 0 149 0;
#X connect 153 0 130 0;
#X connect 153 0 133 0;
#X connect 154 0 131 0;
#X connect 155 0 8 0;
#X connect 156 0 57 0;
#X connect 157 0 61 0;
#X connect 158 0 63 0;
#X connect 159 0 73 0;
#X connect 160 0 71 0;
#X connect 161 0 69 0;
#X connect 162 0 81 0;
#X connect 163 0 85 0;
#X connect 164 0 89 0;
#X connect 165 0 93 0;
#X connect 166 0 95 0;
#X connect 167 0 97 0;
#X connect 168 0 99 0;
#X connect 169 0 122 0;
#X connect 170 0 117 0;
#X connect 171 0 113 0;
#X connect 172 0 109 0;
#X connect 173 0 125 0;
#X connect 174 0 128 0;
#X connect 175 0 136 0;
#X connect 176 0 140 0;
#X connect 177 0 143 0;
#X connect 178 0 147 0;
#X restore 74 257 pd mapping;
#X obj 77 43 declare -path patchmenu;
#X obj 75 207 patchmenu;
#X obj 108 159 s enableSubMenu;
#X obj 76 66 loadbang;
#X msg 76 182 0;
#X obj 76 115 t b b;
#X obj 283 61 vsl 15 64 0 1 0 0 empty empty empty 0 -9 0 10 -262144
-1 -1 3913 1;
#X obj 283 37 r p1k1;
#X obj 340 61 vsl 15 64 0 1 0 0 empty empty empty 0 -9 0 10 -262144
-1 -1 3162 1;
#X obj 397 61 vsl 15 64 0 1 0 0 empty empty empty 0 -9 0 10 -262144
-1 -1 5783 1;
#X obj 454 61 vsl 15 64 0 1 0 0 empty empty empty 0 -9 0 10 -262144
-1 -1 1569 1;
#X obj 340 37 r p1k2;
#X obj 397 37 r p1k3;
#X obj 454 37 r p1k4;
#X obj 281 165 vsl 15 64 0 1 0 0 empty empty empty 0 -9 0 10 -262144
-1 -1 1766 1;
#X obj 338 165 vsl 15 64 0 1 0 0 empty empty empty 0 -9 0 10 -262144
-1 -1 1212 1;
#X obj 395 165 vsl 15 64 0 1 0 0 empty empty empty 0 -9 0 10 -262144
-1 -1 4024 1;
#X obj 452 165 vsl 15 64 0 1 0 0 empty empty empty 0 -9 0 10 -262144
-1 -1 3199 1;
#X obj 281 268 vsl 15 64 0 1 0 0 empty empty empty 0 -9 0 10 -262144
-1 -1 6288 1;
#X obj 338 268 vsl 15 64 0 1 0 0 empty empty empty 0 -9 0 10 -262144
-1 -1 5586 1;
#X obj 395 268 vsl 15 64 0 1 0 0 empty empty empty 0 -9 0 10 -262144
-1 -1 6103 1;
#X obj 452 268 vsl 15 64 0 1 0 0 empty empty empty 0 -9 0 10 -262144
-1 -1 0 1;
#X obj 281 373 vsl 15 64 0 1 0 0 empty empty empty 0 -9 0 10 -262144
-1 -1 6288 1;
#X obj 338 373 vsl 15 64 0 1 0 0 empty empty empty 0 -9 0 10 -262144
-1 -1 6288 1;
#X obj 395 373 vsl 15 64 0 1 0 0 empty empty empty 0 -9 0 10 -262144
-1 -1 6183 1;
#X obj 452 373 vsl 15 64 0 1 0 0 empty empty empty 0 -9 0 10 -262144
-1 -1 1686 1;
#X obj 231 70 r p1a;
#X obj 232 91 tgl 15 0 empty empty empty 17 7 0 10 -262144 -1 -1 0
1;
#X obj 233 199 tgl 15 0 empty empty empty 17 7 0 10 -262144 -1 -1 0
1;
#X obj 237 302 tgl 15 0 empty empty empty 17 7 0 10 -262144 -1 -1 0
1;
#X obj 236 412 tgl 15 0 empty empty empty 17 7 0 10 -262144 -1 -1 0
1;
#X obj 281 141 r p2k1;
#X obj 338 142 r p2k2;
#X obj 395 141 r p2k3;
#X obj 452 141 r p2k4;
#X obj 281 246 r p3k1;
#X obj 337 245 r p3k2;
#X obj 395 244 r p3k3;
#X obj 453 244 r p3k4;
#X obj 281 349 r p4k1;
#X obj 338 349 r p4k2;
#X obj 396 350 r p4k3;
#X obj 452 350 r p4k4;
#X obj 233 177 r p2a;
#X obj 234 280 r p3a;
#X obj 235 389 r p4a;
#N canvas 108 156 679 492 more-menu-info 0;
#X text 74 180 When you select a page from the menu (or turn the wheel
which brings up the menu page) \, the following events are triggered:
;
#X text 72 26 We like to thinkg of these pages as functional spaces
as opposed to simple knob pages. Having the Aux button paged means
it is possible to have \, for example \, a sample record page. In this
context it is helpful to have some signals that indicate page change
events. For example consider a page that was recording a sample to
be manipulated elsewhere in the patch. If you started a recording on
the record page but didn't stop it \, you might want to stop it automatically
when you navigate to a new page. To help solve this kind of issue the
menu system provides the following signals and values.;
#X obj 89 235 r page-closing;
#X floatatom 89 257 5 0 0 0 - - -, f 5;
#X text 189 244 First the current page numer is sent out as page-closing.
;
#X text 190 287 Then the OLED is cleard \, the new OLED page is activated
\, and the page knob paramters are recalled.;
#X text 191 334 The curpage value is updated with the new page value.
;
#X obj 92 333 v curpage;
#X floatatom 89 401 5 0 0 0 - - -, f 5;
#X obj 89 379 r page-ready;
#X text 189 382 Finally the new page number is sent out as page-ready.
;
#X connect 2 0 3 0;
#X connect 9 0 8 0;
#X restore 74 283 pd more-menu-info;
#N canvas 365 129 955 915 guts 0;
#X obj 222 428 granular-delay 1;
#X obj 227 5 external-audio 1;
#X obj 80 251 random-voltages 1;
#X obj 78 161 clock 1;
#X obj 223 561 stereo-delay 1;
#X obj 286 177 basic-lfo 1;
#X obj 664 406 rg_grain~;
#X obj 457 689 mixer4;
#X obj 460 831 throw~ outL;
#X obj 625 834 throw~ outR;
#X connect 0 0 4 0;
#X connect 1 0 0 0;
#X connect 1 0 7 1;
#X connect 1 0 6 0;
#X connect 1 1 0 0;
#X connect 1 1 7 1;
#X connect 1 1 6 0;
#X connect 1 3 5 1;
#X connect 1 3 3 0;
#X connect 1 4 5 0;
#X connect 2 1 0 1;
#X connect 3 0 2 0;
#X connect 4 0 7 0;
#X connect 4 1 7 0;
#X connect 5 0 0 2;
#X connect 6 0 7 2;
#X connect 6 0 7 3;
#X connect 7 0 8 0;
#X connect 7 0 9 0;
#X restore 74 308 pd guts;
#X obj 76 90 versioncheck 2;
#X obj 572 61 vsl 15 64 0 1 0 0 empty empty empty 0 -9 0 10 -262144
-1 -1 4700 1;
#X obj 629 61 vsl 15 64 0 1 0 0 empty empty empty 0 -9 0 10 -262144
-1 -1 4848 1;
#X obj 686 61 vsl 15 64 0 1 0 0 empty empty empty 0 -9 0 10 -262144
-1 -1 6288 1;
#X obj 743 61 vsl 15 64 0 1 0 0 empty empty empty 0 -9 0 10 -262144
-1 -1 1747 1;
#X obj 570 165 vsl 15 64 0 1 0 0 empty empty empty 0 -9 0 10 -262144
-1 -1 4670 1;
#X obj 627 165 vsl 15 64 0 1 0 0 empty empty empty 0 -9 0 10 -262144
-1 -1 4380 1;
#X obj 684 165 vsl 15 64 0 1 0 0 empty empty empty 0 -9 0 10 -262144
-1 -1 5783 1;
#X obj 741 165 vsl 15 64 0 1 0 0 empty empty empty 0 -9 0 10 -262144
-1 -1 3556 1;
#X obj 570 268 vsl 15 64 0 1 0 0 empty empty empty 0 -9 0 10 -262144
-1 -1 3538 1;
#X obj 627 268 vsl 15 64 0 1 0 0 empty empty empty 0 -9 0 10 -262144
-1 -1 4350 1;
#X obj 684 268 vsl 15 64 0 1 0 0 empty empty empty 0 -9 0 10 -262144
-1 -1 0 1;
#X obj 741 268 vsl 15 64 0 1 0 0 empty empty empty 0 -9 0 10 -262144
-1 -1 0 1;
#X obj 570 373 vsl 15 64 0 1 0 0 empty empty empty 0 -9 0 10 -262144
-1 -1 0 1;
#X obj 627 373 vsl 15 64 0 1 0 0 empty empty empty 0 -9 0 10 -262144
-1 -1 0 1;
#X obj 684 373 vsl 15 64 0 1 0 0 empty empty empty 0 -9 0 10 -262144
-1 -1 0 1;
#X obj 741 373 vsl 15 64 0 1 0 0 empty empty empty 0 -9 0 10 -262144
-1 -1 6288 1;
#X obj 520 92 tgl 15 0 empty empty empty 17 7 0 10 -262144 -1 -1 0
1;
#X obj 522 199 tgl 15 0 empty empty empty 17 7 0 10 -262144 -1 -1 0
1;
#X obj 523 301 tgl 15 0 empty empty empty 17 7 0 10 -262144 -1 -1 0
1;
#X obj 524 409 tgl 15 0 empty empty empty 17 7 0 10 -262144 -1 -1 0
1;
#X obj 520 70 r p5a;
#X obj 522 177 r p6a;
#X obj 523 280 r p7a;
#X obj 524 389 r p8a;
#X obj 572 37 r p5k1;
#X obj 629 37 r p5k2;
#X obj 686 37 r p5k3;
#X obj 743 37 r p5k4;
#X obj 570 141 r p6k1;
#X obj 627 142 r p6k2;
#X obj 684 141 r p6k3;
#X obj 741 141 r p6k4;
#X obj 570 246 r p7k1;
#X obj 633 242 r p7k2;
#X obj 684 244 r p7k3;
#X obj 742 244 r p7k4;
#X obj 570 349 r p8k1;
#X obj 627 349 r p8k2;
#X obj 685 350 r p8k3;
#X obj 741 350 r p8k4;
#X obj 77 139 delay 30;
#N canvas 175 596 640 531 choose 0;
#X obj 320 25 inlet;
#X obj 123 129 inlet;
#X obj 150 288 tgl 15 0 empty empty empty 17 7 0 10 -262144 -1 -1 0
1;
#X obj 283 286 tgl 15 0 empty empty empty 17 7 0 10 -262144 -1 -1 1
1;
#X obj 117 310 spigot;
#X obj 250 308 spigot;
#X obj 149 255 r m1;
#X obj 276 254 r m2;
#X msg 233 161 \; m1 1 \; m2 0 \;;
#X msg 284 160 \; m1 0 \; m2 1 \;;
#X obj 168 129 loadbang;
#N canvas 5 50 450 300 highlight-line 0;
#X obj 136 140 s oscOut;
#X msg 136 115 send /oled/invertline \$1;
#X obj 137 89 inlet;
#X connect 1 0 0 0;
#X connect 2 0 1 0;
#X restore 451 238 pd highlight-line;
#X msg 427 195 0;
#X obj 351 118 t b b;
#X obj 300 65 sel 4 5 6 7 8;
#X obj 411 120 t b b;
#X msg 465 195 4;
#X msg 59 383 \; screenLine1 1) Input \; screenLine2 2) Lfo \; screenLine3
3) Clock \; screenLine4 4) Grains \; screenLine5 5) Delay \;;
#X msg 253 391 \; screenLine1 6) Freeze \; screenLine2 7) Mixer \;
screenLine3 8) Page 8 \; screenLine4 <-- HOME \; screenLine5 ########
\;;
#X connect 0 0 14 0;
#X connect 1 0 4 0;
#X connect 1 0 5 0;
#X connect 2 0 4 1;
#X connect 3 0 5 1;
#X connect 4 0 17 0;
#X connect 5 0 18 0;
#X connect 6 0 2 0;
#X connect 7 0 3 0;
#X connect 10 0 8 0;
#X connect 12 0 11 0;
#X connect 13 0 12 0;
#X connect 13 1 18 0;
#X connect 14 0 8 0;
#X connect 14 0 15 0;
#X connect 14 1 9 0;
#X connect 14 1 13 0;
#X connect 14 2 9 0;
#X connect 14 3 9 0;
#X connect 14 4 9 0;
#X connect 14 5 8 0;
#X connect 15 0 16 0;
#X connect 15 1 17 0;
#X connect 16 0 11 0;
#X restore 75 232 pd choose;
#X obj 145 185 r whatpage;
#X obj 69 366 declare -path zexy;
#X obj 71 349 declare -lib zexy;
#X obj 68 385 declare -path iemlib;
#X obj 68 408 declare -path cyclone;
#X connect 2 0 91 0;
#X connect 4 0 49 0;
#X connect 5 0 2 0;
#X connect 6 0 90 0;
#X connect 6 1 3 0;
#X connect 8 0 7 0;
#X connect 12 0 9 0;
#X connect 13 0 10 0;
#X connect 14 0 11 0;
#X connect 27 0 28 0;
#X connect 32 0 15 0;
#X connect 33 0 16 0;
#X connect 34 0 17 0;
#X connect 35 0 18 0;
#X connect 36 0 19 0;
#X connect 37 0 20 0;
#X connect 38 0 21 0;
#X connect 39 0 22 0;
#X connect 40 0 23 0;
#X connect 41 0 24 0;
#X connect 42 0 25 0;
#X connect 43 0 26 0;
#X connect 44 0 29 0;
#X connect 45 0 30 0;
#X connect 46 0 31 0;
#X connect 49 0 6 0;
#X connect 70 0 66 0;
#X connect 71 0 67 0;
#X connect 72 0 68 0;
#X connect 73 0 69 0;
#X connect 74 0 50 0;
#X connect 75 0 51 0;
#X connect 76 0 52 0;
#X connect 77 0 53 0;
#X connect 78 0 54 0;
#X connect 79 0 55 0;
#X connect 80 0 56 0;
#X connect 81 0 57 0;
#X connect 82 0 58 0;
#X connect 83 0 59 0;
#X connect 84 0 60 0;
#X connect 85 0 61 0;
#X connect 86 0 62 0;
#X connect 87 0 63 0;
#X connect 88 0 64 0;
#X connect 89 0 65 0;
#X connect 90 0 5 0;
#X connect 92 0 91 1;
